<?xml version="1.0" standalone="no"?>
<!DOCTYPE svg PUBLIC "-//W3C//DTD SVG 20010904//EN"
 "http://www.w3.org/TR/2001/REC-SVG-20010904/DTD/svg10.dtd">
<svg version="1.0" xmlns="http://www.w3.org/2000/svg"
 width="600.000000pt" height="600.000000pt" viewBox="0 0 600.000000 600.000000"
 preserveAspectRatio="xMidYMid meet">
<metadata>
Created by potrace 1.11, written by Peter Selinger 2001-2013
</metadata>
<g transform="translate(0.000000,600.000000) scale(0.100000,-0.100000)"
fill="#000000" stroke="none">
<path d="M0 3000 l0 -3000 3000 0 3000 0 0 3000 0 3000 -3000 0 -3000 0 0
-3000z m3225 2231 c261 -68 523 -285 679 -563 l38 -68 329 0 329 0 0 -322 0
-323 68 -39 c301 -175 506 -459 553 -766 20 -134 -3 -306 -61 -450 -81 -203
-285 -423 -512 -555 l-48 -27 0 -339 0 -339 -338 0 -337 0 -34 -57 c-88 -147
-251 -324 -375 -407 -239 -158 -525 -200 -786 -114 -233 76 -452 262 -604 515
l-37 63 -320 0 -319 0 0 329 0 329 -67 38 c-221 122 -411 316 -508 519 -87
182 -111 389 -66 580 65 275 289 549 578 706 l63 34 0 313 0 312 310 0 309 0
42 73 c180 309 448 515 744 573 94 18 267 11 370 -15z"/>
</g>
</svg>
