<?xml version="1.0" standalone="no"?>
<!DOCTYPE svg PUBLIC "-//W3C//DTD SVG 1.1//EN" "http://www.w3.org/Graphics/SVG/1.1/DTD/svg11.dtd" >
<svg xmlns="http://www.w3.org/2000/svg" xmlns:xlink="http://www.w3.org/1999/xlink" version="1.1">
<metadata>
Created by FontForge 20160407 at Thu Oct 20 22:35:22 2016
 By Jimmy Warting
copyright missing
</metadata>
<defs>
<font id="CharlevoixPro-Medium" horiz-adv-x="0" >
  <font-face 
    font-family="Charlevoix Pro Medium"
    font-weight="500"
    font-stretch="normal"
    units-per-em="1000"
    panose-1="0 0 6 0 0 0 0 0 0 0"
    ascent="800"
    descent="-200"
    x-height="527"
    cap-height="713"
    bbox="-785 -294 1651 1009"
    underline-thickness="50"
    underline-position="-100"
    unicode-range="U+0020-2260"
  />
<missing-glyph horiz-adv-x="480" 
d="M394 753v-960h-305v960h305zM320 689h-159v-32h63v-36h-64v-31h160v31h-64v36h64v32zM256 565h-96v-100h160v33h-64v67zM224 532v-34h-32v34h32zM320 439h-160v-32h64v-35h-64v-32h96v67h64v32zM320 381h-32v-63h-128v-33h160v96zM320 264h-96v-53h32v22h32v-45h-96v76
h-32v-108h160v108zM320 98h-160v-108h160v108zM288 67v-46h-96v46h96zM320 -32h-160v-32h68l-68 -45v-32h160v32h-98l67 45h31v32z" />
    <glyph glyph-name=".notdef" horiz-adv-x="480" 
d="M394 753v-960h-305v960h305zM320 689h-159v-32h63v-36h-64v-31h160v31h-64v36h64v32zM256 565h-96v-100h160v33h-64v67zM224 532v-34h-32v34h32zM320 439h-160v-32h64v-35h-64v-32h96v67h64v32zM320 381h-32v-63h-128v-33h160v96zM320 264h-96v-53h32v22h32v-45h-96v76
h-32v-108h160v108zM320 98h-160v-108h160v108zM288 67v-46h-96v46h96zM320 -32h-160v-32h68l-68 -45v-32h160v32h-98l67 45h31v32z" />
    <glyph glyph-name="A" unicode="A" horiz-adv-x="797" 
d="M369 706c2 5 7 7 12 7h47c5 0 10 -2 12 -7l302 -694c3 -7 0 -12 -7 -12h-90c-5 0 -10 2 -12 7l-56 128c-2 5 -6 7 -11 7h-324c-5 0 -10 -2 -12 -7l-56 -128c-2 -5 -6 -7 -11 -7h-91c-7 0 -10 5 -7 12zM283 256c-3 -7 0 -12 7 -12h228c7 0 10 5 7 12l-114 270
c-3 7 -11 7 -14 0z" />
    <glyph glyph-name="Aacute" unicode="&#xc1;" horiz-adv-x="797" 
d="M467 932c2 5 7 7 12 7h81c8 0 11 -6 6 -12l-101 -138c-3 -5 -7 -6 -12 -6h-64c-7 0 -12 5 -8 12zM369 706c2 5 7 7 12 7h47c5 0 10 -2 12 -7l302 -694c3 -7 0 -12 -7 -12h-90c-5 0 -10 2 -12 7l-56 128c-2 5 -6 7 -11 7h-324c-5 0 -10 -2 -12 -7l-56 -128
c-2 -5 -6 -7 -11 -7h-91c-7 0 -10 5 -7 12zM283 256c-3 -7 0 -12 7 -12h228c7 0 10 5 7 12l-114 270c-3 7 -11 7 -14 0z" />
    <glyph glyph-name="Abreve" unicode="&#x102;" horiz-adv-x="797" 
d="M268 931c0 5 3 8 8 8h37c5 0 8 -3 8 -8c5 -41 39 -71 83 -71s78 30 82 71c0 5 3 8 8 8h38c5 0 8 -3 8 -8c-4 -86 -61 -136 -136 -136s-132 51 -136 136zM369 706c2 5 7 7 12 7h47c5 0 10 -2 12 -7l302 -694c3 -7 0 -12 -7 -12h-90c-5 0 -10 2 -12 7l-56 128
c-2 5 -6 7 -11 7h-324c-5 0 -10 -2 -12 -7l-56 -128c-2 -5 -6 -7 -11 -7h-91c-7 0 -10 5 -7 12zM283 256c-3 -7 0 -12 7 -12h228c7 0 10 5 7 12l-114 270c-3 7 -11 7 -14 0z" />
    <glyph glyph-name="Acircumflex" unicode="&#xc2;" horiz-adv-x="797" 
d="M272 851c0 5 3 9 8 12l117 61c4 2 10 2 14 0l117 -61c5 -3 8 -7 8 -12v-57c0 -7 -5 -12 -12 -8l-113 58c-4 2 -10 2 -14 0l-113 -58c-7 -4 -12 1 -12 8v57zM369 706c2 5 7 7 12 7h47c5 0 10 -2 12 -7l302 -694c3 -7 0 -12 -7 -12h-90c-5 0 -10 2 -12 7l-56 128
c-2 5 -6 7 -11 7h-324c-5 0 -10 -2 -12 -7l-56 -128c-2 -5 -6 -7 -11 -7h-91c-7 0 -10 5 -7 12zM283 256c-3 -7 0 -12 7 -12h228c7 0 10 5 7 12l-114 270c-3 7 -11 7 -14 0z" />
    <glyph glyph-name="Adieresis" unicode="&#xc4;" horiz-adv-x="797" 
d="M317 812c-35 0 -65 30 -65 65c0 36 30 65 65 65c36 0 65 -29 65 -65c0 -35 -29 -65 -65 -65zM497 812c-35 0 -65 30 -65 65c0 36 30 65 65 65c36 0 65 -29 65 -65c0 -35 -29 -65 -65 -65zM369 706c2 5 7 7 12 7h47c5 0 10 -2 12 -7l302 -694c3 -7 0 -12 -7 -12h-90
c-5 0 -10 2 -12 7l-56 128c-2 5 -6 7 -11 7h-324c-5 0 -10 -2 -12 -7l-56 -128c-2 -5 -6 -7 -11 -7h-91c-7 0 -10 5 -7 12zM283 256c-3 -7 0 -12 7 -12h228c7 0 10 5 7 12l-114 270c-3 7 -11 7 -14 0z" />
    <glyph glyph-name="Agrave" unicode="&#xc0;" horiz-adv-x="797" 
d="M350 932l86 -137c4 -7 -1 -12 -8 -12h-64c-5 0 -9 1 -12 6l-101 138c-5 6 -2 12 6 12h81c5 0 10 -2 12 -7zM369 706c2 5 7 7 12 7h47c5 0 10 -2 12 -7l302 -694c3 -7 0 -12 -7 -12h-90c-5 0 -10 2 -12 7l-56 128c-2 5 -6 7 -11 7h-324c-5 0 -10 -2 -12 -7l-56 -128
c-2 -5 -6 -7 -11 -7h-91c-7 0 -10 5 -7 12zM283 256c-3 -7 0 -12 7 -12h228c7 0 10 5 7 12l-114 270c-3 7 -11 7 -14 0z" />
    <glyph glyph-name="Amacron" unicode="&#x100;" horiz-adv-x="797" 
d="M264 891c0 5 3 8 8 8h264c5 0 8 -3 8 -8v-61c0 -5 -3 -8 -8 -8h-264c-5 0 -8 3 -8 8v61zM369 706c2 5 7 7 12 7h47c5 0 10 -2 12 -7l302 -694c3 -7 0 -12 -7 -12h-90c-5 0 -10 2 -12 7l-56 128c-2 5 -6 7 -11 7h-324c-5 0 -10 -2 -12 -7l-56 -128c-2 -5 -6 -7 -11 -7h-91
c-7 0 -10 5 -7 12zM283 256c-3 -7 0 -12 7 -12h228c7 0 10 5 7 12l-114 270c-3 7 -11 7 -14 0z" />
    <glyph glyph-name="Aogonek" unicode="&#x104;" horiz-adv-x="797" 
d="M756 -142c5 2 9 -2 9 -7v-31c0 -4 -1 -7 -3 -8c-19 -13 -47 -22 -84 -22c-66 0 -120 30 -120 92c0 66 60 103 111 118h-24c-5 0 -10 2 -12 7l-56 128c-2 5 -6 7 -11 7h-324c-5 0 -10 -2 -12 -7l-56 -128c-2 -5 -6 -7 -11 -7h-91c-7 0 -10 5 -7 12l304 694c2 5 7 7 12 7
h47c5 0 10 -2 12 -7l302 -694c3 -7 0 -12 -7 -12h-10c-56 -29 -93 -63 -93 -102c0 -36 30 -53 60 -53s45 7 64 13zM518 244c7 0 10 5 7 12l-114 270c-3 7 -11 7 -14 0l-114 -270c-3 -7 0 -12 7 -12h228z" />
    <glyph glyph-name="Aring" unicode="&#xc5;" horiz-adv-x="797" 
d="M404 792c-42 0 -75 34 -75 75c0 42 33 75 75 75c41 0 75 -33 75 -75c0 -41 -34 -75 -75 -75zM404 900c-21 0 -33 -17 -33 -33s12 -33 33 -33s33 17 33 33s-12 33 -33 33zM369 706c2 5 7 7 12 7h47c5 0 10 -2 12 -7l302 -694c3 -7 0 -12 -7 -12h-90c-5 0 -10 2 -12 7
l-56 128c-2 5 -6 7 -11 7h-324c-5 0 -10 -2 -12 -7l-56 -128c-2 -5 -6 -7 -11 -7h-91c-7 0 -10 5 -7 12zM283 256c-3 -7 0 -12 7 -12h228c7 0 10 5 7 12l-114 270c-3 7 -11 7 -14 0z" />
    <glyph glyph-name="Atilde" unicode="&#xc3;" horiz-adv-x="797" 
d="M465 790c-69 0 -90 61 -140 61c-26 0 -48 -18 -60 -42c-2 -4 -5 -5 -10 -4l-37 12c-5 1 -7 5 -5 9c14 37 41 111 112 111c68 0 94 -62 140 -62c27 0 46 13 59 40c3 5 5 7 10 6l38 -12c5 -2 7 -6 5 -11c-9 -31 -35 -108 -112 -108zM369 706c2 5 7 7 12 7h47
c5 0 10 -2 12 -7l302 -694c3 -7 0 -12 -7 -12h-90c-5 0 -10 2 -12 7l-56 128c-2 5 -6 7 -11 7h-324c-5 0 -10 -2 -12 -7l-56 -128c-2 -5 -6 -7 -11 -7h-91c-7 0 -10 5 -7 12zM283 256c-3 -7 0 -12 7 -12h228c7 0 10 5 7 12l-114 270c-3 7 -11 7 -14 0z" />
    <glyph glyph-name="AE" unicode="&#xc6;" horiz-adv-x="1069" 
d="M995 102c6 0 10 -4 10 -10v-82c0 -6 -4 -10 -10 -10h-414c-6 0 -10 4 -10 10v122c0 6 -4 10 -10 10h-255c-5 0 -9 -1 -12 -6l-91 -130c-3 -5 -7 -6 -12 -6h-119c-8 0 -10 6 -6 12l484 695c3 5 7 6 12 6h423c6 0 10 -4 10 -10v-82c0 -6 -4 -10 -10 -10h-291
c-6 0 -10 -4 -10 -10v-193c0 -6 4 -10 10 -10h199c6 0 10 -4 10 -10v-82c0 -6 -4 -10 -10 -10h-199c-6 0 -10 -4 -10 -10v-174c0 -6 4 -10 10 -10h301zM372 256c-4 -5 -1 -12 7 -12h182c6 0 10 4 10 10v277c0 9 -7 11 -12 3z" />
    <glyph glyph-name="B" unicode="B" horiz-adv-x="664" 
d="M104 0c-6 0 -10 4 -10 10v693c0 6 4 10 10 10h261c127 0 209 -65 209 -196c0 -74 -36 -120 -71 -141c-6 -4 -6 -8 1 -11c45 -19 104 -72 104 -168c0 -128 -75 -197 -222 -197h-282zM218 411h138c80 0 116 47 116 100c0 69 -52 100 -107 100h-147c-6 0 -10 -4 -10 -10
v-180c0 -6 4 -10 10 -10zM218 102h168c61 0 120 24 120 101c0 63 -53 106 -120 106h-168c-6 0 -10 -4 -10 -10v-187c0 -6 4 -10 10 -10z" />
    <glyph glyph-name="C" unicode="C" horiz-adv-x="795" 
d="M623 214c3 7 9 6 14 5l88 -12c7 -1 6 -8 4 -13c-27 -105 -147 -197 -289 -197c-211 0 -346 168 -346 361c0 192 135 358 346 358c142 0 261 -91 289 -196c2 -5 4 -12 -4 -13l-88 -12c-5 -1 -11 -2 -14 5c-16 41 -81 114 -187 114c-131 0 -228 -102 -228 -256
c0 -155 97 -259 228 -259c106 0 171 74 187 115z" />
    <glyph glyph-name="Cacute" unicode="&#x106;" horiz-adv-x="795" 
d="M503 936c2 5 7 7 12 7h81c8 0 11 -6 6 -12l-101 -138c-3 -5 -7 -6 -12 -6h-64c-7 0 -12 5 -8 12zM623 214c3 7 9 6 14 5l88 -12c7 -1 6 -8 4 -13c-27 -105 -147 -197 -289 -197c-211 0 -346 168 -346 361c0 192 135 358 346 358c142 0 261 -91 289 -196
c2 -5 4 -12 -4 -13l-88 -12c-5 -1 -11 -2 -14 5c-16 41 -81 114 -187 114c-131 0 -228 -102 -228 -256c0 -155 97 -259 228 -259c106 0 171 74 187 115z" />
    <glyph glyph-name="Ccaron" unicode="&#x10c;" horiz-adv-x="795" 
d="M308 863v57c0 7 5 12 12 8l113 -58c4 -2 10 -2 14 0l113 58c7 4 12 -1 12 -8v-57c0 -5 -3 -9 -8 -12l-117 -61c-4 -2 -10 -2 -14 0l-117 61c-5 3 -8 7 -8 12zM623 214c3 7 9 6 14 5l88 -12c7 -1 6 -8 4 -13c-27 -105 -147 -197 -289 -197c-211 0 -346 168 -346 361
c0 192 135 358 346 358c142 0 261 -91 289 -196c2 -5 4 -12 -4 -13l-88 -12c-5 -1 -11 -2 -14 5c-16 41 -81 114 -187 114c-131 0 -228 -102 -228 -256c0 -155 97 -259 228 -259c106 0 171 74 187 115z" />
    <glyph glyph-name="Ccedilla" unicode="&#xc7;" horiz-adv-x="795" 
d="M725 207c7 -1 6 -8 4 -13c-26 -99 -133 -186 -264 -196l-9 -33c-1 -6 1 -9 7 -9c46 2 85 -26 85 -78s-55 -89 -116 -89c-26 0 -58 10 -77 24c-4 2 -5 5 -5 9v30c0 5 4 10 9 7c16 -7 38 -17 63 -17c28 0 55 14 55 41s-23 42 -53 42c-26 0 -41 -6 -51 -11c-7 -3 -10 2 -8 7
l28 79c-184 23 -299 180 -299 358c0 192 135 358 346 358c142 0 261 -91 289 -196c2 -5 4 -12 -4 -13l-88 -12c-5 -1 -11 -2 -14 5c-16 41 -81 114 -187 114c-131 0 -228 -102 -228 -256c0 -155 97 -259 228 -259c106 0 171 74 187 115c3 7 9 6 14 5z" />
    <glyph glyph-name="Cdotaccent" unicode="&#x10a;" horiz-adv-x="795" 
d="M441 816c-35 0 -65 30 -65 65c0 36 30 65 65 65c36 0 65 -29 65 -65c0 -35 -29 -65 -65 -65zM623 214c3 7 9 6 14 5l88 -12c7 -1 6 -8 4 -13c-27 -105 -147 -197 -289 -197c-211 0 -346 168 -346 361c0 192 135 358 346 358c142 0 261 -91 289 -196c2 -5 4 -12 -4 -13
l-88 -12c-5 -1 -11 -2 -14 5c-16 41 -81 114 -187 114c-131 0 -228 -102 -228 -256c0 -155 97 -259 228 -259c106 0 171 74 187 115z" />
    <glyph glyph-name="D" unicode="D" horiz-adv-x="776" 
d="M722 356c0 -203 -165 -356 -371 -356h-247c-6 0 -10 4 -10 10v693c0 6 4 10 10 10h247c206 0 371 -153 371 -357zM608 356c0 135 -105 255 -251 255h-139c-6 0 -10 -4 -10 -10v-489c0 -6 4 -10 10 -10h139c146 0 251 119 251 254z" />
    <glyph glyph-name="Eth" unicode="&#xd0;" horiz-adv-x="939" 
d="M503 713c205 0 370 -153 370 -357c0 -203 -165 -356 -370 -356h-247c-6 0 -10 4 -10 10v280h-125c-6 0 -10 4 -10 10v82c0 6 4 10 10 10h125v311c0 6 4 10 10 10h247zM508 101c147 0 252 120 252 255s-105 255 -252 255h-138c-6 0 -10 -4 -10 -10v-209h191
c6 0 10 -4 10 -10v-82c0 -6 -4 -10 -10 -10h-191v-179c0 -6 4 -10 10 -10h138z" />
    <glyph glyph-name="Dcaron" unicode="&#x10e;" horiz-adv-x="776" 
d="M219 859v57c0 7 5 12 12 8l113 -58c4 -2 10 -2 14 0l113 58c7 4 12 -1 12 -8v-57c0 -5 -3 -9 -8 -12l-117 -61c-4 -2 -10 -2 -14 0l-117 61c-5 3 -8 7 -8 12zM722 356c0 -203 -165 -356 -371 -356h-247c-6 0 -10 4 -10 10v693c0 6 4 10 10 10h247
c206 0 371 -153 371 -357zM608 356c0 135 -105 255 -251 255h-139c-6 0 -10 -4 -10 -10v-489c0 -6 4 -10 10 -10h139c146 0 251 119 251 254z" />
    <glyph glyph-name="Dcroat" unicode="&#x110;" horiz-adv-x="939" 
d="M503 713c205 0 370 -153 370 -357c0 -203 -165 -356 -370 -356h-247c-6 0 -10 4 -10 10v280h-125c-6 0 -10 4 -10 10v82c0 6 4 10 10 10h125v311c0 6 4 10 10 10h247zM508 101c147 0 252 120 252 255s-105 255 -252 255h-138c-6 0 -10 -4 -10 -10v-209h191
c6 0 10 -4 10 -10v-82c0 -6 -4 -10 -10 -10h-191v-179c0 -6 4 -10 10 -10h138z" />
    <glyph glyph-name="E" unicode="E" horiz-adv-x="578" 
d="M504 102c6 0 10 -4 10 -10v-82c0 -6 -4 -10 -10 -10h-410c-6 0 -10 4 -10 10v693c0 6 4 10 10 10h400c6 0 10 -4 10 -10v-82c0 -6 -4 -10 -10 -10h-286c-6 0 -10 -4 -10 -10v-191c0 -6 4 -10 10 -10h206c6 0 10 -4 10 -10v-82c0 -6 -4 -10 -10 -10h-206
c-6 0 -10 -4 -10 -10v-176c0 -6 4 -10 10 -10h296z" />
    <glyph glyph-name="Eacute" unicode="&#xc9;" horiz-adv-x="578" 
d="M356 932c2 5 7 7 12 7h81c8 0 11 -6 6 -12l-101 -138c-3 -5 -7 -6 -12 -6h-64c-7 0 -12 5 -8 12zM504 102c6 0 10 -4 10 -10v-82c0 -6 -4 -10 -10 -10h-410c-6 0 -10 4 -10 10v693c0 6 4 10 10 10h400c6 0 10 -4 10 -10v-82c0 -6 -4 -10 -10 -10h-286
c-6 0 -10 -4 -10 -10v-191c0 -6 4 -10 10 -10h206c6 0 10 -4 10 -10v-82c0 -6 -4 -10 -10 -10h-206c-6 0 -10 -4 -10 -10v-176c0 -6 4 -10 10 -10h296z" />
    <glyph glyph-name="Ecaron" unicode="&#x11a;" horiz-adv-x="578" 
d="M161 859v57c0 7 5 12 12 8l113 -58c4 -2 10 -2 14 0l113 58c7 4 12 -1 12 -8v-57c0 -5 -3 -9 -8 -12l-117 -61c-4 -2 -10 -2 -14 0l-117 61c-5 3 -8 7 -8 12zM504 102c6 0 10 -4 10 -10v-82c0 -6 -4 -10 -10 -10h-410c-6 0 -10 4 -10 10v693c0 6 4 10 10 10h400
c6 0 10 -4 10 -10v-82c0 -6 -4 -10 -10 -10h-286c-6 0 -10 -4 -10 -10v-191c0 -6 4 -10 10 -10h206c6 0 10 -4 10 -10v-82c0 -6 -4 -10 -10 -10h-206c-6 0 -10 -4 -10 -10v-176c0 -6 4 -10 10 -10h296z" />
    <glyph glyph-name="Ecircumflex" unicode="&#xca;" horiz-adv-x="578" 
d="M161 851c0 5 3 9 8 12l117 61c4 2 10 2 14 0l117 -61c5 -3 8 -7 8 -12v-57c0 -7 -5 -12 -12 -8l-113 58c-4 2 -10 2 -14 0l-113 -58c-7 -4 -12 1 -12 8v57zM504 102c6 0 10 -4 10 -10v-82c0 -6 -4 -10 -10 -10h-410c-6 0 -10 4 -10 10v693c0 6 4 10 10 10h400
c6 0 10 -4 10 -10v-82c0 -6 -4 -10 -10 -10h-286c-6 0 -10 -4 -10 -10v-191c0 -6 4 -10 10 -10h206c6 0 10 -4 10 -10v-82c0 -6 -4 -10 -10 -10h-206c-6 0 -10 -4 -10 -10v-176c0 -6 4 -10 10 -10h296z" />
    <glyph glyph-name="Edieresis" unicode="&#xcb;" horiz-adv-x="578" 
d="M206 812c-35 0 -65 30 -65 65c0 36 30 65 65 65c36 0 65 -29 65 -65c0 -35 -29 -65 -65 -65zM386 812c-35 0 -65 30 -65 65c0 36 30 65 65 65c36 0 65 -29 65 -65c0 -35 -29 -65 -65 -65zM504 102c6 0 10 -4 10 -10v-82c0 -6 -4 -10 -10 -10h-410c-6 0 -10 4 -10 10v693
c0 6 4 10 10 10h400c6 0 10 -4 10 -10v-82c0 -6 -4 -10 -10 -10h-286c-6 0 -10 -4 -10 -10v-191c0 -6 4 -10 10 -10h206c6 0 10 -4 10 -10v-82c0 -6 -4 -10 -10 -10h-206c-6 0 -10 -4 -10 -10v-176c0 -6 4 -10 10 -10h296z" />
    <glyph glyph-name="Edotaccent" unicode="&#x116;" horiz-adv-x="578" 
d="M293 812c-35 0 -65 30 -65 65c0 36 30 65 65 65c36 0 65 -29 65 -65c0 -35 -29 -65 -65 -65zM504 102c6 0 10 -4 10 -10v-82c0 -6 -4 -10 -10 -10h-410c-6 0 -10 4 -10 10v693c0 6 4 10 10 10h400c6 0 10 -4 10 -10v-82c0 -6 -4 -10 -10 -10h-286c-6 0 -10 -4 -10 -10
v-191c0 -6 4 -10 10 -10h206c6 0 10 -4 10 -10v-82c0 -6 -4 -10 -10 -10h-206c-6 0 -10 -4 -10 -10v-176c0 -6 4 -10 10 -10h296z" />
    <glyph glyph-name="Egrave" unicode="&#xc8;" horiz-adv-x="578" 
d="M240 932l86 -137c4 -7 -1 -12 -8 -12h-64c-5 0 -9 1 -12 6l-101 138c-5 6 -2 12 6 12h81c5 0 10 -2 12 -7zM504 102c6 0 10 -4 10 -10v-82c0 -6 -4 -10 -10 -10h-410c-6 0 -10 4 -10 10v693c0 6 4 10 10 10h400c6 0 10 -4 10 -10v-82c0 -6 -4 -10 -10 -10h-286
c-6 0 -10 -4 -10 -10v-191c0 -6 4 -10 10 -10h206c6 0 10 -4 10 -10v-82c0 -6 -4 -10 -10 -10h-206c-6 0 -10 -4 -10 -10v-176c0 -6 4 -10 10 -10h296z" />
    <glyph glyph-name="Emacron" unicode="&#x112;" horiz-adv-x="578" 
d="M153 891c0 5 3 8 8 8h264c5 0 8 -3 8 -8v-61c0 -5 -3 -8 -8 -8h-264c-5 0 -8 3 -8 8v61zM504 102c6 0 10 -4 10 -10v-82c0 -6 -4 -10 -10 -10h-410c-6 0 -10 4 -10 10v693c0 6 4 10 10 10h400c6 0 10 -4 10 -10v-82c0 -6 -4 -10 -10 -10h-286c-6 0 -10 -4 -10 -10v-191
c0 -6 4 -10 10 -10h206c6 0 10 -4 10 -10v-82c0 -6 -4 -10 -10 -10h-206c-6 0 -10 -4 -10 -10v-176c0 -6 4 -10 10 -10h296z" />
    <glyph glyph-name="Eogonek" unicode="&#x118;" horiz-adv-x="578" 
d="M504 102c6 0 10 -4 10 -10v-82c0 -6 -4 -10 -10 -10h-87c-56 -29 -93 -63 -93 -102c0 -36 30 -53 60 -53s45 7 64 13c5 2 9 -2 9 -7v-31c0 -4 -1 -7 -3 -8c-19 -13 -47 -22 -84 -22c-66 0 -120 30 -120 92c0 66 60 103 111 118h-267c-6 0 -10 4 -10 10v693
c0 6 4 10 10 10h400c6 0 10 -4 10 -10v-82c0 -6 -4 -10 -10 -10h-286c-6 0 -10 -4 -10 -10v-191c0 -6 4 -10 10 -10h206c6 0 10 -4 10 -10v-82c0 -6 -4 -10 -10 -10h-206c-6 0 -10 -4 -10 -10v-176c0 -6 4 -10 10 -10h296z" />
    <glyph glyph-name="F" unicode="F" horiz-adv-x="576" 
d="M218 276c-6 0 -10 -4 -10 -10v-256c0 -6 -4 -10 -10 -10h-94c-6 0 -10 4 -10 10v693c0 6 4 10 10 10h398c6 0 10 -4 10 -10v-82c0 -6 -4 -10 -10 -10h-284c-6 0 -10 -4 -10 -10v-213c0 -6 4 -10 10 -10h186c6 0 10 -4 10 -10v-82c0 -6 -4 -10 -10 -10h-186z" />
    <glyph glyph-name="G" unicode="G" horiz-adv-x="839" 
d="M783 391c6 0 10 -4 10 -10v-24c0 -200 -131 -360 -344 -360c-198 0 -355 161 -355 360c0 198 155 359 354 359c147 0 264 -89 308 -195c2 -6 3 -11 -3 -12l-86 -13c-6 -2 -12 -2 -16 4c-31 53 -99 114 -197 114c-149 0 -246 -122 -246 -257c0 -136 93 -258 247 -258
c158 0 224 118 224 197c0 6 -3 10 -9 10h-201c-6 0 -10 4 -10 10v65c0 6 4 10 10 10h314z" />
    <glyph glyph-name="Gbreve" unicode="&#x11e;" horiz-adv-x="839" 
d="M318 934c0 5 3 8 8 8h37c5 0 8 -3 8 -8c5 -41 39 -71 83 -71s78 30 82 71c0 5 3 8 8 8h38c5 0 8 -3 8 -8c-4 -86 -61 -136 -136 -136s-132 51 -136 136zM783 391c6 0 10 -4 10 -10v-24c0 -200 -131 -360 -344 -360c-198 0 -355 161 -355 360c0 198 155 359 354 359
c147 0 264 -89 308 -195c2 -6 3 -11 -3 -12l-86 -13c-6 -2 -12 -2 -16 4c-31 53 -99 114 -197 114c-149 0 -246 -122 -246 -257c0 -136 93 -258 247 -258c158 0 224 118 224 197c0 6 -3 10 -9 10h-201c-6 0 -10 4 -10 10v65c0 6 4 10 10 10h314z" />
    <glyph glyph-name="Gcommaaccent" unicode="&#x122;" horiz-adv-x="839" 
d="M783 391c6 0 10 -4 10 -10v-24c0 -200 -131 -360 -344 -360c-198 0 -355 161 -355 360c0 198 155 359 354 359c147 0 264 -89 308 -195c2 -6 3 -11 -3 -12l-86 -13c-6 -2 -12 -2 -16 4c-31 53 -99 114 -197 114c-149 0 -246 -122 -246 -257c0 -136 93 -258 247 -258
c158 0 224 118 224 197c0 6 -3 10 -9 10h-201c-6 0 -10 4 -10 10v65c0 6 4 10 10 10h314zM374 -71c1 5 5 9 11 9h82c7 0 10 -4 8 -11l-75 -213c-2 -6 -7 -8 -12 -8h-61c-7 0 -10 5 -8 11z" />
    <glyph glyph-name="Gdotaccent" unicode="&#x120;" horiz-adv-x="839" 
d="M455 815c-35 0 -65 30 -65 65c0 36 30 65 65 65c36 0 65 -29 65 -65c0 -35 -29 -65 -65 -65zM783 391c6 0 10 -4 10 -10v-24c0 -200 -131 -360 -344 -360c-198 0 -355 161 -355 360c0 198 155 359 354 359c147 0 264 -89 308 -195c2 -6 3 -11 -3 -12l-86 -13
c-6 -2 -12 -2 -16 4c-31 53 -99 114 -197 114c-149 0 -246 -122 -246 -257c0 -136 93 -258 247 -258c158 0 224 118 224 197c0 6 -3 10 -9 10h-201c-6 0 -10 4 -10 10v65c0 6 4 10 10 10h314z" />
    <glyph glyph-name="H" unicode="H" horiz-adv-x="746" 
d="M558 703c0 6 4 10 10 10h94c6 0 10 -4 10 -10v-693c0 -6 -4 -10 -10 -10h-94c-6 0 -10 4 -10 10v268c0 6 -4 10 -10 10h-330c-6 0 -10 -4 -10 -10v-268c0 -6 -4 -10 -10 -10h-94c-6 0 -10 4 -10 10v693c0 6 4 10 10 10h94c6 0 10 -4 10 -10v-303c0 -6 4 -10 10 -10h330
c6 0 10 4 10 10v303z" />
    <glyph glyph-name="Hbar" unicode="&#x126;" horiz-adv-x="746" 
d="M731 608c6 0 10 -4 10 -10v-48c0 -6 -4 -10 -10 -10h-59v-530c0 -6 -4 -10 -10 -10h-94c-6 0 -10 4 -10 10v268c0 6 -4 10 -10 10h-330c-6 0 -10 -4 -10 -10v-268c0 -6 -4 -10 -10 -10h-94c-6 0 -10 4 -10 10v530h-58c-6 0 -10 4 -10 10v48c0 6 4 10 10 10h58v95
c0 6 4 10 10 10h94c6 0 10 -4 10 -10v-95h350v95c0 6 4 10 10 10h94c6 0 10 -4 10 -10v-95h59zM558 400v140h-350v-140c0 -6 4 -10 10 -10h330c6 0 10 4 10 10z" />
    <glyph glyph-name="I" unicode="I" horiz-adv-x="262" 
d="M198 10c0 -6 -4 -10 -10 -10h-94c-6 0 -10 4 -10 10v693c0 6 4 10 10 10h94c6 0 10 -4 10 -10v-693z" />
    <glyph glyph-name="Iacute" unicode="&#xcd;" horiz-adv-x="262" 
d="M206 932c2 5 7 7 12 7h81c8 0 11 -6 6 -12l-101 -138c-3 -5 -7 -6 -12 -6h-64c-7 0 -12 5 -8 12zM198 10c0 -6 -4 -10 -10 -10h-94c-6 0 -10 4 -10 10v693c0 6 4 10 10 10h94c6 0 10 -4 10 -10v-693z" />
    <glyph glyph-name="Icircumflex" unicode="&#xce;" horiz-adv-x="262" 
d="M10 851c0 5 3 9 8 12l117 61c4 2 10 2 14 0l117 -61c5 -3 8 -7 8 -12v-57c0 -7 -5 -12 -12 -8l-113 58c-4 2 -10 2 -14 0l-113 -58c-7 -4 -12 1 -12 8v57zM198 10c0 -6 -4 -10 -10 -10h-94c-6 0 -10 4 -10 10v693c0 6 4 10 10 10h94c6 0 10 -4 10 -10v-693z" />
    <glyph glyph-name="Idieresis" unicode="&#xcf;" horiz-adv-x="262" 
d="M56 812c-35 0 -65 30 -65 65c0 36 30 65 65 65c36 0 65 -29 65 -65c0 -35 -29 -65 -65 -65zM236 812c-35 0 -65 30 -65 65c0 36 30 65 65 65c36 0 65 -29 65 -65c0 -35 -29 -65 -65 -65zM198 10c0 -6 -4 -10 -10 -10h-94c-6 0 -10 4 -10 10v693c0 6 4 10 10 10h94
c6 0 10 -4 10 -10v-693z" />
    <glyph glyph-name="Idotaccent" unicode="&#x130;" horiz-adv-x="262" 
d="M143 812c-35 0 -65 30 -65 65c0 36 30 65 65 65c36 0 65 -29 65 -65c0 -35 -29 -65 -65 -65zM198 10c0 -6 -4 -10 -10 -10h-94c-6 0 -10 4 -10 10v693c0 6 4 10 10 10h94c6 0 10 -4 10 -10v-693z" />
    <glyph glyph-name="Igrave" unicode="&#xcc;" horiz-adv-x="262" 
d="M89 932l86 -137c4 -7 -1 -12 -8 -12h-64c-5 0 -9 1 -12 6l-101 138c-5 6 -2 12 6 12h81c5 0 10 -2 12 -7zM198 10c0 -6 -4 -10 -10 -10h-94c-6 0 -10 4 -10 10v693c0 6 4 10 10 10h94c6 0 10 -4 10 -10v-693z" />
    <glyph glyph-name="Imacron" unicode="&#x12a;" horiz-adv-x="262" 
d="M2 891c0 5 3 8 8 8h264c5 0 8 -3 8 -8v-61c0 -5 -3 -8 -8 -8h-264c-5 0 -8 3 -8 8v61zM198 10c0 -6 -4 -10 -10 -10h-94c-6 0 -10 4 -10 10v693c0 6 4 10 10 10h94c6 0 10 -4 10 -10v-693z" />
    <glyph glyph-name="Iogonek" unicode="&#x12e;" horiz-adv-x="262" 
d="M198 -141c5 2 9 -2 9 -7v-31c0 -4 -1 -7 -3 -8c-19 -13 -47 -22 -84 -22c-66 0 -120 30 -120 92c0 65 58 101 108 117h-14c-6 0 -10 4 -10 10v693c0 6 4 10 10 10h94c6 0 10 -4 10 -10v-693c0 -6 -4 -10 -10 -10h-23c-55 -28 -91 -62 -91 -101c0 -36 30 -53 60 -53
s45 7 64 13z" />
    <glyph glyph-name="J" unicode="J" horiz-adv-x="591" 
d="M423 703c0 6 4 10 10 10h94c6 0 9 -4 9 -10v-426c0 -125 -16 -280 -228 -280c-161 0 -210 120 -224 204c-1 7 4 9 10 10l94 13c6 1 9 -3 10 -10c6 -46 30 -115 110 -115c105 0 115 72 115 179v425z" />
    <glyph glyph-name="K" unicode="K" horiz-adv-x="731" 
d="M548 0c-5 0 -9 1 -13 6l-234 278c-5 6 -10 4 -14 0l-74 -81c-4 -4 -5 -7 -5 -12v-181c0 -6 -4 -10 -10 -10h-94c-6 0 -10 4 -10 10v693c0 6 4 10 10 10h94c6 0 10 -4 10 -10v-336c0 -9 6 -12 12 -5l313 345c4 4 7 6 12 6h112c8 0 11 -6 6 -12l-292 -326
c-4 -4 -3 -10 0 -14l293 -349c5 -6 2 -12 -6 -12h-110z" />
    <glyph glyph-name="Kcommaaccent" unicode="&#x136;" horiz-adv-x="731" 
d="M548 0c-5 0 -9 1 -13 6l-234 278c-5 6 -10 4 -14 0l-74 -81c-4 -4 -5 -7 -5 -12v-181c0 -6 -4 -10 -10 -10h-94c-6 0 -10 4 -10 10v693c0 6 4 10 10 10h94c6 0 10 -4 10 -10v-336c0 -9 6 -12 12 -5l313 345c4 4 7 6 12 6h112c8 0 11 -6 6 -12l-292 -326
c-4 -4 -3 -10 0 -14l293 -349c5 -6 2 -12 -6 -12h-110zM320 -71c1 5 5 9 11 9h82c7 0 10 -4 8 -11l-75 -213c-2 -6 -7 -8 -12 -8h-61c-7 0 -10 5 -8 11z" />
    <glyph glyph-name="L" unicode="L" horiz-adv-x="537" 
d="M463 102c6 0 10 -4 10 -10v-82c0 -6 -4 -10 -10 -10h-369c-6 0 -10 4 -10 10v693c0 6 4 10 10 10h94c6 0 10 -4 10 -10v-591c0 -6 4 -10 10 -10h255z" />
    <glyph glyph-name="Lacute" unicode="&#x139;" horiz-adv-x="537" 
d="M273 932c2 5 7 7 12 7h81c8 0 11 -6 6 -12l-101 -138c-3 -5 -7 -6 -12 -6h-64c-7 0 -12 5 -8 12zM463 102c6 0 10 -4 10 -10v-82c0 -6 -4 -10 -10 -10h-369c-6 0 -10 4 -10 10v693c0 6 4 10 10 10h94c6 0 10 -4 10 -10v-591c0 -6 4 -10 10 -10h255z" />
    <glyph glyph-name="Lcaron" unicode="&#x13d;" horiz-adv-x="537" 
d="M387 745c1 5 5 9 11 9h82c7 0 10 -4 8 -11l-75 -214c-2 -6 -7 -8 -12 -8h-61c-7 0 -10 5 -8 11zM463 102c6 0 10 -4 10 -10v-82c0 -6 -4 -10 -10 -10h-369c-6 0 -10 4 -10 10v693c0 6 4 10 10 10h94c6 0 10 -4 10 -10v-591c0 -6 4 -10 10 -10h255z" />
    <glyph glyph-name="Lcommaaccent" unicode="&#x13b;" horiz-adv-x="537" 
d="M463 102c6 0 10 -4 10 -10v-82c0 -6 -4 -10 -10 -10h-369c-6 0 -10 4 -10 10v693c0 6 4 10 10 10h94c6 0 10 -4 10 -10v-591c0 -6 4 -10 10 -10h255zM222 -71c1 5 5 9 11 9h82c7 0 10 -4 8 -11l-75 -213c-2 -6 -7 -8 -12 -8h-61c-7 0 -10 5 -8 11z" />
    <glyph glyph-name="Lslash" unicode="&#x141;" horiz-adv-x="537" 
d="M463 102c6 0 10 -4 10 -10v-82c0 -6 -4 -10 -10 -10h-369c-6 0 -10 4 -10 10v291l-94 -34c-5 -2 -9 -1 -13 3l-40 41c-5 4 -4 10 3 13l144 52v327c0 6 4 10 10 10h94c6 0 10 -4 10 -10v-287l128 46c5 2 9 1 12 -3l42 -40c5 -5 3 -11 -4 -14l-178 -64v-229
c0 -6 4 -10 10 -10h255z" />
    <glyph glyph-name="M" unicode="M" horiz-adv-x="864" 
d="M720 707c3 5 8 6 13 6h57c6 0 10 -4 10 -10v-693c0 -6 -4 -10 -10 -10h-94c-6 0 -10 4 -10 10v430c0 9 -7 12 -12 5l-220 -353c-4 -7 -10 -7 -14 0l-220 352c-5 7 -12 5 -12 -4v-430c0 -6 -4 -10 -10 -10h-94c-6 0 -10 4 -10 10v693c0 6 4 10 10 10h57c5 0 10 -1 13 -6
l266 -431c4 -6 10 -6 14 0z" />
    <glyph glyph-name="N" unicode="N" horiz-adv-x="733" 
d="M669 10c0 -6 -4 -10 -10 -10h-63c-5 0 -9 2 -12 6l-364 478c-6 9 -12 4 -12 -5v-469c0 -6 -4 -10 -10 -10h-94c-6 0 -10 4 -10 10v693c0 6 4 10 10 10h63c5 0 9 -2 12 -6l364 -478c7 -8 12 -4 12 5v469c0 6 4 10 10 10h94c6 0 10 -4 10 -10v-693z" />
    <glyph glyph-name="Nacute" unicode="&#x143;" horiz-adv-x="733" 
d="M448 932c2 5 7 7 12 7h81c8 0 11 -6 6 -12l-101 -138c-3 -5 -7 -6 -12 -6h-64c-7 0 -12 5 -8 12zM669 10c0 -6 -4 -10 -10 -10h-63c-5 0 -9 2 -12 6l-364 478c-6 9 -12 4 -12 -5v-469c0 -6 -4 -10 -10 -10h-94c-6 0 -10 4 -10 10v693c0 6 4 10 10 10h63c5 0 9 -2 12 -6
l364 -478c7 -8 12 -4 12 5v469c0 6 4 10 10 10h94c6 0 10 -4 10 -10v-693z" />
    <glyph glyph-name="Ncaron" unicode="&#x147;" horiz-adv-x="733" 
d="M253 859v57c0 7 5 12 12 8l113 -58c4 -2 10 -2 14 0l113 58c7 4 12 -1 12 -8v-57c0 -5 -3 -9 -8 -12l-117 -61c-4 -2 -10 -2 -14 0l-117 61c-5 3 -8 7 -8 12zM669 10c0 -6 -4 -10 -10 -10h-63c-5 0 -9 2 -12 6l-364 478c-6 9 -12 4 -12 -5v-469c0 -6 -4 -10 -10 -10h-94
c-6 0 -10 4 -10 10v693c0 6 4 10 10 10h63c5 0 9 -2 12 -6l364 -478c7 -8 12 -4 12 5v469c0 6 4 10 10 10h94c6 0 10 -4 10 -10v-693z" />
    <glyph glyph-name="Ncommaaccent" unicode="&#x145;" horiz-adv-x="733" 
d="M669 10c0 -6 -4 -10 -10 -10h-63c-5 0 -9 2 -12 6l-364 478c-6 9 -12 4 -12 -5v-469c0 -6 -4 -10 -10 -10h-94c-6 0 -10 4 -10 10v693c0 6 4 10 10 10h63c5 0 9 -2 12 -6l364 -478c7 -8 12 -4 12 5v469c0 6 4 10 10 10h94c6 0 10 -4 10 -10v-693zM326 -71c1 5 5 9 11 9
h82c7 0 10 -4 8 -11l-75 -213c-2 -6 -7 -8 -12 -8h-61c-7 0 -10 5 -8 11z" />
    <glyph glyph-name="Eng" unicode="&#x14a;" horiz-adv-x="745" 
d="M659 713c6 0 10 -4 10 -10v-693v-52c0 -103 -49 -168 -169 -168c-59 0 -118 22 -154 44c-4 3 -5 7 -4 11l12 44c2 5 6 7 11 4c29 -14 81 -29 124 -29c73 0 104 43 104 94c0 15 -1 36 -13 54l-360 472c-6 9 -12 4 -12 -5v-469c0 -6 -4 -10 -10 -10h-94c-6 0 -10 4 -10 10
v693c0 6 4 10 10 10h63c5 0 9 -2 12 -6l364 -478c7 -8 12 -4 12 5v469c0 6 4 10 10 10h94z" />
    <glyph glyph-name="Ntilde" unicode="&#xd1;" horiz-adv-x="733" 
d="M446 790c-69 0 -90 61 -140 61c-26 0 -48 -18 -60 -42c-2 -4 -5 -5 -10 -4l-37 12c-5 1 -7 5 -5 9c14 37 41 111 112 111c68 0 94 -62 140 -62c27 0 46 13 59 40c3 5 5 7 10 6l38 -12c5 -2 7 -6 5 -11c-9 -31 -35 -108 -112 -108zM669 10c0 -6 -4 -10 -10 -10h-63
c-5 0 -9 2 -12 6l-364 478c-6 9 -12 4 -12 -5v-469c0 -6 -4 -10 -10 -10h-94c-6 0 -10 4 -10 10v693c0 6 4 10 10 10h63c5 0 9 -2 12 -6l364 -478c7 -8 12 -4 12 5v469c0 6 4 10 10 10h94c6 0 10 -4 10 -10v-693z" />
    <glyph glyph-name="O" unicode="O" horiz-adv-x="861" 
d="M446 716c206 0 351 -153 351 -359s-145 -360 -351 -360s-352 154 -352 360s146 359 352 359zM446 614c-134 0 -238 -97 -238 -257c0 -161 104 -258 238 -258c133 0 237 97 237 258c0 160 -104 257 -237 257z" />
    <glyph glyph-name="Oacute" unicode="&#xd3;" horiz-adv-x="861" 
d="M509 935c2 5 7 7 12 7h81c8 0 11 -6 6 -12l-101 -138c-3 -5 -7 -6 -12 -6h-64c-7 0 -12 5 -8 12zM446 716c206 0 351 -153 351 -359s-145 -360 -351 -360s-352 154 -352 360s146 359 352 359zM446 614c-134 0 -238 -97 -238 -257c0 -161 104 -258 238 -258
c133 0 237 97 237 258c0 160 -104 257 -237 257z" />
    <glyph glyph-name="Ocircumflex" unicode="&#xd4;" horiz-adv-x="861" 
d="M314 854c0 5 3 9 8 12l117 61c4 2 10 2 14 0l117 -61c5 -3 8 -7 8 -12v-57c0 -7 -5 -12 -12 -8l-113 58c-4 2 -10 2 -14 0l-113 -58c-7 -4 -12 1 -12 8v57zM446 716c206 0 351 -153 351 -359s-145 -360 -351 -360s-352 154 -352 360s146 359 352 359zM446 614
c-134 0 -238 -97 -238 -257c0 -161 104 -258 238 -258c133 0 237 97 237 258c0 160 -104 257 -237 257z" />
    <glyph glyph-name="Odieresis" unicode="&#xd6;" horiz-adv-x="861" 
d="M359 815c-35 0 -65 30 -65 65c0 36 30 65 65 65c36 0 65 -29 65 -65c0 -35 -29 -65 -65 -65zM539 815c-35 0 -65 30 -65 65c0 36 30 65 65 65c36 0 65 -29 65 -65c0 -35 -29 -65 -65 -65zM446 716c206 0 351 -153 351 -359s-145 -360 -351 -360s-352 154 -352 360
s146 359 352 359zM446 614c-134 0 -238 -97 -238 -257c0 -161 104 -258 238 -258c133 0 237 97 237 258c0 160 -104 257 -237 257z" />
    <glyph glyph-name="Ograve" unicode="&#xd2;" horiz-adv-x="861" 
d="M392 935l86 -137c4 -7 -1 -12 -8 -12h-64c-5 0 -9 1 -12 6l-101 138c-5 6 -2 12 6 12h81c5 0 10 -2 12 -7zM446 716c206 0 351 -153 351 -359s-145 -360 -351 -360s-352 154 -352 360s146 359 352 359zM446 614c-134 0 -238 -97 -238 -257c0 -161 104 -258 238 -258
c133 0 237 97 237 258c0 160 -104 257 -237 257z" />
    <glyph glyph-name="Ohungarumlaut" unicode="&#x150;" horiz-adv-x="861" 
d="M420 786c-1 -5 -5 -9 -11 -9h-81c-7 0 -10 4 -8 11l74 213c2 6 7 8 12 8h61c7 0 10 -5 8 -11zM577 786c-1 -5 -5 -9 -11 -9h-81c-7 0 -10 4 -8 11l74 213c2 6 7 8 12 8h61c7 0 10 -5 8 -11zM446 716c206 0 351 -153 351 -359s-145 -360 -351 -360s-352 154 -352 360
s146 359 352 359zM446 614c-134 0 -238 -97 -238 -257c0 -161 104 -258 238 -258c133 0 237 97 237 258c0 160 -104 257 -237 257z" />
    <glyph glyph-name="Omacron" unicode="&#x14c;" horiz-adv-x="861" 
d="M306 894c0 5 3 8 8 8h264c5 0 8 -3 8 -8v-61c0 -5 -3 -8 -8 -8h-264c-5 0 -8 3 -8 8v61zM446 716c206 0 351 -153 351 -359s-145 -360 -351 -360s-352 154 -352 360s146 359 352 359zM446 614c-134 0 -238 -97 -238 -257c0 -161 104 -258 238 -258c133 0 237 97 237 258
c0 160 -104 257 -237 257z" />
    <glyph glyph-name="Oslash" unicode="&#xd8;" horiz-adv-x="872" 
d="M630 668c103 -61 167 -174 167 -311c0 -206 -145 -360 -351 -360c-44 0 -86 7 -123 20l-24 -50c-2 -5 -6 -7 -11 -7h-58c-7 0 -10 5 -7 12l36 75c-102 62 -165 175 -165 310c0 206 146 359 352 359c42 0 83 -7 119 -19l23 49c2 5 6 7 11 7h58c7 0 10 -5 7 -12zM208 357
c0 -96 37 -170 96 -213l217 459c-24 7 -49 11 -75 11c-134 0 -238 -97 -238 -257zM446 99c133 0 237 97 237 258c0 98 -39 172 -99 215l-217 -461c25 -8 51 -12 79 -12z" />
    <glyph glyph-name="Otilde" unicode="&#xd5;" horiz-adv-x="861" 
d="M507 793c-69 0 -90 61 -140 61c-26 0 -48 -18 -60 -42c-2 -4 -5 -5 -10 -4l-37 12c-5 1 -7 5 -5 9c14 37 41 111 112 111c68 0 94 -62 140 -62c27 0 46 13 59 40c3 5 5 7 10 6l38 -12c5 -2 7 -6 5 -11c-9 -31 -35 -108 -112 -108zM446 716c206 0 351 -153 351 -359
s-145 -360 -351 -360s-352 154 -352 360s146 359 352 359zM446 614c-134 0 -238 -97 -238 -257c0 -161 104 -258 238 -258c133 0 237 97 237 258c0 160 -104 257 -237 257z" />
    <glyph glyph-name="OE" unicode="&#x152;" horiz-adv-x="1179" 
d="M1123 102c6 0 10 -4 10 -10v-82c0 -6 -4 -10 -10 -10h-410c-6 0 -10 4 -10 10v95c-62 -68 -152 -108 -257 -108c-206 0 -352 154 -352 360s146 359 352 359c105 0 195 -40 257 -107v94c0 6 4 10 10 10h400c6 0 10 -4 10 -10v-82c0 -6 -4 -10 -10 -10h-286
c-6 0 -10 -4 -10 -10v-191c0 -6 4 -10 10 -10h205c6 0 10 -4 10 -10v-82c0 -6 -4 -10 -10 -10h-205c-6 0 -10 -4 -10 -10v-176c0 -6 4 -10 10 -10h296zM446 99c133 0 237 97 237 258c0 160 -104 257 -237 257c-134 0 -238 -97 -238 -257c0 -161 104 -258 238 -258z" />
    <glyph glyph-name="P" unicode="P" horiz-adv-x="701" 
d="M94 0c-6 0 -10 4 -10 10v693c0 6 4 10 10 10h260c161 0 283 -98 283 -258s-122 -257 -283 -257h-146c-6 0 -10 -4 -10 -10v-178c0 -6 -4 -10 -10 -10h-94zM208 300h136c92 0 179 34 179 155c0 122 -88 156 -179 156h-136c-6 0 -10 -4 -10 -10v-291c0 -6 4 -10 10 -10z
" />
    <glyph glyph-name="Thorn" unicode="&#xde;" horiz-adv-x="711" 
d="M94 10v734c0 6 4 9 9 9h96c6 0 9 -3 9 -9v-69c0 -6 4 -10 10 -10h146c161 0 283 -94 283 -254s-122 -253 -283 -253h-146c-6 0 -10 -4 -10 -10v-138c0 -6 -4 -10 -10 -10h-94c-6 0 -10 4 -10 10zM208 270c0 -6 4 -10 10 -10h136c92 0 179 30 179 151
c0 122 -88 152 -179 152h-136c-6 0 -10 -4 -10 -10v-283z" />
    <glyph glyph-name="Q" unicode="Q" horiz-adv-x="877" 
d="M814 53c5 -4 5 -9 1 -14l-56 -61c-5 -3 -10 -4 -14 0l-89 85c-57 -42 -129 -66 -210 -66c-206 0 -352 154 -352 360s146 359 352 359s351 -153 351 -359c0 -85 -25 -162 -69 -222zM446 99c50 0 95 14 133 39l-78 75c-5 4 -5 9 -1 14l56 60c4 4 10 4 14 0l78 -75
c22 40 35 88 35 145c0 160 -104 257 -237 257c-134 0 -238 -97 -238 -257c0 -161 104 -258 238 -258z" />
    <glyph glyph-name="R" unicode="R" horiz-adv-x="685" 
d="M94 0c-6 0 -10 4 -10 10v693c0 6 4 10 10 10h276c143 0 251 -96 251 -241c0 -103 -56 -171 -126 -211c-5 -2 -6 -9 -3 -14l123 -235c4 -7 0 -12 -7 -12h-102c-5 0 -9 2 -12 7l-111 218c-3 5 -7 7 -12 7h-163c-6 0 -10 -4 -10 -10v-212c0 -6 -4 -10 -10 -10h-94zM208 334
h163c60 0 136 46 136 138c0 96 -70 139 -149 139h-150c-6 0 -10 -4 -10 -10v-257c0 -6 4 -10 10 -10z" />
    <glyph glyph-name="Racute" unicode="&#x154;" horiz-adv-x="685" 
d="M378 932c2 5 7 7 12 7h81c8 0 11 -6 6 -12l-101 -138c-3 -5 -7 -6 -12 -6h-64c-7 0 -12 5 -8 12zM94 0c-6 0 -10 4 -10 10v693c0 6 4 10 10 10h276c143 0 251 -96 251 -241c0 -103 -56 -171 -126 -211c-5 -2 -6 -9 -3 -14l123 -235c4 -7 0 -12 -7 -12h-102
c-5 0 -9 2 -12 7l-111 218c-3 5 -7 7 -12 7h-163c-6 0 -10 -4 -10 -10v-212c0 -6 -4 -10 -10 -10h-94zM208 334h163c60 0 136 46 136 138c0 96 -70 139 -149 139h-150c-6 0 -10 -4 -10 -10v-257c0 -6 4 -10 10 -10z" />
    <glyph glyph-name="Rcaron" unicode="&#x158;" horiz-adv-x="685" 
d="M183 859v57c0 7 5 12 12 8l113 -58c4 -2 10 -2 14 0l113 58c7 4 12 -1 12 -8v-57c0 -5 -3 -9 -8 -12l-117 -61c-4 -2 -10 -2 -14 0l-117 61c-5 3 -8 7 -8 12zM94 0c-6 0 -10 4 -10 10v693c0 6 4 10 10 10h276c143 0 251 -96 251 -241c0 -103 -56 -171 -126 -211
c-5 -2 -6 -9 -3 -14l123 -235c4 -7 0 -12 -7 -12h-102c-5 0 -9 2 -12 7l-111 218c-3 5 -7 7 -12 7h-163c-6 0 -10 -4 -10 -10v-212c0 -6 -4 -10 -10 -10h-94zM208 334h163c60 0 136 46 136 138c0 96 -70 139 -149 139h-150c-6 0 -10 -4 -10 -10v-257c0 -6 4 -10 10 -10z" />
    <glyph glyph-name="Rcommaaccent" unicode="&#x156;" horiz-adv-x="685" 
d="M94 0c-6 0 -10 4 -10 10v693c0 6 4 10 10 10h276c143 0 251 -96 251 -241c0 -103 -56 -171 -126 -211c-5 -2 -6 -9 -3 -14l123 -235c4 -7 0 -12 -7 -12h-102c-5 0 -9 2 -12 7l-111 218c-3 5 -7 7 -12 7h-163c-6 0 -10 -4 -10 -10v-212c0 -6 -4 -10 -10 -10h-94zM208 334
h163c60 0 136 46 136 138c0 96 -70 139 -149 139h-150c-6 0 -10 -4 -10 -10v-257c0 -6 4 -10 10 -10zM296 -71c1 5 5 9 11 9h82c7 0 10 -4 8 -11l-75 -213c-2 -6 -7 -8 -12 -8h-61c-7 0 -10 5 -8 11z" />
    <glyph glyph-name="S" unicode="S" horiz-adv-x="665" 
d="M362 -3c-143 0 -278 60 -278 221c0 7 1 11 11 13l86 12c8 1 13 0 13 -9c0 -89 71 -135 167 -135c84 0 136 40 136 96c0 71 -74 93 -205 136c-121 41 -184 100 -184 205c0 114 100 180 225 180c137 0 240 -75 240 -198c0 -7 -2 -9 -9 -11l-88 -12c-7 -1 -11 2 -11 11
c-2 70 -59 108 -134 108c-62 0 -109 -32 -109 -80c0 -55 44 -83 161 -119c170 -51 227 -121 227 -226c0 -113 -99 -192 -248 -192z" />
    <glyph glyph-name="Sacute" unicode="&#x15a;" horiz-adv-x="665" 
d="M396 933c2 5 7 7 12 7h81c8 0 11 -6 6 -12l-101 -138c-3 -5 -7 -6 -12 -6h-64c-7 0 -12 5 -8 12zM362 -3c-143 0 -278 60 -278 221c0 7 1 11 11 13l86 12c8 1 13 0 13 -9c0 -89 71 -135 167 -135c84 0 136 40 136 96c0 71 -74 93 -205 136c-121 41 -184 100 -184 205
c0 114 100 180 225 180c137 0 240 -75 240 -198c0 -7 -2 -9 -9 -11l-88 -12c-7 -1 -11 2 -11 11c-2 70 -59 108 -134 108c-62 0 -109 -32 -109 -80c0 -55 44 -83 161 -119c170 -51 227 -121 227 -226c0 -113 -99 -192 -248 -192z" />
    <glyph glyph-name="Scaron" unicode="&#x160;" horiz-adv-x="665" 
d="M201 860v57c0 7 5 12 12 8l113 -58c4 -2 10 -2 14 0l113 58c7 4 12 -1 12 -8v-57c0 -5 -3 -9 -8 -12l-117 -61c-4 -2 -10 -2 -14 0l-117 61c-5 3 -8 7 -8 12zM362 -3c-143 0 -278 60 -278 221c0 7 1 11 11 13l86 12c8 1 13 0 13 -9c0 -89 71 -135 167 -135
c84 0 136 40 136 96c0 71 -74 93 -205 136c-121 41 -184 100 -184 205c0 114 100 180 225 180c137 0 240 -75 240 -198c0 -7 -2 -9 -9 -11l-88 -12c-7 -1 -11 2 -11 11c-2 70 -59 108 -134 108c-62 0 -109 -32 -109 -80c0 -55 44 -83 161 -119c170 -51 227 -121 227 -226
c0 -113 -99 -192 -248 -192z" />
    <glyph glyph-name="Scedilla" unicode="&#x15e;" horiz-adv-x="665" 
d="M379 -3l-9 -32c-1 -6 1 -9 7 -9c46 2 85 -26 85 -78s-55 -89 -116 -89c-26 0 -58 10 -77 24c-4 2 -5 5 -5 9v30c0 5 4 10 9 7c16 -7 38 -17 63 -17c28 0 55 14 55 41s-23 42 -53 42c-26 0 -41 -6 -51 -11c-7 -3 -10 2 -8 7l28 79c-120 14 -223 78 -223 218
c0 7 1 11 11 13l86 12c8 1 13 0 13 -9c0 -89 71 -135 167 -135c84 0 136 40 136 96c0 71 -74 93 -205 136c-121 41 -184 100 -184 205c0 114 100 180 225 180c137 0 240 -75 240 -198c0 -7 -2 -9 -9 -11l-88 -12c-7 -1 -11 2 -11 11c-2 70 -59 108 -134 108
c-62 0 -109 -32 -109 -80c0 -55 44 -83 161 -119c170 -51 227 -121 227 -226c0 -109 -92 -186 -231 -192z" />
    <glyph glyph-name="Scommaaccent" unicode="&#x218;" horiz-adv-x="665" 
d="M362 -3c-143 0 -278 60 -278 221c0 7 1 11 11 13l86 12c8 1 13 0 13 -9c0 -89 71 -135 167 -135c84 0 136 40 136 96c0 71 -74 93 -205 136c-121 41 -184 100 -184 205c0 114 100 180 225 180c137 0 240 -75 240 -198c0 -7 -2 -9 -9 -11l-88 -12c-7 -1 -11 2 -11 11
c-2 70 -59 108 -134 108c-62 0 -109 -32 -109 -80c0 -55 44 -83 161 -119c170 -51 227 -121 227 -226c0 -113 -99 -192 -248 -192zM302 -50c1 5 5 9 11 9h82c7 0 10 -4 8 -11l-75 -213c-2 -6 -7 -8 -12 -8h-61c-7 0 -10 5 -8 11z" />
    <glyph glyph-name="T" unicode="T" horiz-adv-x="621" 
d="M562 713c6 0 10 -4 10 -10v-82c0 -6 -4 -10 -10 -10h-175c-6 0 -10 -4 -10 -10v-591c0 -6 -4 -10 -10 -10h-93c-6 0 -10 4 -10 10v591c0 6 -4 10 -10 10h-176c-6 0 -10 4 -10 10v82c0 6 4 10 10 10h484z" />
    <glyph glyph-name="Tbar" unicode="&#x166;" horiz-adv-x="621" 
d="M562 713c6 0 10 -4 10 -10v-82c0 -6 -4 -10 -10 -10h-175c-6 0 -10 -4 -10 -10v-211h136c6 0 10 -4 10 -10v-45c0 -6 -4 -10 -10 -10h-136v-315c0 -6 -4 -10 -10 -10h-93c-6 0 -10 4 -10 10v315h-136c-6 0 -10 4 -10 10v45c0 6 4 10 10 10h136v211c0 6 -4 10 -10 10h-176
c-6 0 -10 4 -10 10v82c0 6 4 10 10 10h484z" />
    <glyph glyph-name="Tcaron" unicode="&#x164;" horiz-adv-x="621" 
d="M191 859v57c0 7 5 12 12 8l113 -58c4 -2 10 -2 14 0l113 58c7 4 12 -1 12 -8v-57c0 -5 -3 -9 -8 -12l-117 -61c-4 -2 -10 -2 -14 0l-117 61c-5 3 -8 7 -8 12zM562 713c6 0 10 -4 10 -10v-82c0 -6 -4 -10 -10 -10h-175c-6 0 -10 -4 -10 -10v-591c0 -6 -4 -10 -10 -10h-93
c-6 0 -10 4 -10 10v591c0 6 -4 10 -10 10h-176c-6 0 -10 4 -10 10v82c0 6 4 10 10 10h484z" />
    <glyph glyph-name="uni0162" unicode="&#x162;" horiz-adv-x="621" 
d="M562 713c6 0 10 -4 10 -10v-82c0 -6 -4 -10 -10 -10h-175c-6 0 -10 -4 -10 -10v-591c0 -6 -4 -10 -10 -10h-15l-9 -35c-1 -6 1 -9 7 -9c46 2 85 -26 85 -78s-55 -89 -116 -89c-26 0 -58 10 -77 24c-4 2 -5 5 -5 9v30c0 5 4 10 9 7c16 -7 38 -17 63 -17c28 0 55 14 55 41
s-23 42 -53 42c-26 0 -41 -6 -51 -11c-7 -3 -10 2 -8 7l28 79h-6c-6 0 -10 4 -10 10v591c0 6 -4 10 -10 10h-176c-6 0 -10 4 -10 10v82c0 6 4 10 10 10h484z" />
    <glyph glyph-name="uni021A" unicode="&#x21a;" horiz-adv-x="621" 
d="M562 713c6 0 10 -4 10 -10v-82c0 -6 -4 -10 -10 -10h-175c-6 0 -10 -4 -10 -10v-591c0 -6 -4 -10 -10 -10h-93c-6 0 -10 4 -10 10v591c0 6 -4 10 -10 10h-176c-6 0 -10 4 -10 10v82c0 6 4 10 10 10h484zM276 -50c1 5 5 9 11 9h82c7 0 10 -4 8 -11l-75 -213
c-2 -6 -7 -8 -12 -8h-61c-7 0 -10 5 -8 11z" />
    <glyph glyph-name="U" unicode="U" horiz-adv-x="758" 
d="M580 703c0 6 4 10 10 10h94c6 0 10 -4 10 -10v-396c0 -134 -55 -310 -299 -310c-246 0 -301 176 -301 310v396c0 6 4 10 10 10h94c6 0 10 -4 10 -10v-396c0 -141 67 -208 187 -208c117 0 183 67 185 208v396z" />
    <glyph glyph-name="Uacute" unicode="&#xda;" horiz-adv-x="758" 
d="M460 932c2 5 7 7 12 7h81c8 0 11 -6 6 -12l-101 -138c-3 -5 -7 -6 -12 -6h-64c-7 0 -12 5 -8 12zM580 703c0 6 4 10 10 10h94c6 0 10 -4 10 -10v-396c0 -134 -55 -310 -299 -310c-246 0 -301 176 -301 310v396c0 6 4 10 10 10h94c6 0 10 -4 10 -10v-396
c0 -141 67 -208 187 -208c117 0 183 67 185 208v396z" />
    <glyph glyph-name="Ucircumflex" unicode="&#xdb;" horiz-adv-x="758" 
d="M265 851c0 5 3 9 8 12l117 61c4 2 10 2 14 0l117 -61c5 -3 8 -7 8 -12v-57c0 -7 -5 -12 -12 -8l-113 58c-4 2 -10 2 -14 0l-113 -58c-7 -4 -12 1 -12 8v57zM580 703c0 6 4 10 10 10h94c6 0 10 -4 10 -10v-396c0 -134 -55 -310 -299 -310c-246 0 -301 176 -301 310v396
c0 6 4 10 10 10h94c6 0 10 -4 10 -10v-396c0 -141 67 -208 187 -208c117 0 183 67 185 208v396z" />
    <glyph glyph-name="Udieresis" unicode="&#xdc;" horiz-adv-x="758" 
d="M310 812c-35 0 -65 30 -65 65c0 36 30 65 65 65c36 0 65 -29 65 -65c0 -35 -29 -65 -65 -65zM490 812c-35 0 -65 30 -65 65c0 36 30 65 65 65c36 0 65 -29 65 -65c0 -35 -29 -65 -65 -65zM580 703c0 6 4 10 10 10h94c6 0 10 -4 10 -10v-396c0 -134 -55 -310 -299 -310
c-246 0 -301 176 -301 310v396c0 6 4 10 10 10h94c6 0 10 -4 10 -10v-396c0 -141 67 -208 187 -208c117 0 183 67 185 208v396z" />
    <glyph glyph-name="Ugrave" unicode="&#xd9;" horiz-adv-x="758" 
d="M344 932l86 -137c4 -7 -1 -12 -8 -12h-64c-5 0 -9 1 -12 6l-101 138c-5 6 -2 12 6 12h81c5 0 10 -2 12 -7zM580 703c0 6 4 10 10 10h94c6 0 10 -4 10 -10v-396c0 -134 -55 -310 -299 -310c-246 0 -301 176 -301 310v396c0 6 4 10 10 10h94c6 0 10 -4 10 -10v-396
c0 -141 67 -208 187 -208c117 0 183 67 185 208v396z" />
    <glyph glyph-name="Uhungarumlaut" unicode="&#x170;" horiz-adv-x="758" 
d="M371 783c-1 -5 -5 -9 -11 -9h-81c-7 0 -10 4 -8 11l74 213c2 6 7 8 12 8h61c7 0 10 -5 8 -11zM528 783c-1 -5 -5 -9 -11 -9h-81c-7 0 -10 4 -8 11l74 213c2 6 7 8 12 8h61c7 0 10 -5 8 -11zM580 703c0 6 4 10 10 10h94c6 0 10 -4 10 -10v-396c0 -134 -55 -310 -299 -310
c-246 0 -301 176 -301 310v396c0 6 4 10 10 10h94c6 0 10 -4 10 -10v-396c0 -141 67 -208 187 -208c117 0 183 67 185 208v396z" />
    <glyph glyph-name="Umacron" unicode="&#x16a;" horiz-adv-x="758" 
d="M257 891c0 5 3 8 8 8h264c5 0 8 -3 8 -8v-61c0 -5 -3 -8 -8 -8h-264c-5 0 -8 3 -8 8v61zM580 703c0 6 4 10 10 10h94c6 0 10 -4 10 -10v-396c0 -134 -55 -310 -299 -310c-246 0 -301 176 -301 310v396c0 6 4 10 10 10h94c6 0 10 -4 10 -10v-396c0 -141 67 -208 187 -208
c117 0 183 67 185 208v396z" />
    <glyph glyph-name="Uogonek" unicode="&#x172;" horiz-adv-x="758" 
d="M684 713c6 0 10 -4 10 -10v-396c0 -130 -52 -300 -279 -310c-54 -28 -90 -62 -90 -100c0 -36 30 -53 60 -53s45 7 64 13c5 2 9 -2 9 -7v-31c0 -4 -1 -7 -3 -8c-19 -13 -47 -22 -84 -22c-66 0 -120 30 -120 92c0 65 58 101 109 117c-216 16 -266 182 -266 309v396
c0 6 4 10 10 10h94c6 0 10 -4 10 -10v-396c0 -141 67 -208 187 -208c117 0 183 67 185 208v396c0 6 4 10 10 10h94z" />
    <glyph glyph-name="Uring" unicode="&#x16e;" horiz-adv-x="758" 
d="M397 792c-42 0 -75 34 -75 75c0 42 33 75 75 75c41 0 75 -33 75 -75c0 -41 -34 -75 -75 -75zM397 900c-21 0 -33 -17 -33 -33s12 -33 33 -33s33 17 33 33s-12 33 -33 33zM580 703c0 6 4 10 10 10h94c6 0 10 -4 10 -10v-396c0 -134 -55 -310 -299 -310
c-246 0 -301 176 -301 310v396c0 6 4 10 10 10h94c6 0 10 -4 10 -10v-396c0 -141 67 -208 187 -208c117 0 183 67 185 208v396z" />
    <glyph glyph-name="V" unicode="V" horiz-adv-x="801" 
d="M441 7c-2 -5 -6 -7 -11 -7h-48c-5 0 -10 3 -12 8l-295 693c-3 7 1 12 8 12h94c5 0 9 -2 11 -8l211 -519c3 -8 10 -8 14 0l210 519c3 6 6 8 11 8h95c7 0 10 -5 7 -12z" />
    <glyph glyph-name="W" unicode="W" horiz-adv-x="1082" 
d="M358 7l178 481c6 18 13 18 20 0l177 -481c2 -5 7 -7 12 -7h50c5 0 11 3 12 8l219 694c3 7 0 11 -7 11h-94c-5 0 -11 -3 -12 -8l-140 -486c-4 -18 -13 -18 -20 0l-170 486c-1 6 -5 8 -10 8h-56c-4 0 -8 -2 -10 -8l-169 -486c-7 -18 -15 -18 -20 0l-139 486
c-1 5 -1 8 -12 8h-94c-7 0 -10 -4 -8 -11l219 -694c2 -5 7 -8 12 -8h50c5 0 10 2 12 7z" />
    <glyph glyph-name="Wacute" unicode="&#x1e82;" horiz-adv-x="1082" 
d="M604 932c2 5 7 7 12 7h81c8 0 11 -6 6 -12l-101 -138c-3 -5 -7 -6 -12 -6h-64c-7 0 -12 5 -8 12zM358 7l178 481c6 18 13 18 20 0l177 -481c2 -5 7 -7 12 -7h50c5 0 11 3 12 8l219 694c3 7 0 11 -7 11h-94c-5 0 -11 -3 -12 -8l-140 -486c-4 -18 -13 -18 -20 0l-170 486
c-1 6 -5 8 -10 8h-56c-4 0 -8 -2 -10 -8l-169 -486c-7 -18 -15 -18 -20 0l-139 486c-1 5 -1 8 -12 8h-94c-7 0 -10 -4 -8 -11l219 -694c2 -5 7 -8 12 -8h50c5 0 10 2 12 7z" />
    <glyph glyph-name="Wcircumflex" unicode="&#x174;" horiz-adv-x="1082" 
d="M409 851c0 5 3 9 8 12l117 61c4 2 10 2 14 0l117 -61c5 -3 8 -7 8 -12v-57c0 -7 -5 -12 -12 -8l-113 58c-4 2 -10 2 -14 0l-113 -58c-7 -4 -12 1 -12 8v57zM358 7l178 481c6 18 13 18 20 0l177 -481c2 -5 7 -7 12 -7h50c5 0 11 3 12 8l219 694c3 7 0 11 -7 11h-94
c-5 0 -11 -3 -12 -8l-140 -486c-4 -18 -13 -18 -20 0l-170 486c-1 6 -5 8 -10 8h-56c-4 0 -8 -2 -10 -8l-169 -486c-7 -18 -15 -18 -20 0l-139 486c-1 5 -1 8 -12 8h-94c-7 0 -10 -4 -8 -11l219 -694c2 -5 7 -8 12 -8h50c5 0 10 2 12 7z" />
    <glyph glyph-name="Wdieresis" unicode="&#x1e84;" horiz-adv-x="1082" 
d="M454 812c-35 0 -65 30 -65 65c0 36 30 65 65 65c36 0 65 -29 65 -65c0 -35 -29 -65 -65 -65zM634 812c-35 0 -65 30 -65 65c0 36 30 65 65 65c36 0 65 -29 65 -65c0 -35 -29 -65 -65 -65zM358 7l178 481c6 18 13 18 20 0l177 -481c2 -5 7 -7 12 -7h50c5 0 11 3 12 8
l219 694c3 7 0 11 -7 11h-94c-5 0 -11 -3 -12 -8l-140 -486c-4 -18 -13 -18 -20 0l-170 486c-1 6 -5 8 -10 8h-56c-4 0 -8 -2 -10 -8l-169 -486c-7 -18 -15 -18 -20 0l-139 486c-1 5 -1 8 -12 8h-94c-7 0 -10 -4 -8 -11l219 -694c2 -5 7 -8 12 -8h50c5 0 10 2 12 7z" />
    <glyph glyph-name="Wgrave" unicode="&#x1e80;" horiz-adv-x="1082" 
d="M487 932l86 -137c4 -7 -1 -12 -8 -12h-64c-5 0 -9 1 -12 6l-101 138c-5 6 -2 12 6 12h81c5 0 10 -2 12 -7zM358 7l178 481c6 18 13 18 20 0l177 -481c2 -5 7 -7 12 -7h50c5 0 11 3 12 8l219 694c3 7 0 11 -7 11h-94c-5 0 -11 -3 -12 -8l-140 -486c-4 -18 -13 -18 -20 0
l-170 486c-1 6 -5 8 -10 8h-56c-4 0 -8 -2 -10 -8l-169 -486c-7 -18 -15 -18 -20 0l-139 486c-1 5 -1 8 -12 8h-94c-7 0 -10 -4 -8 -11l219 -694c2 -5 7 -8 12 -8h50c5 0 10 2 12 7z" />
    <glyph glyph-name="X" unicode="X" horiz-adv-x="822" 
d="M759 713c8 0 12 -5 6 -12l-271 -338c-4 -4 -4 -10 0 -14l271 -337c6 -7 2 -12 -6 -12h-111c-5 0 -9 1 -13 6l-208 266c-4 6 -9 6 -14 0l-207 -266c-4 -5 -8 -6 -13 -6h-110c-8 0 -12 5 -6 12l270 337c3 4 3 10 0 14l-269 338c-6 7 -2 12 6 12h109c5 0 9 -1 13 -6
l207 -261c5 -6 10 -6 14 0l208 261c4 5 8 6 13 6h111z" />
    <glyph glyph-name="Y" unicode="Y" horiz-adv-x="754" 
d="M702 713c8 0 11 -6 6 -12l-264 -372c-3 -4 -4 -8 -4 -13v-306c0 -7 -4 -10 -10 -10h-94c-6 0 -10 4 -10 10v306c0 5 -1 9 -4 13l-266 372c-4 6 -2 12 6 12h106c5 0 9 -1 12 -6l196 -275c4 -6 10 -6 14 0l195 275c3 5 7 6 12 6h105z" />
    <glyph glyph-name="Yacute" unicode="&#xdd;" horiz-adv-x="754" 
d="M440 932c2 5 7 7 12 7h81c8 0 11 -6 6 -12l-101 -138c-3 -5 -7 -6 -12 -6h-64c-7 0 -12 5 -8 12zM702 713c8 0 11 -6 6 -12l-264 -372c-3 -4 -4 -8 -4 -13v-306c0 -7 -4 -10 -10 -10h-94c-6 0 -10 4 -10 10v306c0 5 -1 9 -4 13l-266 372c-4 6 -2 12 6 12h106
c5 0 9 -1 12 -6l196 -275c4 -6 10 -6 14 0l195 275c3 5 7 6 12 6h105z" />
    <glyph glyph-name="Ycircumflex" unicode="&#x176;" horiz-adv-x="754" 
d="M245 851c0 5 3 9 8 12l117 61c4 2 10 2 14 0l117 -61c5 -3 8 -7 8 -12v-57c0 -7 -5 -12 -12 -8l-113 58c-4 2 -10 2 -14 0l-113 -58c-7 -4 -12 1 -12 8v57zM702 713c8 0 11 -6 6 -12l-264 -372c-3 -4 -4 -8 -4 -13v-306c0 -7 -4 -10 -10 -10h-94c-6 0 -10 4 -10 10v306
c0 5 -1 9 -4 13l-266 372c-4 6 -2 12 6 12h106c5 0 9 -1 12 -6l196 -275c4 -6 10 -6 14 0l195 275c3 5 7 6 12 6h105z" />
    <glyph glyph-name="Ydieresis" unicode="&#x178;" horiz-adv-x="754" 
d="M290 812c-35 0 -65 30 -65 65c0 36 30 65 65 65c36 0 65 -29 65 -65c0 -35 -29 -65 -65 -65zM470 812c-35 0 -65 30 -65 65c0 36 30 65 65 65c36 0 65 -29 65 -65c0 -35 -29 -65 -65 -65zM702 713c8 0 11 -6 6 -12l-264 -372c-3 -4 -4 -8 -4 -13v-306
c0 -7 -4 -10 -10 -10h-94c-6 0 -10 4 -10 10v306c0 5 -1 9 -4 13l-266 372c-4 6 -2 12 6 12h106c5 0 9 -1 12 -6l196 -275c4 -6 10 -6 14 0l195 275c3 5 7 6 12 6h105z" />
    <glyph glyph-name="Ygrave" unicode="&#x1ef2;" horiz-adv-x="754" 
d="M324 932l86 -137c4 -7 -1 -12 -8 -12h-64c-5 0 -9 1 -12 6l-101 138c-5 6 -2 12 6 12h81c5 0 10 -2 12 -7zM702 713c8 0 11 -6 6 -12l-264 -372c-3 -4 -4 -8 -4 -13v-306c0 -7 -4 -10 -10 -10h-94c-6 0 -10 4 -10 10v306c0 5 -1 9 -4 13l-266 372c-4 6 -2 12 6 12h106
c5 0 9 -1 12 -6l196 -275c4 -6 10 -6 14 0l195 275c3 5 7 6 12 6h105z" />
    <glyph glyph-name="Z" unicode="Z" horiz-adv-x="748" 
d="M664 713c6 0 10 -4 10 -10v-56c0 -5 -1 -8 -4 -12l-413 -520c-5 -6 -2 -13 6 -13h401c6 0 10 -4 10 -10v-82c0 -7 -4 -10 -10 -10h-560c-6 0 -10 4 -10 10v56c0 5 1 9 4 13l412 519c5 6 2 13 -6 13h-400c-6 0 -10 4 -10 10v82c0 6 4 10 10 10h560z" />
    <glyph glyph-name="Zacute" unicode="&#x179;" horiz-adv-x="748" 
d="M461 932c2 5 7 7 12 7h81c8 0 11 -6 6 -12l-101 -138c-3 -5 -7 -6 -12 -6h-64c-7 0 -12 5 -8 12zM664 713c6 0 10 -4 10 -10v-56c0 -5 -1 -8 -4 -12l-413 -520c-5 -6 -2 -13 6 -13h401c6 0 10 -4 10 -10v-82c0 -7 -4 -10 -10 -10h-560c-6 0 -10 4 -10 10v56c0 5 1 9 4 13
l412 519c5 6 2 13 -6 13h-400c-6 0 -10 4 -10 10v82c0 6 4 10 10 10h560z" />
    <glyph glyph-name="Zcaron" unicode="&#x17d;" horiz-adv-x="748" 
d="M266 859v57c0 7 5 12 12 8l113 -58c4 -2 10 -2 14 0l113 58c7 4 12 -1 12 -8v-57c0 -5 -3 -9 -8 -12l-117 -61c-4 -2 -10 -2 -14 0l-117 61c-5 3 -8 7 -8 12zM664 713c6 0 10 -4 10 -10v-56c0 -5 -1 -8 -4 -12l-413 -520c-5 -6 -2 -13 6 -13h401c6 0 10 -4 10 -10v-82
c0 -7 -4 -10 -10 -10h-560c-6 0 -10 4 -10 10v56c0 5 1 9 4 13l412 519c5 6 2 13 -6 13h-400c-6 0 -10 4 -10 10v82c0 6 4 10 10 10h560z" />
    <glyph glyph-name="Zdotaccent" unicode="&#x17b;" horiz-adv-x="748" 
d="M399 812c-35 0 -65 30 -65 65c0 36 30 65 65 65c36 0 65 -29 65 -65c0 -35 -29 -65 -65 -65zM664 713c6 0 10 -4 10 -10v-56c0 -5 -1 -8 -4 -12l-413 -520c-5 -6 -2 -13 6 -13h401c6 0 10 -4 10 -10v-82c0 -7 -4 -10 -10 -10h-560c-6 0 -10 4 -10 10v56c0 5 1 9 4 13
l412 519c5 6 2 13 -6 13h-400c-6 0 -10 4 -10 10v82c0 6 4 10 10 10h560z" />
    <glyph glyph-name="a" unicode="a" horiz-adv-x="526" 
d="M297 530c182 0 190 -134 190 -237v-285c0 -5 -3 -8 -8 -8h-89c-5 0 -8 3 -8 8v46c0 7 -5 8 -9 4c-33 -34 -96 -61 -157 -61c-104 0 -162 63 -162 146c0 136 139 187 320 191c6 0 8 3 8 9c0 86 -53 102 -109 102c-46 0 -118 -20 -152 -39c-5 -3 -8 -1 -10 4l-13 57
c-2 5 0 7 4 10c41 27 124 53 195 53zM255 77c33 0 83 12 122 47c4 4 5 6 5 10v121c0 5 -3 8 -8 8c-105 0 -208 -33 -208 -111c0 -44 33 -75 89 -75z" />
    <glyph glyph-name="aacute" unicode="&#xe1;" horiz-adv-x="526" 
d="M354 749c2 5 7 7 12 7h81c8 0 11 -6 6 -12l-101 -138c-3 -5 -7 -6 -12 -6h-64c-7 0 -12 5 -8 12zM297 530c182 0 190 -134 190 -237v-285c0 -5 -3 -8 -8 -8h-89c-5 0 -8 3 -8 8v46c0 7 -5 8 -9 4c-33 -34 -96 -61 -157 -61c-104 0 -162 63 -162 146
c0 136 139 187 320 191c6 0 8 3 8 9c0 86 -53 102 -109 102c-46 0 -118 -20 -152 -39c-5 -3 -8 -1 -10 4l-13 57c-2 5 0 7 4 10c41 27 124 53 195 53zM255 77c33 0 83 12 122 47c4 4 5 6 5 10v121c0 5 -3 8 -8 8c-105 0 -208 -33 -208 -111c0 -44 33 -75 89 -75z" />
    <glyph glyph-name="abreve" unicode="&#x103;" horiz-adv-x="526" 
d="M155 748c0 5 3 8 8 8h37c5 0 8 -3 8 -8c5 -41 39 -71 83 -71s78 30 82 71c0 5 3 8 8 8h38c5 0 8 -3 8 -8c-4 -86 -61 -136 -136 -136s-132 51 -136 136zM297 530c182 0 190 -134 190 -237v-285c0 -5 -3 -8 -8 -8h-89c-5 0 -8 3 -8 8v46c0 7 -5 8 -9 4
c-33 -34 -96 -61 -157 -61c-104 0 -162 63 -162 146c0 136 139 187 320 191c6 0 8 3 8 9c0 86 -53 102 -109 102c-46 0 -118 -20 -152 -39c-5 -3 -8 -1 -10 4l-13 57c-2 5 0 7 4 10c41 27 124 53 195 53zM255 77c33 0 83 12 122 47c4 4 5 6 5 10v121c0 5 -3 8 -8 8
c-105 0 -208 -33 -208 -111c0 -44 33 -75 89 -75z" />
    <glyph glyph-name="acircumflex" unicode="&#xe2;" horiz-adv-x="526" 
d="M159 668c0 5 3 9 8 12l117 61c4 2 10 2 14 0l117 -61c5 -3 8 -7 8 -12v-57c0 -7 -5 -12 -12 -8l-113 58c-4 2 -10 2 -14 0l-113 -58c-7 -4 -12 1 -12 8v57zM297 530c182 0 190 -134 190 -237v-285c0 -5 -3 -8 -8 -8h-89c-5 0 -8 3 -8 8v46c0 7 -5 8 -9 4
c-33 -34 -96 -61 -157 -61c-104 0 -162 63 -162 146c0 136 139 187 320 191c6 0 8 3 8 9c0 86 -53 102 -109 102c-46 0 -118 -20 -152 -39c-5 -3 -8 -1 -10 4l-13 57c-2 5 0 7 4 10c41 27 124 53 195 53zM255 77c33 0 83 12 122 47c4 4 5 6 5 10v121c0 5 -3 8 -8 8
c-105 0 -208 -33 -208 -111c0 -44 33 -75 89 -75z" />
    <glyph glyph-name="adieresis" unicode="&#xe4;" horiz-adv-x="526" 
d="M204 629c-35 0 -65 30 -65 65c0 36 30 65 65 65c36 0 65 -29 65 -65c0 -35 -29 -65 -65 -65zM384 629c-35 0 -65 30 -65 65c0 36 30 65 65 65c36 0 65 -29 65 -65c0 -35 -29 -65 -65 -65zM297 530c182 0 190 -134 190 -237v-285c0 -5 -3 -8 -8 -8h-89c-5 0 -8 3 -8 8v46
c0 7 -5 8 -9 4c-33 -34 -96 -61 -157 -61c-104 0 -162 63 -162 146c0 136 139 187 320 191c6 0 8 3 8 9c0 86 -53 102 -109 102c-46 0 -118 -20 -152 -39c-5 -3 -8 -1 -10 4l-13 57c-2 5 0 7 4 10c41 27 124 53 195 53zM255 77c33 0 83 12 122 47c4 4 5 6 5 10v121
c0 5 -3 8 -8 8c-105 0 -208 -33 -208 -111c0 -44 33 -75 89 -75z" />
    <glyph glyph-name="agrave" unicode="&#xe0;" horiz-adv-x="526" 
d="M238 749l86 -137c4 -7 -1 -12 -8 -12h-64c-5 0 -9 1 -12 6l-101 138c-5 6 -2 12 6 12h81c5 0 10 -2 12 -7zM297 530c182 0 190 -134 190 -237v-285c0 -5 -3 -8 -8 -8h-89c-5 0 -8 3 -8 8v46c0 7 -5 8 -9 4c-33 -34 -96 -61 -157 -61c-104 0 -162 63 -162 146
c0 136 139 187 320 191c6 0 8 3 8 9c0 86 -53 102 -109 102c-46 0 -118 -20 -152 -39c-5 -3 -8 -1 -10 4l-13 57c-2 5 0 7 4 10c41 27 124 53 195 53zM255 77c33 0 83 12 122 47c4 4 5 6 5 10v121c0 5 -3 8 -8 8c-105 0 -208 -33 -208 -111c0 -44 33 -75 89 -75z" />
    <glyph glyph-name="amacron" unicode="&#x101;" horiz-adv-x="526" 
d="M151 708c0 5 3 8 8 8h264c5 0 8 -3 8 -8v-61c0 -5 -3 -8 -8 -8h-264c-5 0 -8 3 -8 8v61zM297 530c182 0 190 -134 190 -237v-285c0 -5 -3 -8 -8 -8h-89c-5 0 -8 3 -8 8v46c0 7 -5 8 -9 4c-33 -34 -96 -61 -157 -61c-104 0 -162 63 -162 146c0 136 139 187 320 191
c6 0 8 3 8 9c0 86 -53 102 -109 102c-46 0 -118 -20 -152 -39c-5 -3 -8 -1 -10 4l-13 57c-2 5 0 7 4 10c41 27 124 53 195 53zM255 77c33 0 83 12 122 47c4 4 5 6 5 10v121c0 5 -3 8 -8 8c-105 0 -208 -33 -208 -111c0 -44 33 -75 89 -75z" />
    <glyph glyph-name="aogonek" unicode="&#x105;" horiz-adv-x="526" 
d="M495 -142c5 2 9 -2 9 -7v-31c0 -4 -1 -7 -3 -8c-19 -13 -47 -22 -84 -22c-66 0 -120 30 -120 92c0 66 60 103 111 118h-18c-5 0 -8 3 -8 8v46c0 7 -5 8 -9 4c-33 -34 -96 -61 -157 -61c-104 0 -162 63 -162 146c0 136 139 187 320 191c6 0 8 3 8 9c0 86 -53 102 -109 102
c-46 0 -118 -20 -152 -39c-5 -3 -8 -1 -10 4l-13 57c-2 5 0 7 4 10c41 27 124 53 195 53c182 0 190 -134 190 -237v-285c0 -5 -3 -8 -8 -8h-15c-56 -29 -93 -63 -93 -102c0 -36 30 -53 60 -53s45 7 64 13zM382 134v121c0 5 -3 8 -8 8c-105 0 -208 -33 -208 -111
c0 -44 33 -75 89 -75c33 0 83 12 122 47c4 4 5 6 5 10z" />
    <glyph glyph-name="aring" unicode="&#xe5;" horiz-adv-x="526" 
d="M291 609c-42 0 -75 34 -75 75c0 42 33 75 75 75c41 0 75 -33 75 -75c0 -41 -34 -75 -75 -75zM291 717c-21 0 -33 -17 -33 -33s12 -33 33 -33s33 17 33 33s-12 33 -33 33zM297 530c182 0 190 -134 190 -237v-285c0 -5 -3 -8 -8 -8h-89c-5 0 -8 3 -8 8v46c0 7 -5 8 -9 4
c-33 -34 -96 -61 -157 -61c-104 0 -162 63 -162 146c0 136 139 187 320 191c6 0 8 3 8 9c0 86 -53 102 -109 102c-46 0 -118 -20 -152 -39c-5 -3 -8 -1 -10 4l-13 57c-2 5 0 7 4 10c41 27 124 53 195 53zM255 77c33 0 83 12 122 47c4 4 5 6 5 10v121c0 5 -3 8 -8 8
c-105 0 -208 -33 -208 -111c0 -44 33 -75 89 -75z" />
    <glyph glyph-name="atilde" unicode="&#xe3;" horiz-adv-x="526" 
d="M353 607c-69 0 -90 61 -140 61c-26 0 -48 -18 -60 -42c-2 -4 -5 -5 -10 -4l-37 12c-5 1 -7 5 -5 9c14 37 41 111 112 111c68 0 94 -62 140 -62c27 0 46 13 59 40c3 5 5 7 10 6l38 -12c5 -2 7 -6 5 -11c-9 -31 -35 -108 -112 -108zM297 530c182 0 190 -134 190 -237v-285
c0 -5 -3 -8 -8 -8h-89c-5 0 -8 3 -8 8v46c0 7 -5 8 -9 4c-33 -34 -96 -61 -157 -61c-104 0 -162 63 -162 146c0 136 139 187 320 191c6 0 8 3 8 9c0 86 -53 102 -109 102c-46 0 -118 -20 -152 -39c-5 -3 -8 -1 -10 4l-13 57c-2 5 0 7 4 10c41 27 124 53 195 53zM255 77
c33 0 83 12 122 47c4 4 5 6 5 10v121c0 5 -3 8 -8 8c-105 0 -208 -33 -208 -111c0 -44 33 -75 89 -75z" />
    <glyph glyph-name="ae" unicode="&#xe6;" horiz-adv-x="931" 
d="M632 530c176 0 246 -138 246 -263v-30c0 -5 -3 -8 -8 -8h-371c-5 0 -8 -2 -8 -8c0 -51 49 -139 145 -139c87 0 119 53 131 73c2 4 6 6 10 5l84 -12c6 -1 8 -4 6 -9c-29 -76 -103 -142 -229 -142c-60 0 -111 16 -151 43v-32c0 -5 -3 -8 -8 -8h-89c-5 0 -8 3 -8 8v46
c0 7 -5 8 -9 4c-33 -34 -96 -61 -157 -61c-104 0 -162 63 -162 146c0 136 139 187 320 191c6 0 8 3 8 9c0 86 -53 102 -109 102c-46 0 -118 -20 -152 -39c-5 -3 -8 -1 -10 4l-13 57c-2 5 0 7 4 10c41 27 124 53 195 53c85 0 132 -29 158 -71c44 44 104 71 177 71zM758 303
c5 0 8 3 8 7c0 57 -31 141 -134 140c-96 0 -139 -77 -140 -138c0 -6 3 -9 7 -9h259zM377 124c4 4 5 6 5 10v98c-1 9 -2 18 -2 28c-1 2 -4 3 -6 3c-105 0 -208 -33 -208 -111c0 -44 33 -75 89 -75c33 0 83 12 122 47z" />
    <glyph glyph-name="b" unicode="b" horiz-adv-x="597" 
d="M330 -3c-68 0 -122 35 -151 71c-4 6 -9 4 -9 -2v-58c0 -5 -3 -8 -8 -8h-90c-5 0 -8 3 -8 8v737c0 5 3 8 8 8h90c5 0 8 -3 8 -8v-284c0 -6 4 -9 8 -4c29 38 84 73 152 73c155 0 229 -133 229 -266s-74 -267 -229 -267zM303 445c-56 0 -105 -30 -133 -78v-207
c28 -48 77 -78 133 -78c105 0 150 90 150 182c0 90 -45 181 -150 181z" />
    <glyph glyph-name="c" unicode="c" horiz-adv-x="559" 
d="M521 146c4 -1 4 -7 3 -11c-17 -55 -86 -138 -218 -138c-153 0 -258 119 -258 267s105 266 258 266c132 0 202 -82 218 -138c1 -4 1 -10 -3 -12l-84 -12c-6 -2 -10 0 -11 4c-13 31 -49 73 -118 73c-99 0 -154 -82 -154 -181s55 -182 154 -182c69 0 105 44 118 72
c3 6 5 6 11 5z" />
    <glyph glyph-name="cacute" unicode="&#x107;" horiz-adv-x="559" 
d="M368 749c2 5 7 7 12 7h81c8 0 11 -6 6 -12l-101 -138c-3 -5 -7 -6 -12 -6h-64c-7 0 -12 5 -8 12zM521 146c4 -1 4 -7 3 -11c-17 -55 -86 -138 -218 -138c-153 0 -258 119 -258 267s105 266 258 266c132 0 202 -82 218 -138c1 -4 1 -10 -3 -12l-84 -12c-6 -2 -10 0 -11 4
c-13 31 -49 73 -118 73c-99 0 -154 -82 -154 -181s55 -182 154 -182c69 0 105 44 118 72c3 6 5 6 11 5z" />
    <glyph glyph-name="ccaron" unicode="&#x10d;" horiz-adv-x="559" 
d="M173 676v57c0 7 5 12 12 8l113 -58c4 -2 10 -2 14 0l113 58c7 4 12 -1 12 -8v-57c0 -5 -3 -9 -8 -12l-117 -61c-4 -2 -10 -2 -14 0l-117 61c-5 3 -8 7 -8 12zM521 146c4 -1 4 -7 3 -11c-17 -55 -86 -138 -218 -138c-153 0 -258 119 -258 267s105 266 258 266
c132 0 202 -82 218 -138c1 -4 1 -10 -3 -12l-84 -12c-6 -2 -10 0 -11 4c-13 31 -49 73 -118 73c-99 0 -154 -82 -154 -181s55 -182 154 -182c69 0 105 44 118 72c3 6 5 6 11 5z" />
    <glyph glyph-name="ccedilla" unicode="&#xe7;" horiz-adv-x="559" 
d="M521 146c4 -1 4 -7 3 -11c-15 -51 -76 -125 -189 -137l-9 -33c-1 -6 1 -9 7 -9c46 2 85 -26 85 -78s-55 -89 -116 -89c-26 0 -58 10 -77 24c-4 2 -5 5 -5 9v30c0 5 4 10 9 7c16 -7 38 -17 63 -17c28 0 55 14 55 41s-23 42 -53 42c-26 0 -41 -6 -51 -11c-7 -3 -10 2 -8 7
l28 79c-129 20 -215 130 -215 264c0 148 105 266 258 266c132 0 202 -82 218 -138c1 -4 1 -10 -3 -12l-84 -12c-6 -2 -10 0 -11 4c-13 31 -49 73 -118 73c-99 0 -154 -82 -154 -181s55 -182 154 -182c69 0 105 44 118 72c3 6 5 6 11 5z" />
    <glyph glyph-name="cdotaccent" unicode="&#x10b;" horiz-adv-x="559" 
d="M306 629c-35 0 -65 30 -65 65c0 36 30 65 65 65c36 0 65 -29 65 -65c0 -35 -29 -65 -65 -65zM521 146c4 -1 4 -7 3 -11c-17 -55 -86 -138 -218 -138c-153 0 -258 119 -258 267s105 266 258 266c132 0 202 -82 218 -138c1 -4 1 -10 -3 -12l-84 -12c-6 -2 -10 0 -11 4
c-13 31 -49 73 -118 73c-99 0 -154 -82 -154 -181s55 -182 154 -182c69 0 105 44 118 72c3 6 5 6 11 5z" />
    <glyph glyph-name="d" unicode="d" horiz-adv-x="591" 
d="M287 -3c-155 0 -229 134 -229 267s74 266 229 266c68 0 122 -35 151 -71c4 -6 9 -4 9 2v284c0 5 3 8 8 8h90c5 0 8 -3 8 -8v-737c0 -5 -3 -8 -8 -8h-90c-5 0 -8 3 -8 8v58c0 6 -5 8 -9 2c-29 -36 -83 -71 -151 -71zM314 445c-105 0 -150 -91 -150 -181
c0 -92 45 -182 150 -182c56 0 105 30 133 78v207c-28 48 -77 78 -133 78z" />
    <glyph glyph-name="eth" unicode="&#xf0;" horiz-adv-x="679" 
d="M466 676c89 -62 153 -165 153 -324v-65c0 -192 -120 -290 -267 -290c-160 0 -262 107 -262 245c0 124 91 243 248 243c105 0 157 -60 172 -90c4 -7 7 -6 7 3c0 96 -49 159 -114 197l-39 -50c-4 -5 -6 -7 -11 -7h-58c-7 0 -12 5 -7 12l57 73c-56 20 -115 28 -162 28
c-6 0 -9 5 -8 10l14 84c1 6 4 8 9 8c72 0 146 -14 213 -45l29 38c4 5 6 7 11 7h58c7 0 12 -5 7 -12zM354 99c93 0 151 59 151 142c0 89 -70 142 -153 142c-84 0 -148 -55 -148 -141c0 -91 71 -143 150 -143z" />
    <glyph glyph-name="dcaron" unicode="&#x10f;" horiz-adv-x="591" 
d="M674 745c1 5 5 9 11 9h82c7 0 10 -4 8 -11l-75 -214c-2 -6 -7 -8 -12 -8h-61c-7 0 -10 5 -8 11zM287 -3c-155 0 -229 134 -229 267s74 266 229 266c68 0 122 -35 151 -71c4 -6 9 -4 9 2v284c0 5 3 8 8 8h90c5 0 8 -3 8 -8v-737c0 -5 -3 -8 -8 -8h-90c-5 0 -8 3 -8 8v58
c0 6 -5 8 -9 2c-29 -36 -83 -71 -151 -71zM314 445c-105 0 -150 -91 -150 -181c0 -92 45 -182 150 -182c56 0 105 30 133 78v207c-28 48 -77 78 -133 78z" />
    <glyph glyph-name="dcroat" unicode="&#x111;" horiz-adv-x="591" 
d="M626 668c6 0 10 -4 10 -10v-45c0 -6 -4 -10 -10 -10h-73v-595c0 -5 -3 -8 -8 -8h-90c-5 0 -8 3 -8 8v58c0 6 -5 8 -9 2c-29 -36 -83 -71 -151 -71c-155 0 -229 134 -229 267s74 266 229 266c68 0 122 -35 151 -71c4 -6 9 -4 9 2v142h-206c-6 0 -10 4 -10 10v45
c0 6 4 10 10 10h206v77c0 5 3 8 8 8h90c5 0 8 -3 8 -8v-77h73zM447 160v207c-28 48 -77 78 -133 78c-105 0 -150 -91 -150 -181c0 -92 45 -182 150 -182c56 0 105 30 133 78z" />
    <glyph glyph-name="e" unicode="e" horiz-adv-x="575" 
d="M547 267v-30c0 -5 -3 -8 -8 -8h-372c-5 0 -7 -2 -7 -8c0 -51 49 -139 145 -139c87 0 119 53 131 73c2 4 6 6 10 5l84 -12c5 -1 8 -4 6 -9c-29 -75 -103 -142 -229 -142c-165 0 -259 119 -259 267c0 147 98 266 253 266c176 0 246 -138 246 -263zM301 450
c-96 0 -140 -77 -140 -138c0 -6 2 -9 7 -9h259c5 0 8 3 8 7c0 57 -31 141 -134 140z" />
    <glyph glyph-name="eacute" unicode="&#xe9;" horiz-adv-x="575" 
d="M365 749c2 5 7 7 12 7h81c8 0 11 -6 6 -12l-101 -138c-3 -5 -7 -6 -12 -6h-64c-7 0 -12 5 -8 12zM547 267v-30c0 -5 -3 -8 -8 -8h-372c-5 0 -7 -2 -7 -8c0 -51 49 -139 145 -139c87 0 119 53 131 73c2 4 6 6 10 5l84 -12c5 -1 8 -4 6 -9c-29 -75 -103 -142 -229 -142
c-165 0 -259 119 -259 267c0 147 98 266 253 266c176 0 246 -138 246 -263zM301 450c-96 0 -140 -77 -140 -138c0 -6 2 -9 7 -9h259c5 0 8 3 8 7c0 57 -31 141 -134 140z" />
    <glyph glyph-name="ecaron" unicode="&#x11b;" horiz-adv-x="575" 
d="M170 676v57c0 7 5 12 12 8l113 -58c4 -2 10 -2 14 0l113 58c7 4 12 -1 12 -8v-57c0 -5 -3 -9 -8 -12l-117 -61c-4 -2 -10 -2 -14 0l-117 61c-5 3 -8 7 -8 12zM547 267v-30c0 -5 -3 -8 -8 -8h-372c-5 0 -7 -2 -7 -8c0 -51 49 -139 145 -139c87 0 119 53 131 73
c2 4 6 6 10 5l84 -12c5 -1 8 -4 6 -9c-29 -75 -103 -142 -229 -142c-165 0 -259 119 -259 267c0 147 98 266 253 266c176 0 246 -138 246 -263zM301 450c-96 0 -140 -77 -140 -138c0 -6 2 -9 7 -9h259c5 0 8 3 8 7c0 57 -31 141 -134 140z" />
    <glyph glyph-name="ecircumflex" unicode="&#xea;" horiz-adv-x="575" 
d="M170 668c0 5 3 9 8 12l117 61c4 2 10 2 14 0l117 -61c5 -3 8 -7 8 -12v-57c0 -7 -5 -12 -12 -8l-113 58c-4 2 -10 2 -14 0l-113 -58c-7 -4 -12 1 -12 8v57zM547 267v-30c0 -5 -3 -8 -8 -8h-372c-5 0 -7 -2 -7 -8c0 -51 49 -139 145 -139c87 0 119 53 131 73c2 4 6 6 10 5
l84 -12c5 -1 8 -4 6 -9c-29 -75 -103 -142 -229 -142c-165 0 -259 119 -259 267c0 147 98 266 253 266c176 0 246 -138 246 -263zM301 450c-96 0 -140 -77 -140 -138c0 -6 2 -9 7 -9h259c5 0 8 3 8 7c0 57 -31 141 -134 140z" />
    <glyph glyph-name="edieresis" unicode="&#xeb;" horiz-adv-x="575" 
d="M215 629c-35 0 -65 30 -65 65c0 36 30 65 65 65c36 0 65 -29 65 -65c0 -35 -29 -65 -65 -65zM395 629c-35 0 -65 30 -65 65c0 36 30 65 65 65c36 0 65 -29 65 -65c0 -35 -29 -65 -65 -65zM547 267v-30c0 -5 -3 -8 -8 -8h-372c-5 0 -7 -2 -7 -8c0 -51 49 -139 145 -139
c87 0 119 53 131 73c2 4 6 6 10 5l84 -12c5 -1 8 -4 6 -9c-29 -75 -103 -142 -229 -142c-165 0 -259 119 -259 267c0 147 98 266 253 266c176 0 246 -138 246 -263zM301 450c-96 0 -140 -77 -140 -138c0 -6 2 -9 7 -9h259c5 0 8 3 8 7c0 57 -31 141 -134 140z" />
    <glyph glyph-name="edotaccent" unicode="&#x117;" horiz-adv-x="575" 
d="M303 629c-35 0 -65 30 -65 65c0 36 30 65 65 65c36 0 65 -29 65 -65c0 -35 -29 -65 -65 -65zM547 267v-30c0 -5 -3 -8 -8 -8h-372c-5 0 -7 -2 -7 -8c0 -51 49 -139 145 -139c87 0 119 53 131 73c2 4 6 6 10 5l84 -12c5 -1 8 -4 6 -9c-29 -75 -103 -142 -229 -142
c-165 0 -259 119 -259 267c0 147 98 266 253 266c176 0 246 -138 246 -263zM301 450c-96 0 -140 -77 -140 -138c0 -6 2 -9 7 -9h259c5 0 8 3 8 7c0 57 -31 141 -134 140z" />
    <glyph glyph-name="egrave" unicode="&#xe8;" horiz-adv-x="575" 
d="M249 749l86 -137c4 -7 -1 -12 -8 -12h-64c-5 0 -9 1 -12 6l-101 138c-5 6 -2 12 6 12h81c5 0 10 -2 12 -7zM547 267v-30c0 -5 -3 -8 -8 -8h-372c-5 0 -7 -2 -7 -8c0 -51 49 -139 145 -139c87 0 119 53 131 73c2 4 6 6 10 5l84 -12c5 -1 8 -4 6 -9
c-29 -75 -103 -142 -229 -142c-165 0 -259 119 -259 267c0 147 98 266 253 266c176 0 246 -138 246 -263zM301 450c-96 0 -140 -77 -140 -138c0 -6 2 -9 7 -9h259c5 0 8 3 8 7c0 57 -31 141 -134 140z" />
    <glyph glyph-name="emacron" unicode="&#x113;" horiz-adv-x="575" 
d="M162 708c0 5 3 8 8 8h264c5 0 8 -3 8 -8v-61c0 -5 -3 -8 -8 -8h-264c-5 0 -8 3 -8 8v61zM547 267v-30c0 -5 -3 -8 -8 -8h-372c-5 0 -7 -2 -7 -8c0 -51 49 -139 145 -139c87 0 119 53 131 73c2 4 6 6 10 5l84 -12c5 -1 8 -4 6 -9c-29 -75 -103 -142 -229 -142
c-165 0 -259 119 -259 267c0 147 98 266 253 266c176 0 246 -138 246 -263zM301 450c-96 0 -140 -77 -140 -138c0 -6 2 -9 7 -9h259c5 0 8 3 8 7c0 57 -31 141 -134 140z" />
    <glyph glyph-name="eogonek" unicode="&#x119;" horiz-adv-x="575" 
d="M301 530c176 0 246 -138 246 -263v-30c0 -5 -3 -8 -8 -8h-372c-5 0 -7 -2 -7 -8c0 -51 49 -139 145 -139c87 0 119 53 131 73c2 4 6 6 10 5l84 -12c5 -1 8 -4 6 -9c-25 -65 -84 -123 -180 -138c-45 -27 -74 -58 -74 -92c0 -36 30 -53 60 -53s45 7 64 13c5 2 9 -2 9 -7
v-31c0 -4 -1 -7 -3 -8c-19 -13 -47 -22 -84 -22c-66 0 -120 30 -120 92c0 51 37 85 77 105c-151 10 -237 125 -237 266c0 147 98 266 253 266zM427 303c5 0 8 3 8 7c0 57 -31 141 -134 140c-96 0 -140 -77 -140 -138c0 -6 2 -9 7 -9h259z" />
    <glyph glyph-name="uni1EBD" unicode="&#x1ebd;" horiz-adv-x="575" 
d="M364 607c-69 0 -90 61 -140 61c-26 0 -48 -18 -60 -42c-2 -4 -5 -5 -10 -4l-37 12c-5 1 -7 5 -5 9c14 37 41 111 112 111c68 0 94 -62 140 -62c27 0 46 13 59 40c3 5 5 7 10 6l38 -12c5 -2 7 -6 5 -11c-9 -31 -35 -108 -112 -108zM547 267v-30c0 -5 -3 -8 -8 -8h-372
c-5 0 -7 -2 -7 -8c0 -51 49 -139 145 -139c87 0 119 53 131 73c2 4 6 6 10 5l84 -12c5 -1 8 -4 6 -9c-29 -75 -103 -142 -229 -142c-165 0 -259 119 -259 267c0 147 98 266 253 266c176 0 246 -138 246 -263zM301 450c-96 0 -140 -77 -140 -138c0 -6 2 -9 7 -9h259
c5 0 8 3 8 7c0 57 -31 141 -134 140z" />
    <glyph glyph-name="f" unicode="f" horiz-adv-x="425" 
d="M308 671c-46 0 -72 -39 -72 -102v-34c0 -5 3 -8 8 -8h123c5 0 8 -3 8 -8v-69c0 -5 -3 -8 -8 -8h-123c-5 0 -8 -3 -8 -8v-426c0 -5 -3 -8 -8 -8h-90c-5 0 -8 3 -8 8v426c0 5 -3 8 -8 8h-60c-5 0 -8 3 -8 8v69c0 5 3 8 8 8h60c5 0 8 3 8 8v40c0 103 42 181 148 181
c45 0 83 -16 105 -36c3 -3 5 -6 3 -11l-12 -55c-1 -6 -4 -6 -9 -3c-15 9 -34 20 -57 20z" />
    <glyph glyph-name="g" unicode="g" horiz-adv-x="589" 
d="M537 527c5 0 8 -3 8 -8v-487c0 -143 -90 -242 -231 -242c-99 0 -171 32 -207 54c-4 3 -5 7 -4 11l12 56c2 4 6 7 11 4c28 -14 86 -40 163 -40c82 0 150 38 150 157v34c0 6 -5 8 -9 2c-29 -36 -83 -71 -151 -71c-155 0 -229 134 -229 267s74 266 229 266
c68 0 122 -35 151 -71c4 -6 9 -4 9 2v58c0 5 3 8 8 8h90zM307 82c55 0 104 30 132 78v207c-28 48 -77 78 -132 78c-106 0 -151 -90 -151 -181s45 -182 151 -182z" />
    <glyph glyph-name="gbreve" unicode="&#x11f;" horiz-adv-x="589" 
d="M185 748c0 5 3 8 8 8h37c5 0 8 -3 8 -8c5 -41 39 -71 83 -71s78 30 82 71c0 5 3 8 8 8h38c5 0 8 -3 8 -8c-4 -86 -61 -136 -136 -136s-132 51 -136 136zM537 527c5 0 8 -3 8 -8v-487c0 -143 -90 -242 -231 -242c-99 0 -171 32 -207 54c-4 3 -5 7 -4 11l12 56
c2 4 6 7 11 4c28 -14 86 -40 163 -40c82 0 150 38 150 157v34c0 6 -5 8 -9 2c-29 -36 -83 -71 -151 -71c-155 0 -229 134 -229 267s74 266 229 266c68 0 122 -35 151 -71c4 -6 9 -4 9 2v58c0 5 3 8 8 8h90zM307 82c55 0 104 30 132 78v207c-28 48 -77 78 -132 78
c-106 0 -151 -90 -151 -181s45 -182 151 -182z" />
    <glyph glyph-name="gcommaaccent" unicode="&#x123;" horiz-adv-x="589" 
d="M345 601c-1 -5 -5 -9 -11 -9h-81c-7 0 -10 4 -8 11l74 213c2 6 7 8 12 8h61c7 0 10 -5 8 -11zM537 527c5 0 8 -3 8 -8v-487c0 -143 -90 -242 -231 -242c-99 0 -171 32 -207 54c-4 3 -5 7 -4 11l12 56c2 4 6 7 11 4c28 -14 86 -40 163 -40c82 0 150 38 150 157v34
c0 6 -5 8 -9 2c-29 -36 -83 -71 -151 -71c-155 0 -229 134 -229 267s74 266 229 266c68 0 122 -35 151 -71c4 -6 9 -4 9 2v58c0 5 3 8 8 8h90zM307 82c55 0 104 30 132 78v207c-28 48 -77 78 -132 78c-106 0 -151 -90 -151 -181s45 -182 151 -182z" />
    <glyph glyph-name="gdotaccent" unicode="&#x121;" horiz-adv-x="589" 
d="M322 629c-35 0 -65 30 -65 65c0 36 30 65 65 65c36 0 65 -29 65 -65c0 -35 -29 -65 -65 -65zM537 527c5 0 8 -3 8 -8v-487c0 -143 -90 -242 -231 -242c-99 0 -171 32 -207 54c-4 3 -5 7 -4 11l12 56c2 4 6 7 11 4c28 -14 86 -40 163 -40c82 0 150 38 150 157v34
c0 6 -5 8 -9 2c-29 -36 -83 -71 -151 -71c-155 0 -229 134 -229 267s74 266 229 266c68 0 122 -35 151 -71c4 -6 9 -4 9 2v58c0 5 3 8 8 8h90zM307 82c55 0 104 30 132 78v207c-28 48 -77 78 -132 78c-106 0 -151 -90 -151 -181s45 -182 151 -182z" />
    <glyph glyph-name="h" unicode="h" horiz-adv-x="591" 
d="M66 0c-5 0 -8 3 -8 8v737c0 5 3 8 8 8h90c5 0 8 -3 8 -8v-295c0 -7 5 -9 9 -3c33 40 97 83 173 83c126 0 207 -81 207 -242v-280c0 -5 -3 -8 -8 -8h-90c-5 0 -8 3 -8 8v276c0 111 -47 161 -131 161c-67 0 -137 -47 -152 -113v-324c0 -5 -3 -8 -8 -8h-90z" />
    <glyph glyph-name="hbar" unicode="&#x127;" horiz-adv-x="591" 
d="M346 530c126 0 207 -81 207 -242v-280c0 -5 -3 -8 -8 -8h-90c-5 0 -8 3 -8 8v276c0 111 -47 161 -131 161c-67 0 -137 -47 -152 -113v-324c0 -5 -3 -8 -8 -8h-90c-5 0 -8 3 -8 8v585h-50c-6 0 -10 4 -10 10v45c0 6 4 10 10 10h50v87c0 5 3 8 8 8h90c5 0 8 -3 8 -8v-87
h229c6 0 10 -4 10 -10v-45c0 -6 -4 -10 -10 -10h-229v-143c0 -7 5 -9 9 -3c33 40 97 83 173 83z" />
    <glyph glyph-name="i" unicode="i" horiz-adv-x="225" 
d="M120 626c-36 0 -65 29 -65 65c0 35 29 65 65 65c35 0 65 -30 65 -65c0 -36 -30 -65 -65 -65zM66 519c0 5 3 8 8 8h90c5 0 8 -3 8 -8v-511c0 -5 -3 -8 -8 -8h-90c-5 0 -8 3 -8 8v511z" />
    <glyph glyph-name="dotlessi" unicode="&#x131;" horiz-adv-x="226" 
d="M70 519c0 5 3 8 8 8h90c5 0 8 -3 8 -8v-511c0 -5 -3 -8 -8 -8h-90c-5 0 -8 3 -8 8v511z" />
    <glyph glyph-name="iacute" unicode="&#xed;" horiz-adv-x="226" 
d="M186 746c2 5 7 7 12 7h81c8 0 11 -6 6 -12l-101 -138c-3 -5 -7 -6 -12 -6h-64c-7 0 -12 5 -8 12zM70 519c0 5 3 8 8 8h90c5 0 8 -3 8 -8v-511c0 -5 -3 -8 -8 -8h-90c-5 0 -8 3 -8 8v511z" />
    <glyph glyph-name="icircumflex" unicode="&#xee;" horiz-adv-x="226" 
d="M-9 665c0 5 3 9 8 12l117 61c4 2 10 2 14 0l117 -61c5 -3 8 -7 8 -12v-57c0 -7 -5 -12 -12 -8l-113 58c-4 2 -10 2 -14 0l-113 -58c-7 -4 -12 1 -12 8v57zM70 519c0 5 3 8 8 8h90c5 0 8 -3 8 -8v-511c0 -5 -3 -8 -8 -8h-90c-5 0 -8 3 -8 8v511z" />
    <glyph glyph-name="idieresis" unicode="&#xef;" horiz-adv-x="226" 
d="M36 626c-35 0 -65 30 -65 65c0 36 30 65 65 65c36 0 65 -29 65 -65c0 -35 -29 -65 -65 -65zM216 626c-35 0 -65 30 -65 65c0 36 30 65 65 65c36 0 65 -29 65 -65c0 -35 -29 -65 -65 -65zM70 519c0 5 3 8 8 8h90c5 0 8 -3 8 -8v-511c0 -5 -3 -8 -8 -8h-90c-5 0 -8 3 -8 8
v511z" />
    <glyph glyph-name="i.loclTRK" horiz-adv-x="226" 
d="M123 626c-35 0 -65 30 -65 65c0 36 30 65 65 65c36 0 65 -29 65 -65c0 -35 -29 -65 -65 -65zM70 519c0 5 3 8 8 8h90c5 0 8 -3 8 -8v-511c0 -5 -3 -8 -8 -8h-90c-5 0 -8 3 -8 8v511z" />
    <glyph glyph-name="igrave" unicode="&#xec;" horiz-adv-x="226" 
d="M70 746l86 -137c4 -7 -1 -12 -8 -12h-64c-5 0 -9 1 -12 6l-101 138c-5 6 -2 12 6 12h81c5 0 10 -2 12 -7zM70 519c0 5 3 8 8 8h90c5 0 8 -3 8 -8v-511c0 -5 -3 -8 -8 -8h-90c-5 0 -8 3 -8 8v511z" />
    <glyph glyph-name="imacron" unicode="&#x12b;" horiz-adv-x="226" 
d="M-17 705c0 5 3 8 8 8h264c5 0 8 -3 8 -8v-61c0 -5 -3 -8 -8 -8h-264c-5 0 -8 3 -8 8v61zM70 519c0 5 3 8 8 8h90c5 0 8 -3 8 -8v-511c0 -5 -3 -8 -8 -8h-90c-5 0 -8 3 -8 8v511z" />
    <glyph glyph-name="iogonek" unicode="&#x12f;" horiz-adv-x="226" 
d="M123 626c-35 0 -65 30 -65 65c0 36 30 65 65 65c36 0 65 -29 65 -65c0 -35 -29 -65 -65 -65zM187 -138c5 2 9 -2 9 -7v-31c0 -4 -1 -7 -3 -8c-19 -13 -47 -22 -84 -22c-66 0 -120 30 -120 92s51 97 99 114h-10c-5 0 -8 3 -8 8v511c0 5 3 8 8 8h90c5 0 8 -3 8 -8v-511
c0 -5 -3 -8 -8 -8h-20c-51 -27 -86 -61 -86 -97c0 -37 31 -53 61 -53s45 6 64 12z" />
    <glyph glyph-name="j" unicode="j" horiz-adv-x="210" 
d="M109 626c-36 0 -65 29 -65 65c0 35 29 65 65 65c35 0 65 -30 65 -65c0 -36 -30 -65 -65 -65zM162 519l-1 -520c0 -110 -17 -209 -131 -209c-49 0 -78 15 -97 33c-4 3 -5 6 -4 11l12 54c2 7 4 8 10 4c14 -10 29 -17 48 -17c45 0 57 40 57 120v524c0 5 3 8 8 8h90
c5 0 8 -3 8 -8z" />
    <glyph glyph-name="k" unicode="k" horiz-adv-x="601" 
d="M438 0c-4 0 -8 2 -10 5l-184 225c-5 6 -6 6 -11 1l-59 -56c-3 -3 -4 -6 -4 -10v-157c0 -5 -3 -8 -8 -8h-90c-5 0 -8 3 -8 8v737c0 5 3 8 8 8h90c5 0 8 -3 8 -8v-430c0 -7 5 -10 10 -5l233 213c3 3 6 4 10 4h125c7 0 9 -5 4 -10l-230 -214c-4 -4 -4 -7 -1 -11l233 -282
c5 -6 2 -10 -4 -10h-112z" />
    <glyph glyph-name="kcommaaccent" unicode="&#x137;" horiz-adv-x="601" 
d="M438 0c-4 0 -8 2 -10 5l-184 225c-5 6 -6 6 -11 1l-59 -56c-3 -3 -4 -6 -4 -10v-157c0 -5 -3 -8 -8 -8h-90c-5 0 -8 3 -8 8v737c0 5 3 8 8 8h90c5 0 8 -3 8 -8v-430c0 -7 5 -10 10 -5l233 213c3 3 6 4 10 4h125c7 0 9 -5 4 -10l-230 -214c-4 -4 -4 -7 -1 -11l233 -282
c5 -6 2 -10 -4 -10h-112zM251 -71c1 5 5 9 11 9h82c7 0 10 -4 8 -11l-75 -213c-2 -6 -7 -8 -12 -8h-61c-7 0 -10 5 -8 11z" />
    <glyph glyph-name="l" unicode="l" horiz-adv-x="202" 
d="M58 745c0 5 3 8 8 8h90c5 0 8 -3 8 -8v-737c0 -5 -3 -8 -8 -8h-90c-5 0 -8 3 -8 8v737z" />
    <glyph glyph-name="lacute" unicode="&#x13a;" horiz-adv-x="202" 
d="M166 972c2 5 7 7 12 7h81c8 0 11 -6 6 -12l-101 -138c-3 -5 -7 -6 -12 -6h-64c-7 0 -12 5 -8 12zM58 745c0 5 3 8 8 8h90c5 0 8 -3 8 -8v-737c0 -5 -3 -8 -8 -8h-90c-5 0 -8 3 -8 8v737z" />
    <glyph glyph-name="lcaron" unicode="&#x13e;" horiz-adv-x="202" 
d="M290 745c1 5 5 9 11 9h82c7 0 10 -4 8 -11l-75 -214c-2 -6 -7 -8 -12 -8h-61c-7 0 -10 5 -8 11zM58 745c0 5 3 8 8 8h90c5 0 8 -3 8 -8v-737c0 -5 -3 -8 -8 -8h-90c-5 0 -8 3 -8 8v737z" />
    <glyph glyph-name="lcommaaccent" unicode="&#x13c;" horiz-adv-x="202" 
d="M58 745c0 5 3 8 8 8h90c5 0 8 -3 8 -8v-737c0 -5 -3 -8 -8 -8h-90c-5 0 -8 3 -8 8v737zM59 -71c1 5 5 9 11 9h81c8 0 11 -4 9 -11l-75 -213c-2 -6 -7 -8 -12 -8h-61c-7 0 -10 5 -8 11z" />
    <glyph glyph-name="lslash" unicode="&#x142;" horiz-adv-x="202" 
d="M337 441c5 -5 3 -11 -4 -14l-169 -60v-359c0 -5 -3 -8 -8 -8h-90c-5 0 -8 3 -8 8v321l-111 -40c-5 -2 -9 -1 -13 3l-40 41c-5 4 -4 10 3 13l161 58v341c0 5 3 8 8 8h90c5 0 8 -3 8 -8v-303l119 42c5 2 9 1 12 -3z" />
    <glyph glyph-name="m" unicode="m" horiz-adv-x="939" 
d="M698 530c140 0 194 -99 197 -238v-284c0 -5 -3 -8 -8 -8h-90c-5 0 -8 3 -8 8v284c0 100 -39 153 -121 153c-83 0 -136 -70 -138 -141v-296c0 -5 -3 -8 -8 -8h-89c-5 0 -8 3 -8 8v284c0 72 -27 153 -121 153c-80 0 -128 -59 -134 -113v-324c0 -5 -3 -8 -8 -8h-90
c-5 0 -8 3 -8 8v511c0 5 3 8 8 8h90c5 0 8 -3 8 -8v-58c0 -7 5 -10 9 -4c30 38 88 73 155 73c85 0 141 -41 171 -109c4 -8 7 -9 11 -1c37 66 110 110 182 110z" />
    <glyph glyph-name="n" unicode="n" horiz-adv-x="595" 
d="M66 0c-5 0 -8 3 -8 8v511c0 5 3 8 8 8h90c5 0 8 -3 8 -8v-69c0 -7 5 -9 9 -3c33 40 103 83 179 83c114 0 205 -57 205 -236v-286c0 -5 -3 -8 -8 -8h-90c-5 0 -8 3 -8 8v276c0 112 -50 161 -135 161c-67 0 -131 -47 -152 -113v-324c0 -5 -3 -8 -8 -8h-90z" />
    <glyph glyph-name="nacute" unicode="&#x144;" horiz-adv-x="595" 
d="M393 749c2 5 7 7 12 7h81c8 0 11 -6 6 -12l-101 -138c-3 -5 -7 -6 -12 -6h-64c-7 0 -12 5 -8 12zM66 0c-5 0 -8 3 -8 8v511c0 5 3 8 8 8h90c5 0 8 -3 8 -8v-69c0 -7 5 -9 9 -3c33 40 103 83 179 83c114 0 205 -57 205 -236v-286c0 -5 -3 -8 -8 -8h-90c-5 0 -8 3 -8 8v276
c0 112 -50 161 -135 161c-67 0 -131 -47 -152 -113v-324c0 -5 -3 -8 -8 -8h-90z" />
    <glyph glyph-name="ncaron" unicode="&#x148;" horiz-adv-x="595" 
d="M198 676v57c0 7 5 12 12 8l113 -58c4 -2 10 -2 14 0l113 58c7 4 12 -1 12 -8v-57c0 -5 -3 -9 -8 -12l-117 -61c-4 -2 -10 -2 -14 0l-117 61c-5 3 -8 7 -8 12zM66 0c-5 0 -8 3 -8 8v511c0 5 3 8 8 8h90c5 0 8 -3 8 -8v-69c0 -7 5 -9 9 -3c33 40 103 83 179 83
c114 0 205 -57 205 -236v-286c0 -5 -3 -8 -8 -8h-90c-5 0 -8 3 -8 8v276c0 112 -50 161 -135 161c-67 0 -131 -47 -152 -113v-324c0 -5 -3 -8 -8 -8h-90z" />
    <glyph glyph-name="ncommaaccent" unicode="&#x146;" horiz-adv-x="595" 
d="M66 0c-5 0 -8 3 -8 8v511c0 5 3 8 8 8h90c5 0 8 -3 8 -8v-69c0 -7 5 -9 9 -3c33 40 103 83 179 83c114 0 205 -57 205 -236v-286c0 -5 -3 -8 -8 -8h-90c-5 0 -8 3 -8 8v276c0 112 -50 161 -135 161c-67 0 -131 -47 -152 -113v-324c0 -5 -3 -8 -8 -8h-90zM252 -71
c1 5 5 9 11 9h82c7 0 10 -4 8 -11l-75 -213c-2 -6 -7 -8 -12 -8h-61c-7 0 -10 5 -8 11z" />
    <glyph glyph-name="eng" unicode="&#x14b;" horiz-adv-x="619" 
d="M352 530c114 0 205 -57 205 -236v-286v-1c-1 -130 -32 -217 -169 -217c-59 0 -118 22 -154 44c-4 3 -5 7 -4 11l12 44c2 5 6 7 11 4c29 -14 63 -29 106 -29c76 0 92 53 92 152v268c0 112 -50 161 -135 161c-67 0 -131 -47 -152 -113v-324c0 -5 -3 -8 -8 -8h-90
c-5 0 -8 3 -8 8v511c0 5 3 8 8 8h90c5 0 8 -3 8 -8v-69c0 -7 5 -9 9 -3c33 40 103 83 179 83z" />
    <glyph glyph-name="ntilde" unicode="&#xf1;" horiz-adv-x="595" 
d="M391 607c-69 0 -90 61 -140 61c-26 0 -48 -18 -60 -42c-2 -4 -5 -5 -10 -4l-37 12c-5 1 -7 5 -5 9c14 37 41 111 112 111c68 0 94 -62 140 -62c27 0 46 13 59 40c3 5 5 7 10 6l38 -12c5 -2 7 -6 5 -11c-9 -31 -35 -108 -112 -108zM66 0c-5 0 -8 3 -8 8v511c0 5 3 8 8 8
h90c5 0 8 -3 8 -8v-69c0 -7 5 -9 9 -3c33 40 103 83 179 83c114 0 205 -57 205 -236v-286c0 -5 -3 -8 -8 -8h-90c-5 0 -8 3 -8 8v276c0 112 -50 161 -135 161c-67 0 -131 -47 -152 -113v-324c0 -5 -3 -8 -8 -8h-90z" />
    <glyph glyph-name="o" unicode="o" horiz-adv-x="621" 
d="M320 -3c-163 0 -272 120 -272 267s109 266 272 266s273 -119 273 -266s-110 -267 -273 -267zM320 445c-105 0 -166 -81 -166 -181s61 -182 166 -182s167 82 167 182s-62 181 -167 181z" />
    <glyph glyph-name="oacute" unicode="&#xf3;" horiz-adv-x="621" 
d="M381 749c2 5 7 7 12 7h81c8 0 11 -6 6 -12l-101 -138c-3 -5 -7 -6 -12 -6h-64c-7 0 -12 5 -8 12zM320 -3c-163 0 -272 120 -272 267s109 266 272 266s273 -119 273 -266s-110 -267 -273 -267zM320 445c-105 0 -166 -81 -166 -181s61 -182 166 -182s167 82 167 182
s-62 181 -167 181z" />
    <glyph glyph-name="ocircumflex" unicode="&#xf4;" horiz-adv-x="621" 
d="M186 668c0 5 3 9 8 12l117 61c4 2 10 2 14 0l117 -61c5 -3 8 -7 8 -12v-57c0 -7 -5 -12 -12 -8l-113 58c-4 2 -10 2 -14 0l-113 -58c-7 -4 -12 1 -12 8v57zM320 -3c-163 0 -272 120 -272 267s109 266 272 266s273 -119 273 -266s-110 -267 -273 -267zM320 445
c-105 0 -166 -81 -166 -181s61 -182 166 -182s167 82 167 182s-62 181 -167 181z" />
    <glyph glyph-name="odieresis" unicode="&#xf6;" horiz-adv-x="621" 
d="M232 629c-35 0 -65 30 -65 65c0 36 30 65 65 65c36 0 65 -29 65 -65c0 -35 -29 -65 -65 -65zM412 629c-35 0 -65 30 -65 65c0 36 30 65 65 65c36 0 65 -29 65 -65c0 -35 -29 -65 -65 -65zM320 -3c-163 0 -272 120 -272 267s109 266 272 266s273 -119 273 -266
s-110 -267 -273 -267zM320 445c-105 0 -166 -81 -166 -181s61 -182 166 -182s167 82 167 182s-62 181 -167 181z" />
    <glyph glyph-name="ograve" unicode="&#xf2;" horiz-adv-x="621" 
d="M265 749l86 -137c4 -7 -1 -12 -8 -12h-64c-5 0 -9 1 -12 6l-101 138c-5 6 -2 12 6 12h81c5 0 10 -2 12 -7zM320 -3c-163 0 -272 120 -272 267s109 266 272 266s273 -119 273 -266s-110 -267 -273 -267zM320 445c-105 0 -166 -81 -166 -181s61 -182 166 -182
s167 82 167 182s-62 181 -167 181z" />
    <glyph glyph-name="ohungarumlaut" unicode="&#x151;" horiz-adv-x="621" 
d="M292 600c-1 -5 -5 -9 -11 -9h-81c-7 0 -10 4 -8 11l74 213c2 6 7 8 12 8h61c7 0 10 -5 8 -11zM449 600c-1 -5 -5 -9 -11 -9h-81c-7 0 -10 4 -8 11l74 213c2 6 7 8 12 8h61c7 0 10 -5 8 -11zM320 -3c-163 0 -272 120 -272 267s109 266 272 266s273 -119 273 -266
s-110 -267 -273 -267zM320 445c-105 0 -166 -81 -166 -181s61 -182 166 -182s167 82 167 182s-62 181 -167 181z" />
    <glyph glyph-name="omacron" unicode="&#x14d;" horiz-adv-x="621" 
d="M178 708c0 5 3 8 8 8h264c5 0 8 -3 8 -8v-61c0 -5 -3 -8 -8 -8h-264c-5 0 -8 3 -8 8v61zM320 -3c-163 0 -272 120 -272 267s109 266 272 266s273 -119 273 -266s-110 -267 -273 -267zM320 445c-105 0 -166 -81 -166 -181s61 -182 166 -182s167 82 167 182
s-62 181 -167 181z" />
    <glyph glyph-name="oslash" unicode="&#xf8;" horiz-adv-x="633" 
d="M461 495c82 -46 132 -132 132 -231c0 -147 -110 -267 -273 -267c-32 0 -61 5 -88 13l-21 -43c-2 -5 -6 -7 -11 -7h-44c-7 0 -10 5 -7 12l29 61c-81 46 -130 133 -130 231c0 147 109 266 272 266c31 0 61 -4 88 -12l20 42c2 5 6 7 11 7h44c7 0 10 -5 7 -12zM154 264
c0 -61 23 -114 64 -147l152 321c-15 4 -32 7 -50 7c-105 0 -166 -81 -166 -181zM320 82c105 0 167 82 167 182c0 61 -23 115 -65 148l-153 -322c16 -5 33 -8 51 -8z" />
    <glyph glyph-name="otilde" unicode="&#xf5;" horiz-adv-x="621" 
d="M380 607c-69 0 -90 61 -140 61c-26 0 -48 -18 -60 -42c-2 -4 -5 -5 -10 -4l-37 12c-5 1 -7 5 -5 9c14 37 41 111 112 111c68 0 94 -62 140 -62c27 0 46 13 59 40c3 5 5 7 10 6l38 -12c5 -2 7 -6 5 -11c-9 -31 -35 -108 -112 -108zM320 -3c-163 0 -272 120 -272 267
s109 266 272 266s273 -119 273 -266s-110 -267 -273 -267zM320 445c-105 0 -166 -81 -166 -181s61 -182 166 -182s167 82 167 182s-62 181 -167 181z" />
    <glyph glyph-name="oe" unicode="&#x153;" horiz-adv-x="1063" 
d="M760 530c176 0 246 -138 246 -263v-30c0 -5 -3 -8 -8 -8h-372c-5 0 -7 -2 -7 -8c0 -51 49 -139 145 -139c87 0 118 53 131 73c2 4 6 6 10 5l84 -12c5 -1 8 -4 6 -9c-29 -76 -103 -142 -229 -142c-102 0 -176 45 -219 114c-46 -69 -127 -114 -227 -114
c-163 0 -272 120 -272 267s109 266 272 266c101 0 181 -45 228 -114c42 69 116 114 212 114zM885 303c5 0 8 3 8 7c0 57 -31 141 -133 140c-96 0 -140 -77 -140 -138c0 -6 2 -9 7 -9h258zM320 82c105 0 167 82 167 182s-62 181 -167 181s-166 -81 -166 -181
s61 -182 166 -182z" />
    <glyph glyph-name="p" unicode="p" horiz-adv-x="587" 
d="M324 530c155 0 229 -133 229 -266s-74 -267 -229 -267c-68 0 -121 35 -151 71c-4 6 -9 4 -9 -2v-265c0 -5 -3 -8 -7 -8h-91c-5 0 -8 3 -8 8v718c0 5 3 8 8 8h90c5 0 8 -3 8 -8v-58c0 -6 4 -9 8 -4c29 38 84 73 152 73zM297 82c105 0 150 91 150 182s-45 181 -150 181
c-56 0 -104 -30 -133 -78v-207c28 -48 77 -78 133 -78z" />
    <glyph glyph-name="thorn" unicode="&#xfe;" horiz-adv-x="605" 
d="M336 530c155 0 229 -133 229 -266s-74 -267 -229 -267c-68 0 -122 35 -151 71c-5 6 -9 4 -9 -2v-265c0 -5 -3 -8 -8 -8h-90c-5 0 -8 3 -8 8v944c0 5 3 8 8 8h90c5 0 8 -3 8 -8v-284c0 -6 4 -8 9 -2c29 36 83 71 151 71zM308 82c106 0 151 91 151 182s-45 181 -151 181
c-55 0 -104 -30 -132 -78v-208c28 -48 78 -77 132 -77z" />
    <glyph glyph-name="q" unicode="q" horiz-adv-x="603" 
d="M551 527c5 0 8 -3 8 -8v-718c0 -5 -3 -8 -8 -8h-90c-5 0 -8 3 -8 8v265c0 6 -4 8 -9 2c-29 -36 -83 -71 -151 -71c-155 0 -229 134 -229 267s74 266 229 266c68 0 122 -35 151 -71c5 -6 9 -4 9 2v58c0 5 3 8 8 8h90zM321 82c55 0 104 30 132 78v207
c-28 48 -77 78 -132 78c-105 0 -151 -90 -151 -181s46 -182 151 -182z" />
    <glyph glyph-name="r" unicode="r" horiz-adv-x="447" 
d="M407 506c5 -2 6 -6 5 -10l-22 -87c-1 -6 -5 -7 -10 -5c-13 8 -38 21 -77 21c-61 0 -139 -35 -139 -152v-265c0 -5 -3 -8 -8 -8h-90c-5 0 -8 3 -8 8v511c0 5 3 8 8 8h90c5 0 8 -3 8 -8v-64c0 -7 5 -9 10 -3c36 52 89 78 142 78c45 0 78 -16 91 -24z" />
    <glyph glyph-name="racute" unicode="&#x155;" horiz-adv-x="447" 
d="M298 746c2 5 7 7 12 7h81c8 0 11 -6 6 -12l-101 -138c-3 -5 -7 -6 -12 -6h-64c-7 0 -12 5 -8 12zM407 506c5 -2 6 -6 5 -10l-22 -87c-1 -6 -5 -7 -10 -5c-13 8 -38 21 -77 21c-61 0 -139 -35 -139 -152v-265c0 -5 -3 -8 -8 -8h-90c-5 0 -8 3 -8 8v511c0 5 3 8 8 8h90
c5 0 8 -3 8 -8v-64c0 -7 5 -9 10 -3c36 52 89 78 142 78c45 0 78 -16 91 -24z" />
    <glyph glyph-name="rcaron" unicode="&#x159;" horiz-adv-x="447" 
d="M103 673v57c0 7 5 12 12 8l113 -58c4 -2 10 -2 14 0l113 58c7 4 12 -1 12 -8v-57c0 -5 -3 -9 -8 -12l-117 -61c-4 -2 -10 -2 -14 0l-117 61c-5 3 -8 7 -8 12zM407 506c5 -2 6 -6 5 -10l-22 -87c-1 -6 -5 -7 -10 -5c-13 8 -38 21 -77 21c-61 0 -139 -35 -139 -152v-265
c0 -5 -3 -8 -8 -8h-90c-5 0 -8 3 -8 8v511c0 5 3 8 8 8h90c5 0 8 -3 8 -8v-64c0 -7 5 -9 10 -3c36 52 89 78 142 78c45 0 78 -16 91 -24z" />
    <glyph glyph-name="rcommaaccent" unicode="&#x157;" horiz-adv-x="447" 
d="M407 506c5 -2 6 -6 5 -10l-22 -87c-1 -6 -5 -7 -10 -5c-13 8 -38 21 -77 21c-61 0 -139 -35 -139 -152v-265c0 -5 -3 -8 -8 -8h-90c-5 0 -8 3 -8 8v511c0 5 3 8 8 8h90c5 0 8 -3 8 -8v-64c0 -7 5 -9 10 -3c36 52 89 78 142 78c45 0 78 -16 91 -24zM59 -71c1 5 5 9 11 9
h81c8 0 11 -4 9 -11l-75 -213c-2 -6 -7 -8 -12 -8h-61c-7 0 -10 5 -8 11z" />
    <glyph glyph-name="s" unicode="s" horiz-adv-x="529" 
d="M295 -3c-127 0 -241 52 -241 171c0 6 1 10 9 11l82 11c6 2 10 0 10 -7c0 -61 53 -101 134 -101c63 0 100 27 100 68c0 50 -50 63 -149 90c-119 34 -163 82 -163 151c0 79 74 139 191 139c128 0 206 -68 206 -153c0 -6 -2 -8 -9 -9l-82 -12c-7 -1 -10 2 -10 10
c0 53 -39 79 -103 79c-55 0 -88 -27 -88 -58c0 -35 15 -51 111 -78c116 -34 202 -71 202 -167c0 -95 -81 -145 -200 -145z" />
    <glyph glyph-name="sacute" unicode="&#x15b;" horiz-adv-x="529" 
d="M333 748c2 5 7 7 12 7h81c8 0 11 -6 6 -12l-101 -138c-3 -5 -7 -6 -12 -6h-64c-7 0 -12 5 -8 12zM295 -3c-127 0 -241 52 -241 171c0 6 1 10 9 11l82 11c6 2 10 0 10 -7c0 -61 53 -101 134 -101c63 0 100 27 100 68c0 50 -50 63 -149 90c-119 34 -163 82 -163 151
c0 79 74 139 191 139c128 0 206 -68 206 -153c0 -6 -2 -8 -9 -9l-82 -12c-7 -1 -10 2 -10 10c0 53 -39 79 -103 79c-55 0 -88 -27 -88 -58c0 -35 15 -51 111 -78c116 -34 202 -71 202 -167c0 -95 -81 -145 -200 -145z" />
    <glyph glyph-name="scaron" unicode="&#x161;" horiz-adv-x="529" 
d="M138 675v57c0 7 5 12 12 8l113 -58c4 -2 10 -2 14 0l113 58c7 4 12 -1 12 -8v-57c0 -5 -3 -9 -8 -12l-117 -61c-4 -2 -10 -2 -14 0l-117 61c-5 3 -8 7 -8 12zM295 -3c-127 0 -241 52 -241 171c0 6 1 10 9 11l82 11c6 2 10 0 10 -7c0 -61 53 -101 134 -101
c63 0 100 27 100 68c0 50 -50 63 -149 90c-119 34 -163 82 -163 151c0 79 74 139 191 139c128 0 206 -68 206 -153c0 -6 -2 -8 -9 -9l-82 -12c-7 -1 -10 2 -10 10c0 53 -39 79 -103 79c-55 0 -88 -27 -88 -58c0 -35 15 -51 111 -78c116 -34 202 -71 202 -167
c0 -95 -81 -145 -200 -145z" />
    <glyph glyph-name="scedilla" unicode="&#x15f;" horiz-adv-x="529" 
d="M303 -3l-12 -44c-1 -6 1 -9 7 -9c46 2 85 -26 85 -78s-55 -89 -116 -89c-26 0 -58 10 -77 24c-4 2 -5 5 -5 9v30c0 5 4 10 9 7c16 -7 38 -17 63 -17c28 0 55 14 55 41s-23 42 -53 42c-26 0 -41 -6 -51 -11c-7 -3 -10 2 -8 7l33 92c-100 15 -179 67 -179 167
c0 6 1 10 9 11l82 11c6 2 10 0 10 -7c0 -61 53 -101 134 -101c63 0 100 27 100 68c0 50 -50 63 -149 90c-119 34 -163 82 -163 151c0 79 74 139 191 139c128 0 206 -68 206 -153c0 -6 -2 -8 -9 -9l-82 -12c-7 -1 -10 2 -10 10c0 53 -39 79 -103 79c-55 0 -88 -27 -88 -58
c0 -35 15 -51 111 -78c116 -34 202 -71 202 -167c0 -93 -78 -143 -192 -145z" />
    <glyph glyph-name="scommaaccent" unicode="&#x219;" horiz-adv-x="529" 
d="M295 -3c-127 0 -241 52 -241 171c0 6 1 10 9 11l82 11c6 2 10 0 10 -7c0 -61 53 -101 134 -101c63 0 100 27 100 68c0 50 -50 63 -149 90c-119 34 -163 82 -163 151c0 79 74 139 191 139c128 0 206 -68 206 -153c0 -6 -2 -8 -9 -9l-82 -12c-7 -1 -10 2 -10 10
c0 53 -39 79 -103 79c-55 0 -88 -27 -88 -58c0 -35 15 -51 111 -78c116 -34 202 -71 202 -167c0 -95 -81 -145 -200 -145zM223 -62c1 5 5 9 11 9h82c7 0 10 -4 8 -11l-75 -213c-2 -6 -7 -8 -12 -8h-61c-7 0 -10 5 -8 11z" />
    <glyph glyph-name="germandbls" unicode="&#xdf;" horiz-adv-x="666" 
d="M457 378c-5 -2 -5 -5 0 -6c56 -9 145 -69 145 -182c0 -135 -117 -193 -209 -193c-75 0 -133 33 -160 63c-3 5 -4 6 -2 11l31 76c2 4 6 6 10 2c26 -27 63 -50 110 -50c59 0 106 36 106 106c0 86 -75 130 -141 130h-59c-7 0 -11 5 -11 10v59c0 5 4 10 11 10h59
c59 0 90 43 90 96c0 54 -39 104 -108 104c-116 0 -152 -79 -152 -183c0 -97 3 -393 0 -423c0 -6 -5 -8 -11 -8h-87c-6 0 -10 5 -9 11c5 46 0 346 0 452c0 153 96 253 254 253c112 0 227 -69 227 -194c0 -79 -48 -134 -94 -144z" />
    <glyph glyph-name="t" unicode="t" horiz-adv-x="394" 
d="M356 31c1 -5 0 -8 -3 -11c-21 -13 -60 -23 -107 -23c-112 0 -118 94 -118 220v217c0 5 -3 8 -8 8h-54c-5 0 -8 3 -8 8v69c0 5 3 8 8 8h54c5 0 8 3 8 8v112c0 5 2 8 7 9l91 12c5 1 8 -3 8 -8v-125c0 -5 3 -8 8 -8h102c5 0 8 -3 8 -8v-69c0 -5 -3 -8 -8 -8h-102
c-5 0 -8 -3 -8 -8v-217c0 -89 4 -135 54 -135c19 0 32 3 47 8c6 2 9 2 10 -4z" />
    <glyph glyph-name="tbar" unicode="&#x167;" horiz-adv-x="394" 
d="M356 31c1 -5 0 -8 -3 -11c-21 -13 -60 -23 -107 -23c-112 0 -118 94 -118 220v39h-62c-4 0 -7 4 -7 10v45c0 6 3 10 7 10h62v113c0 5 -3 8 -8 8h-54c-5 0 -8 3 -8 8v69c0 5 3 8 8 8h54c5 0 8 3 8 8v112c0 5 2 8 7 9l91 12c5 1 8 -3 8 -8v-125c0 -5 3 -8 8 -8h102
c5 0 8 -3 8 -8v-69c0 -5 -3 -8 -8 -8h-102c-5 0 -8 -3 -8 -8v-113h105c4 0 7 -4 7 -10v-45c0 -6 -3 -10 -7 -10h-105v-39c0 -89 4 -135 54 -135c19 0 32 3 47 8c6 2 9 2 10 -4z" />
    <glyph glyph-name="tcaron" unicode="&#x165;" horiz-adv-x="394" 
d="M335 801c1 5 5 9 11 9h82c7 0 10 -4 8 -11l-75 -214c-2 -6 -7 -8 -12 -8h-61c-7 0 -10 5 -8 11zM356 31c1 -5 0 -8 -3 -11c-21 -13 -60 -23 -107 -23c-112 0 -118 94 -118 220v217c0 5 -3 8 -8 8h-54c-5 0 -8 3 -8 8v69c0 5 3 8 8 8h54c5 0 8 3 8 8v112c0 5 2 8 7 9
l91 12c5 1 8 -3 8 -8v-125c0 -5 3 -8 8 -8h102c5 0 8 -3 8 -8v-69c0 -5 -3 -8 -8 -8h-102c-5 0 -8 -3 -8 -8v-217c0 -89 4 -135 54 -135c19 0 32 3 47 8c6 2 9 2 10 -4z" />
    <glyph glyph-name="uni0163" unicode="&#x163;" horiz-adv-x="394" 
d="M279 -44c46 2 85 -26 85 -78s-55 -89 -116 -89c-26 0 -58 10 -77 24c-4 2 -5 5 -5 9v30c0 5 4 10 9 7c16 -7 38 -17 63 -17c28 0 55 14 55 41s-23 42 -53 42c-26 0 -41 -6 -51 -11c-7 -3 -10 2 -8 7l29 80c-77 19 -82 106 -82 216v217c0 5 -3 8 -8 8h-54c-5 0 -8 3 -8 8
v69c0 5 3 8 8 8h54c5 0 8 3 8 8v112c0 5 2 8 7 9l91 12c5 1 8 -3 8 -8v-125c0 -5 3 -8 8 -8h102c5 0 8 -3 8 -8v-69c0 -5 -3 -8 -8 -8h-102c-5 0 -8 -3 -8 -8v-217c0 -89 4 -135 54 -135c19 0 32 3 47 8c6 2 9 2 10 -4l11 -55c1 -5 0 -8 -3 -11c-16 -9 -41 -17 -72 -21
l-9 -34c-1 -6 1 -9 7 -9z" />
    <glyph glyph-name="uni021B" unicode="&#x21b;" horiz-adv-x="394" 
d="M356 31c1 -5 0 -8 -3 -11c-21 -13 -60 -23 -107 -23c-112 0 -118 94 -118 220v217c0 5 -3 8 -8 8h-54c-5 0 -8 3 -8 8v69c0 5 3 8 8 8h54c5 0 8 3 8 8v112c0 5 2 8 7 9l91 12c5 1 8 -3 8 -8v-125c0 -5 3 -8 8 -8h102c5 0 8 -3 8 -8v-69c0 -5 -3 -8 -8 -8h-102
c-5 0 -8 -3 -8 -8v-217c0 -89 4 -135 54 -135c19 0 32 3 47 8c6 2 9 2 10 -4zM204 -50c1 5 5 9 11 9h82c7 0 10 -4 8 -11l-75 -213c-2 -6 -7 -8 -12 -8h-61c-7 0 -10 5 -8 11z" />
    <glyph glyph-name="u" unicode="u" horiz-adv-x="595" 
d="M555 527c5 0 8 -3 8 -8v-511c0 -5 -3 -8 -8 -8h-90c-5 0 -8 3 -8 8v69c0 7 -5 9 -9 3c-32 -40 -103 -83 -179 -83c-114 0 -205 57 -205 236v286c0 5 3 8 8 8h90c5 0 8 -3 8 -8v-276c0 -112 51 -161 135 -161c67 0 132 48 152 113v324c0 5 3 8 8 8h90z" />
    <glyph glyph-name="uacute" unicode="&#xfa;" horiz-adv-x="595" 
d="M375 746c2 5 7 7 12 7h81c8 0 11 -6 6 -12l-101 -138c-3 -5 -7 -6 -12 -6h-64c-7 0 -12 5 -8 12zM555 527c5 0 8 -3 8 -8v-511c0 -5 -3 -8 -8 -8h-90c-5 0 -8 3 -8 8v69c0 7 -5 9 -9 3c-32 -40 -103 -83 -179 -83c-114 0 -205 57 -205 236v286c0 5 3 8 8 8h90
c5 0 8 -3 8 -8v-276c0 -112 51 -161 135 -161c67 0 132 48 152 113v324c0 5 3 8 8 8h90z" />
    <glyph glyph-name="ucircumflex" unicode="&#xfb;" horiz-adv-x="595" 
d="M180 665c0 5 3 9 8 12l117 61c4 2 10 2 14 0l117 -61c5 -3 8 -7 8 -12v-57c0 -7 -5 -12 -12 -8l-113 58c-4 2 -10 2 -14 0l-113 -58c-7 -4 -12 1 -12 8v57zM555 527c5 0 8 -3 8 -8v-511c0 -5 -3 -8 -8 -8h-90c-5 0 -8 3 -8 8v69c0 7 -5 9 -9 3c-32 -40 -103 -83 -179 -83
c-114 0 -205 57 -205 236v286c0 5 3 8 8 8h90c5 0 8 -3 8 -8v-276c0 -112 51 -161 135 -161c67 0 132 48 152 113v324c0 5 3 8 8 8h90z" />
    <glyph glyph-name="udieresis" unicode="&#xfc;" horiz-adv-x="595" 
d="M226 626c-35 0 -65 30 -65 65c0 36 30 65 65 65c36 0 65 -29 65 -65c0 -35 -29 -65 -65 -65zM406 626c-35 0 -65 30 -65 65c0 36 30 65 65 65c36 0 65 -29 65 -65c0 -35 -29 -65 -65 -65zM555 527c5 0 8 -3 8 -8v-511c0 -5 -3 -8 -8 -8h-90c-5 0 -8 3 -8 8v69
c0 7 -5 9 -9 3c-32 -40 -103 -83 -179 -83c-114 0 -205 57 -205 236v286c0 5 3 8 8 8h90c5 0 8 -3 8 -8v-276c0 -112 51 -161 135 -161c67 0 132 48 152 113v324c0 5 3 8 8 8h90z" />
    <glyph glyph-name="ugrave" unicode="&#xf9;" horiz-adv-x="595" 
d="M259 746l86 -137c4 -7 -1 -12 -8 -12h-64c-5 0 -9 1 -12 6l-101 138c-5 6 -2 12 6 12h81c5 0 10 -2 12 -7zM555 527c5 0 8 -3 8 -8v-511c0 -5 -3 -8 -8 -8h-90c-5 0 -8 3 -8 8v69c0 7 -5 9 -9 3c-32 -40 -103 -83 -179 -83c-114 0 -205 57 -205 236v286c0 5 3 8 8 8h90
c5 0 8 -3 8 -8v-276c0 -112 51 -161 135 -161c67 0 132 48 152 113v324c0 5 3 8 8 8h90z" />
    <glyph glyph-name="uhungarumlaut" unicode="&#x171;" horiz-adv-x="595" 
d="M286 597c-1 -5 -5 -9 -11 -9h-81c-7 0 -10 4 -8 11l74 213c2 6 7 8 12 8h61c7 0 10 -5 8 -11zM443 597c-1 -5 -5 -9 -11 -9h-81c-7 0 -10 4 -8 11l74 213c2 6 7 8 12 8h61c7 0 10 -5 8 -11zM555 527c5 0 8 -3 8 -8v-511c0 -5 -3 -8 -8 -8h-90c-5 0 -8 3 -8 8v69
c0 7 -5 9 -9 3c-32 -40 -103 -83 -179 -83c-114 0 -205 57 -205 236v286c0 5 3 8 8 8h90c5 0 8 -3 8 -8v-276c0 -112 51 -161 135 -161c67 0 132 48 152 113v324c0 5 3 8 8 8h90z" />
    <glyph glyph-name="umacron" unicode="&#x16b;" horiz-adv-x="595" 
d="M172 705c0 5 3 8 8 8h264c5 0 8 -3 8 -8v-61c0 -5 -3 -8 -8 -8h-264c-5 0 -8 3 -8 8v61zM555 527c5 0 8 -3 8 -8v-511c0 -5 -3 -8 -8 -8h-90c-5 0 -8 3 -8 8v69c0 7 -5 9 -9 3c-32 -40 -103 -83 -179 -83c-114 0 -205 57 -205 236v286c0 5 3 8 8 8h90c5 0 8 -3 8 -8v-276
c0 -112 51 -161 135 -161c67 0 132 48 152 113v324c0 5 3 8 8 8h90z" />
    <glyph glyph-name="uogonek" unicode="&#x173;" horiz-adv-x="595" 
d="M561 -142c5 2 9 -2 9 -7v-31c0 -4 -1 -7 -3 -8c-19 -13 -47 -22 -84 -22c-66 0 -120 30 -120 92c0 66 60 103 111 118h-9c-5 0 -8 3 -8 8v69c0 7 -5 9 -9 3c-32 -40 -103 -83 -179 -83c-114 0 -205 57 -205 236v286c0 5 3 8 8 8h90c5 0 8 -3 8 -8v-276
c0 -112 51 -161 135 -161c67 0 132 48 152 113v324c0 5 3 8 8 8h90c5 0 8 -3 8 -8v-511c0 -5 -3 -8 -8 -8h-25c-56 -29 -93 -63 -93 -102c0 -36 30 -53 60 -53s45 7 64 13z" />
    <glyph glyph-name="uring" unicode="&#x16f;" horiz-adv-x="595" 
d="M312 606c-42 0 -75 34 -75 75c0 42 33 75 75 75c41 0 75 -33 75 -75c0 -41 -34 -75 -75 -75zM312 714c-21 0 -33 -17 -33 -33s12 -33 33 -33s33 17 33 33s-12 33 -33 33zM555 527c5 0 8 -3 8 -8v-511c0 -5 -3 -8 -8 -8h-90c-5 0 -8 3 -8 8v69c0 7 -5 9 -9 3
c-32 -40 -103 -83 -179 -83c-114 0 -205 57 -205 236v286c0 5 3 8 8 8h90c5 0 8 -3 8 -8v-276c0 -112 51 -161 135 -161c67 0 132 48 152 113v324c0 5 3 8 8 8h90z" />
    <glyph glyph-name="utilde" unicode="&#x169;" horiz-adv-x="595" 
d="M374 604c-69 0 -90 61 -140 61c-26 0 -48 -18 -60 -42c-2 -4 -5 -5 -10 -4l-37 12c-5 1 -7 5 -5 9c14 37 41 111 112 111c68 0 94 -62 140 -62c27 0 46 13 59 40c3 5 5 7 10 6l38 -12c5 -2 7 -6 5 -11c-9 -31 -35 -108 -112 -108zM555 527c5 0 8 -3 8 -8v-511
c0 -5 -3 -8 -8 -8h-90c-5 0 -8 3 -8 8v69c0 7 -5 9 -9 3c-32 -40 -103 -83 -179 -83c-114 0 -205 57 -205 236v286c0 5 3 8 8 8h90c5 0 8 -3 8 -8v-276c0 -112 51 -161 135 -161c67 0 132 48 152 113v324c0 5 3 8 8 8h90z" />
    <glyph glyph-name="v" unicode="v" horiz-adv-x="647" 
d="M366 6c-2 -4 -6 -6 -10 -6h-54c-4 0 -8 2 -10 6l-237 512c-2 5 0 9 6 9h93c4 0 8 -1 10 -6l160 -367c3 -6 7 -6 10 0l159 367c2 5 6 6 10 6h93c6 0 8 -4 6 -9z" />
    <glyph glyph-name="w" unicode="w" horiz-adv-x="901" 
d="M759 520c1 4 5 7 9 7h93c6 0 7 -4 6 -9l-192 -512c-2 -5 -6 -6 -10 -6h-54c-4 0 -8 1 -10 6l-140 362c-3 7 -7 7 -10 0l-140 -362c-2 -5 -6 -6 -10 -6h-54c-4 0 -8 1 -10 6l-192 512c-2 5 0 9 6 9h93c4 0 7 -3 9 -7l116 -361c3 -8 8 -7 11 0l131 362c1 5 5 6 9 6h72
c4 0 7 -1 9 -6l131 -362c3 -7 8 -8 11 0z" />
    <glyph glyph-name="wacute" unicode="&#x1e83;" horiz-adv-x="901" 
d="M520 746c2 5 7 7 12 7h81c8 0 11 -6 6 -12l-101 -138c-3 -5 -7 -6 -12 -6h-64c-7 0 -12 5 -8 12zM759 520c1 4 5 7 9 7h93c6 0 7 -4 6 -9l-192 -512c-2 -5 -6 -6 -10 -6h-54c-4 0 -8 1 -10 6l-140 362c-3 7 -7 7 -10 0l-140 -362c-2 -5 -6 -6 -10 -6h-54c-4 0 -8 1 -10 6
l-192 512c-2 5 0 9 6 9h93c4 0 7 -3 9 -7l116 -361c3 -8 8 -7 11 0l131 362c1 5 5 6 9 6h72c4 0 7 -1 9 -6l131 -362c3 -7 8 -8 11 0z" />
    <glyph glyph-name="wcircumflex" unicode="&#x175;" horiz-adv-x="901" 
d="M325 665c0 5 3 9 8 12l117 61c4 2 10 2 14 0l117 -61c5 -3 8 -7 8 -12v-57c0 -7 -5 -12 -12 -8l-113 58c-4 2 -10 2 -14 0l-113 -58c-7 -4 -12 1 -12 8v57zM759 520c1 4 5 7 9 7h93c6 0 7 -4 6 -9l-192 -512c-2 -5 -6 -6 -10 -6h-54c-4 0 -8 1 -10 6l-140 362
c-3 7 -7 7 -10 0l-140 -362c-2 -5 -6 -6 -10 -6h-54c-4 0 -8 1 -10 6l-192 512c-2 5 0 9 6 9h93c4 0 7 -3 9 -7l116 -361c3 -8 8 -7 11 0l131 362c1 5 5 6 9 6h72c4 0 7 -1 9 -6l131 -362c3 -7 8 -8 11 0z" />
    <glyph glyph-name="wdieresis" unicode="&#x1e85;" horiz-adv-x="901" 
d="M370 626c-35 0 -65 30 -65 65c0 36 30 65 65 65c36 0 65 -29 65 -65c0 -35 -29 -65 -65 -65zM550 626c-35 0 -65 30 -65 65c0 36 30 65 65 65c36 0 65 -29 65 -65c0 -35 -29 -65 -65 -65zM759 520c1 4 5 7 9 7h93c6 0 7 -4 6 -9l-192 -512c-2 -5 -6 -6 -10 -6h-54
c-4 0 -8 1 -10 6l-140 362c-3 7 -7 7 -10 0l-140 -362c-2 -5 -6 -6 -10 -6h-54c-4 0 -8 1 -10 6l-192 512c-2 5 0 9 6 9h93c4 0 7 -3 9 -7l116 -361c3 -8 8 -7 11 0l131 362c1 5 5 6 9 6h72c4 0 7 -1 9 -6l131 -362c3 -7 8 -8 11 0z" />
    <glyph glyph-name="wgrave" unicode="&#x1e81;" horiz-adv-x="901" 
d="M403 746l86 -137c4 -7 -1 -12 -8 -12h-64c-5 0 -9 1 -12 6l-101 138c-5 6 -2 12 6 12h81c5 0 10 -2 12 -7zM759 520c1 4 5 7 9 7h93c6 0 7 -4 6 -9l-192 -512c-2 -5 -6 -6 -10 -6h-54c-4 0 -8 1 -10 6l-140 362c-3 7 -7 7 -10 0l-140 -362c-2 -5 -6 -6 -10 -6h-54
c-4 0 -8 1 -10 6l-192 512c-2 5 0 9 6 9h93c4 0 7 -3 9 -7l116 -361c3 -8 8 -7 11 0l131 362c1 5 5 6 9 6h72c4 0 7 -1 9 -6l131 -362c3 -7 8 -8 11 0z" />
    <glyph glyph-name="x" unicode="x" horiz-adv-x="643" 
d="M602 527c7 0 8 -5 4 -10l-208 -247c-4 -4 -4 -8 0 -12l208 -248c5 -6 3 -10 -4 -10h-109c-3 0 -8 2 -10 5l-147 185c-4 4 -9 4 -12 0l-147 -185c-3 -3 -5 -5 -10 -5h-106c-7 0 -9 4 -4 10l208 248c3 4 3 8 0 12l-208 247c-4 5 -3 10 4 10h106c5 0 7 -2 10 -5l147 -185
c3 -4 8 -4 12 0l147 185c2 3 7 5 10 5h109z" />
    <glyph glyph-name="y" unicode="y" horiz-adv-x="610" 
d="M475 521c1 4 5 6 9 6h95c6 0 8 -4 6 -9l-214 -541c-44 -110 -87 -187 -186 -187c-40 0 -76 17 -100 46c-3 4 -4 8 -2 11l12 56c2 6 5 7 10 3c18 -14 39 -25 61 -25c56 0 85 48 113 117c2 4 1 7 0 10l-224 510c-2 6 0 9 6 9h95c4 0 8 -2 9 -6l156 -377c3 -7 8 -7 10 0z
" />
    <glyph glyph-name="yacute" unicode="&#xfd;" horiz-adv-x="610" 
d="M382 746c2 5 7 7 12 7h81c8 0 11 -6 6 -12l-101 -138c-3 -5 -7 -6 -12 -6h-64c-7 0 -12 5 -8 12zM475 521c1 4 5 6 9 6h95c6 0 8 -4 6 -9l-214 -541c-44 -110 -87 -187 -186 -187c-40 0 -76 17 -100 46c-3 4 -4 8 -2 11l12 56c2 6 5 7 10 3c18 -14 39 -25 61 -25
c56 0 85 48 113 117c2 4 1 7 0 10l-224 510c-2 6 0 9 6 9h95c4 0 8 -2 9 -6l156 -377c3 -7 8 -7 10 0z" />
    <glyph glyph-name="ycircumflex" unicode="&#x177;" horiz-adv-x="610" 
d="M187 665c0 5 3 9 8 12l117 61c4 2 10 2 14 0l117 -61c5 -3 8 -7 8 -12v-57c0 -7 -5 -12 -12 -8l-113 58c-4 2 -10 2 -14 0l-113 -58c-7 -4 -12 1 -12 8v57zM475 521c1 4 5 6 9 6h95c6 0 8 -4 6 -9l-214 -541c-44 -110 -87 -187 -186 -187c-40 0 -76 17 -100 46
c-3 4 -4 8 -2 11l12 56c2 6 5 7 10 3c18 -14 39 -25 61 -25c56 0 85 48 113 117c2 4 1 7 0 10l-224 510c-2 6 0 9 6 9h95c4 0 8 -2 9 -6l156 -377c3 -7 8 -7 10 0z" />
    <glyph glyph-name="ydieresis" unicode="&#xff;" horiz-adv-x="610" 
d="M232 626c-35 0 -65 30 -65 65c0 36 30 65 65 65c36 0 65 -29 65 -65c0 -35 -29 -65 -65 -65zM412 626c-35 0 -65 30 -65 65c0 36 30 65 65 65c36 0 65 -29 65 -65c0 -35 -29 -65 -65 -65zM475 521c1 4 5 6 9 6h95c6 0 8 -4 6 -9l-214 -541c-44 -110 -87 -187 -186 -187
c-40 0 -76 17 -100 46c-3 4 -4 8 -2 11l12 56c2 6 5 7 10 3c18 -14 39 -25 61 -25c56 0 85 48 113 117c2 4 1 7 0 10l-224 510c-2 6 0 9 6 9h95c4 0 8 -2 9 -6l156 -377c3 -7 8 -7 10 0z" />
    <glyph glyph-name="ygrave" unicode="&#x1ef3;" horiz-adv-x="610" 
d="M265 746l86 -137c4 -7 -1 -12 -8 -12h-64c-5 0 -9 1 -12 6l-101 138c-5 6 -2 12 6 12h81c5 0 10 -2 12 -7zM475 521c1 4 5 6 9 6h95c6 0 8 -4 6 -9l-214 -541c-44 -110 -87 -187 -186 -187c-40 0 -76 17 -100 46c-3 4 -4 8 -2 11l12 56c2 6 5 7 10 3
c18 -14 39 -25 61 -25c56 0 85 48 113 117c2 4 1 7 0 10l-224 510c-2 6 0 9 6 9h95c4 0 8 -2 9 -6l156 -377c3 -7 8 -7 10 0z" />
    <glyph glyph-name="uni1EF9" unicode="&#x1ef9;" horiz-adv-x="610" 
d="M380 604c-69 0 -90 61 -140 61c-26 0 -48 -18 -60 -42c-2 -4 -5 -5 -10 -4l-37 12c-5 1 -7 5 -5 9c14 37 41 111 112 111c68 0 94 -62 140 -62c27 0 46 13 59 40c3 5 5 7 10 6l38 -12c5 -2 7 -6 5 -11c-9 -31 -35 -108 -112 -108zM475 521c1 4 5 6 9 6h95c6 0 8 -4 6 -9
l-214 -541c-44 -110 -87 -187 -186 -187c-40 0 -76 17 -100 46c-3 4 -4 8 -2 11l12 56c2 6 5 7 10 3c18 -14 39 -25 61 -25c56 0 85 48 113 117c2 4 1 7 0 10l-224 510c-2 6 0 9 6 9h95c4 0 8 -2 9 -6l156 -377c3 -7 8 -7 10 0z" />
    <glyph glyph-name="z" unicode="z" horiz-adv-x="532" 
d="M494 468c0 -4 -2 -7 -4 -10l-291 -362c-4 -5 -3 -10 4 -10h283c5 0 8 -3 8 -8v-69c0 -5 -3 -8 -8 -8h-425c-5 0 -8 3 -8 8v50c0 4 2 7 4 10l288 363c3 5 3 10 -4 10h-280c-5 0 -8 3 -8 8v69c0 5 3 8 8 8h425c5 0 8 -3 8 -8v-51z" />
    <glyph glyph-name="zacute" unicode="&#x17a;" horiz-adv-x="532" 
d="M346 746c2 5 7 7 12 7h81c8 0 11 -6 6 -12l-101 -138c-3 -5 -7 -6 -12 -6h-64c-7 0 -12 5 -8 12zM494 468c0 -4 -2 -7 -4 -10l-291 -362c-4 -5 -3 -10 4 -10h283c5 0 8 -3 8 -8v-69c0 -5 -3 -8 -8 -8h-425c-5 0 -8 3 -8 8v50c0 4 2 7 4 10l288 363c3 5 3 10 -4 10h-280
c-5 0 -8 3 -8 8v69c0 5 3 8 8 8h425c5 0 8 -3 8 -8v-51z" />
    <glyph glyph-name="zcaron" unicode="&#x17e;" horiz-adv-x="532" 
d="M151 673v57c0 7 5 12 12 8l113 -58c4 -2 10 -2 14 0l113 58c7 4 12 -1 12 -8v-57c0 -5 -3 -9 -8 -12l-117 -61c-4 -2 -10 -2 -14 0l-117 61c-5 3 -8 7 -8 12zM494 468c0 -4 -2 -7 -4 -10l-291 -362c-4 -5 -3 -10 4 -10h283c5 0 8 -3 8 -8v-69c0 -5 -3 -8 -8 -8h-425
c-5 0 -8 3 -8 8v50c0 4 2 7 4 10l288 363c3 5 3 10 -4 10h-280c-5 0 -8 3 -8 8v69c0 5 3 8 8 8h425c5 0 8 -3 8 -8v-51z" />
    <glyph glyph-name="zdotaccent" unicode="&#x17c;" horiz-adv-x="532" 
d="M284 626c-35 0 -65 30 -65 65c0 36 30 65 65 65c36 0 65 -29 65 -65c0 -35 -29 -65 -65 -65zM494 468c0 -4 -2 -7 -4 -10l-291 -362c-4 -5 -3 -10 4 -10h283c5 0 8 -3 8 -8v-69c0 -5 -3 -8 -8 -8h-425c-5 0 -8 3 -8 8v50c0 4 2 7 4 10l288 363c3 5 3 10 -4 10h-280
c-5 0 -8 3 -8 8v69c0 5 3 8 8 8h425c5 0 8 -3 8 -8v-51z" />
    <glyph glyph-name="zero" unicode="0" horiz-adv-x="742" 
d="M382 716c-208 0 -298 -169 -298 -359s90 -360 298 -360c213 0 296 170 296 360s-83 359 -296 359zM382 614c135 0 182 -112 182 -257s-47 -258 -182 -258c-130 0 -184 113 -184 258s54 257 184 257z" />
    <glyph glyph-name="one" unicode="1" horiz-adv-x="495" 
d="M319 112c0 -6 4 -10 10 -10h102c6 0 10 -4 10 -10v-82c0 -6 -4 -10 -10 -10h-337c-6 0 -10 4 -10 10v82c0 6 4 10 10 10h101c6 0 10 4 10 10v488c0 6 -4 10 -10 10h-95c-6 0 -12 4 -10 10l14 82c2 6 4 10 10 10l195 1c6 0 10 -4 10 -10v-591z" />
    <glyph glyph-name="two" unicode="2" horiz-adv-x="638" 
d="M560 11c-1 -6 -4 -10 -10 -10h-456c-6 0 -10 5 -10 11c-4 377 364 300 364 495c0 61 -45 107 -113 107c-77 0 -126 -60 -129 -137c0 -7 -5 -11 -11 -10l-87 12c-6 1 -9 6 -9 12c10 117 90 225 236 225c137 0 227 -97 227 -209c0 -238 -337 -223 -339 -393
c0 -6 4 -11 10 -11h330c6 0 11 -3 10 -10z" />
    <glyph glyph-name="three" unicode="3" horiz-adv-x="648" 
d="M472 378c-5 -2 -5 -5 0 -6c56 -9 122 -70 122 -166c0 -141 -122 -209 -249 -209c-129 0 -242 69 -261 212c0 6 4 10 9 11l88 11c5 0 9 -1 10 -8c8 -81 71 -124 150 -124c87 0 139 51 139 119c0 73 -58 117 -124 117h-53c-7 0 -11 5 -11 10v59c0 5 4 10 11 10h53
c59 0 95 43 95 96c0 57 -37 104 -109 104c-80 0 -115 -58 -120 -121c-1 -6 -5 -9 -11 -8l-88 11c-6 1 -10 5 -9 11c17 152 116 209 231 209c110 0 219 -69 219 -194c0 -79 -46 -134 -92 -144z" />
    <glyph glyph-name="four" unicode="4" horiz-adv-x="742" 
d="M560 270c0 -6 4 -10 10 -10h88c6 0 11 -4 10 -10l-13 -82c-1 -7 -4 -10 -10 -10h-75c-6 0 -10 -4 -10 -10v-138c0 -6 -4 -10 -10 -10h-88c-6 0 -10 4 -10 10v138c0 6 -4 10 -10 10h-338c-6 0 -10 4 -10 10v85c0 5 1 9 4 13l349 441c4 5 8 6 13 6h90c6 0 10 -4 10 -10
v-433zM442 260c6 0 10 4 10 10v259c0 9 -6 12 -12 4l-204 -261c-6 -8 -2 -12 6 -12h200z" />
    <glyph glyph-name="five" unicode="5" horiz-adv-x="630" 
d="M518 621c-1 -6 -4 -10 -10 -10h-273c-6 0 -10 -3 -11 -10l-23 -180c-1 -9 2 -10 9 -3c23 22 68 67 148 67c131 0 217 -110 217 -235c0 -144 -103 -253 -253 -253c-119 0 -215 61 -247 187c-2 7 2 10 9 11l87 11c6 1 9 0 12 -7c11 -38 55 -100 138 -100
c81 0 141 61 141 148c0 75 -42 142 -127 142c-69 0 -112 -49 -135 -89c-4 -6 -8 -6 -13 -6l-92 5c-6 0 -10 4 -9 11l50 393c1 7 5 10 11 10h374c6 0 11 -4 10 -10z" />
    <glyph glyph-name="six" unicode="6" horiz-adv-x="676" 
d="M354 -3c-142 0 -270 92 -270 323c0 259 107 396 282 396c127 0 209 -78 231 -186c1 -6 3 -9 -2 -10l-92 -12c-6 -1 -7 0 -11 9c-17 56 -59 97 -128 97c-83 0 -159 -63 -166 -220c0 -9 3 -10 6 -3c17 39 86 94 177 94c143 0 237 -117 237 -243s-93 -245 -264 -245z
M363 383c-84 0 -159 -58 -159 -138c0 -85 65 -146 153 -146c82 0 153 54 153 143c0 82 -66 141 -147 141z" />
    <glyph glyph-name="seven" unicode="7" horiz-adv-x="680" 
d="M605 713c6 0 10 -4 10 -10v-69c0 -5 -2 -8 -6 -12c-207 -164 -274 -371 -276 -612c0 -6 -4 -10 -10 -10h-93c-6 0 -10 4 -10 10c1 168 40 415 231 589c6 6 2 12 -6 12h-361c-6 0 -10 4 -10 10v82c0 6 4 10 10 10h521z" />
    <glyph glyph-name="eight" unicode="8" horiz-adv-x="627" 
d="M324 -3c-135 0 -258 77 -258 214c0 98 61 166 150 189c-79 27 -107 91 -107 139c0 110 94 177 215 177c125 0 214 -67 214 -177c0 -48 -30 -112 -104 -139c84 -23 147 -91 147 -189c0 -137 -115 -214 -257 -214zM223 533c0 -36 30 -80 101 -80s100 44 100 80
c0 57 -50 87 -100 87c-51 0 -101 -30 -101 -87zM180 215c0 -79 70 -116 144 -116c77 0 143 37 143 116c0 67 -58 119 -143 119c-86 0 -144 -52 -144 -119z" />
    <glyph glyph-name="nine" unicode="9" horiz-adv-x="662" 
d="M352 716c142 0 270 -91 270 -323c0 -259 -107 -396 -282 -396c-127 0 -209 78 -231 186c-1 6 -3 9 2 10l91 12c7 1 8 0 11 -9c18 -56 60 -97 128 -97c84 0 159 63 167 220c0 9 -3 10 -6 3c-17 -39 -86 -94 -177 -94c-143 0 -237 117 -237 243s93 245 264 245zM343 330
c83 0 159 58 159 138c0 85 -65 146 -153 146c-83 0 -153 -54 -153 -143c0 -82 66 -141 147 -141z" />
    <glyph glyph-name="fraction" unicode="&#x2044;" horiz-adv-x="589" 
d="M156 -40c5 0 9 2 11 7l365 774c3 7 0 12 -7 12h-72c-5 0 -9 -2 -11 -7l-365 -774c-3 -7 0 -12 7 -12h72z" />
    <glyph glyph-name="asterisk" unicode="*" horiz-adv-x="502" 
d="M344 386c-4 -3 -9 -3 -12 2l-64 98c-3 5 -9 5 -12 0l-65 -98c-3 -6 -8 -7 -12 -3l-52 38c-4 3 -5 8 -1 13l75 91c4 5 2 9 -3 10l-116 34c-6 2 -9 6 -7 12l20 59c2 7 6 9 12 6l111 -45c6 -2 10 1 10 7l-7 121c-1 5 3 9 9 9h63c5 0 9 -4 9 -9l-6 -121c-1 -6 3 -10 9 -7
l110 45c6 2 11 0 12 -6l20 -59c2 -7 -1 -10 -6 -12l-115 -33c-6 -2 -8 -6 -3 -11l75 -91c3 -4 2 -9 -2 -12z" />
    <glyph glyph-name="backslash" unicode="\" horiz-adv-x="538" 
d="M406 -40c-5 0 -9 2 -11 7l-365 774c-3 7 0 12 7 12h105c5 0 9 -2 11 -7l365 -774c3 -7 0 -12 -7 -12h-105z" />
    <glyph glyph-name="periodcentered" unicode="&#xb7;" horiz-adv-x="420" 
d="M239 249c-35 0 -65 30 -65 65c0 36 30 65 65 65c36 0 65 -29 65 -65c0 -35 -29 -65 -65 -65z" />
    <glyph glyph-name="bullet" unicode="&#x2022;" horiz-adv-x="483" 
d="M271 217c-53 0 -97 44 -97 97s44 97 97 97s97 -44 97 -97s-44 -97 -97 -97z" />
    <glyph glyph-name="colon" unicode=":" horiz-adv-x="288" 
d="M144 336c36 0 65 30 65 65c0 36 -29 65 -65 65c-35 0 -65 -29 -65 -65c0 -35 30 -65 65 -65zM144 7c-35 0 -65 30 -65 65c0 36 30 65 65 65c36 0 65 -29 65 -65c0 -35 -29 -65 -65 -65z" />
    <glyph glyph-name="comma" unicode="," horiz-adv-x="280" 
d="M114 113c1 5 5 9 11 9h82c7 0 10 -4 8 -11l-75 -214c-2 -6 -7 -8 -12 -8h-61c-7 0 -10 5 -8 11z" />
    <glyph glyph-name="ellipsis" unicode="&#x2026;" horiz-adv-x="733" 
d="M139 -3c-35 0 -65 30 -65 65c0 36 30 65 65 65c36 0 65 -29 65 -65c0 -35 -29 -65 -65 -65zM346 -3c-35 0 -65 30 -65 65c0 36 30 65 65 65c36 0 65 -29 65 -65c0 -35 -29 -65 -65 -65zM553 -3c-36 0 -65 30 -65 65c0 36 29 65 65 65c35 0 65 -29 65 -65
c0 -35 -30 -65 -65 -65z" />
    <glyph glyph-name="exclam" unicode="!" horiz-adv-x="256" 
d="M94 753c-6 0 -10 -4 -10 -10l10 -501c0 -7 4 -10 10 -10h74c6 0 10 3 10 10l10 501c0 6 -4 10 -10 10h-94zM142 -3c-35 0 -65 30 -65 65c0 36 30 65 65 65c36 0 65 -29 65 -65c0 -35 -29 -65 -65 -65z" />
    <glyph glyph-name="exclamdown" unicode="&#xa1;" horiz-adv-x="362" 
d="M193 549c36 0 65 -30 65 -65c0 -36 -29 -65 -65 -65c-35 0 -65 29 -65 65c0 35 30 65 65 65zM145 -207h94c6 0 10 4 10 10l-10 501c0 7 -4 10 -10 10h-74c-6 0 -10 -3 -10 -10l-10 -501c0 -6 4 -10 10 -10z" />
    <glyph glyph-name="numbersign" unicode="#" horiz-adv-x="847" 
d="M793 463c0 -6 -4 -10 -10 -10h-88c-6 0 -9 -2 -10 -9l-22 -195c-1 -6 4 -11 10 -11h75c6 0 10 -4 10 -10v-82c0 -6 -4 -10 -10 -10h-89c-6 0 -9 -2 -10 -9l-13 -118c-1 -7 -4 -9 -10 -9h-94c-6 0 -11 5 -10 11l13 114c1 6 -4 11 -10 11h-216c-6 0 -9 -2 -10 -9l-13 -118
c-1 -7 -4 -9 -10 -9h-94c-6 0 -11 5 -10 11l13 114c1 6 -4 11 -10 11h-81c-6 0 -10 4 -10 10v82c0 6 4 10 10 10h94c6 0 9 2 10 9l22 195c1 6 -4 11 -10 11h-80c-6 0 -10 4 -10 10v82c0 6 4 10 10 10h93c6 0 9 2 10 9l17 140c1 7 4 9 10 9h94c6 0 11 -5 10 -11l-17 -136
c-1 -6 4 -11 10 -11h216c6 0 9 2 10 9l17 140c1 7 4 9 10 9h94c6 0 11 -5 10 -11l-16 -136c-1 -6 4 -11 10 -11h75c6 0 10 -4 10 -10v-82zM538 238c6 0 9 2 10 9l23 195c1 6 -4 11 -10 11h-216c-6 0 -9 -2 -10 -9l-22 -195c-1 -6 4 -11 10 -11h215z" />
    <glyph glyph-name="period" unicode="." horiz-adv-x="284" 
d="M114 -3c-35 0 -65 30 -65 65c0 36 30 65 65 65c36 0 65 -29 65 -65c0 -35 -29 -65 -65 -65z" />
    <glyph glyph-name="question" unicode="?" horiz-adv-x="571" 
d="M227 232c-6 0 -10 4 -10 10c-18 218 190 192 190 314c0 53 -34 98 -102 98c-84 0 -114 -67 -122 -101c-1 -6 -8 -8 -13 -7l-93 11c-6 1 -9 5 -8 11c23 104 110 188 239 188c135 0 213 -84 213 -194c0 -185 -220 -139 -202 -320c1 -6 -4 -10 -10 -10h-82zM268 -3
c-35 0 -65 30 -65 65c0 36 30 65 65 65c36 0 65 -29 65 -65c0 -35 -29 -65 -65 -65z" />
    <glyph glyph-name="questiondown" unicode="&#xbf;" horiz-adv-x="555" 
d="M323 549c35 0 65 -30 65 -65c0 -36 -30 -65 -65 -65c-36 0 -65 29 -65 65c0 35 29 65 65 65zM364 314c6 0 10 -4 10 -10c18 -218 -190 -192 -190 -314c0 -53 34 -98 102 -98c84 0 114 67 122 101c1 6 8 8 13 7l93 -11c6 -1 9 -5 8 -11c-23 -104 -110 -188 -239 -188
c-135 0 -213 84 -213 194c0 185 220 139 202 320c-1 6 4 10 10 10h82z" />
    <glyph glyph-name="quotedbl" unicode="&#x22;" horiz-adv-x="396" 
d="M58 743c0 6 4 10 10 10h82c6 0 10 -4 10 -10l-8 -219c0 -6 -4 -10 -10 -10h-66c-6 0 -10 4 -10 10zM224 743c0 6 4 10 10 10h82c6 0 10 -4 10 -10l-8 -219c0 -6 -4 -10 -10 -10h-66c-6 0 -10 4 -10 10z" />
    <glyph glyph-name="quotesingle" unicode="'" horiz-adv-x="230" 
d="M64 743c0 6 4 10 10 10h82c6 0 10 -4 10 -10l-8 -219c0 -6 -4 -10 -10 -10h-66c-6 0 -10 4 -10 10z" />
    <glyph glyph-name="semicolon" unicode=";" horiz-adv-x="300" 
d="M181 338c-35 0 -65 29 -65 65c0 35 30 65 65 65c36 0 65 -30 65 -65c0 -36 -29 -65 -65 -65zM114 113c1 5 5 9 11 9h82c7 0 10 -4 8 -11l-75 -214c-2 -6 -7 -8 -12 -8h-61c-7 0 -10 5 -8 11z" />
    <glyph glyph-name="slash" unicode="/" horiz-adv-x="518" 
d="M137 -40c5 0 9 2 11 7l365 774c3 7 0 12 -7 12h-105c-5 0 -9 -2 -11 -7l-365 -774c-3 -7 0 -12 7 -12h105z" />
    <glyph glyph-name="underscore" unicode="_" horiz-adv-x="928" 
d="M874 -132c0 -6 -4 -10 -10 -10h-780c-6 0 -10 4 -10 10v64c0 6 4 10 10 10h780c6 0 10 -4 10 -10v-64z" />
    <glyph glyph-name="braceleft" unicode="{" horiz-adv-x="403" 
d="M358 -179c1 -5 -1 -10 -8 -10c-144 0 -223 14 -223 171c0 104 27 233 -54 242c-6 0 -9 4 -9 10v65c0 5 3 9 9 9c81 9 54 138 54 242c0 157 79 201 223 203c7 0 10 -5 9 -10l-13 -84c-1 -6 -4 -8 -10 -8c-128 -3 -95 -78 -95 -255c0 -48 -16 -115 -67 -130
c-6 -2 -6 -10 0 -13c51 -18 67 -90 67 -138c0 -176 -33 -206 95 -208c6 0 9 -2 10 -8z" />
    <glyph glyph-name="braceright" unicode="}" horiz-adv-x="397" 
d="M65 -179l12 78c1 6 4 8 10 8c128 2 95 32 95 208c0 48 15 120 67 138c6 3 6 11 0 13c-52 15 -67 82 -67 130c0 177 33 252 -95 255c-6 0 -9 2 -10 8l-13 84c-1 5 2 10 9 10c144 -2 223 -46 223 -203c0 -104 -27 -233 54 -242c6 0 9 -4 9 -9v-65c0 -6 -3 -10 -9 -10
c-81 -9 -54 -138 -54 -242c0 -157 -79 -171 -223 -171c-7 0 -9 5 -8 10z" />
    <glyph glyph-name="bracketleft" unicode="[" horiz-adv-x="325" 
d="M281 681c0 -6 -4 -10 -10 -10h-83c-6 0 -10 -4 -10 -10v-756c0 -6 4 -10 10 -10h83c6 0 10 -4 10 -10v-82c0 -6 -4 -10 -10 -10h-197c-6 0 -10 4 -10 10v961c0 6 4 10 10 10l197 -1c6 0 10 -4 10 -10v-82z" />
    <glyph glyph-name="bracketright" unicode="]" horiz-adv-x="325" 
d="M64 681v82c0 6 4 10 10 10l197 1c6 0 10 -4 10 -10v-961c0 -6 -4 -10 -10 -10h-197c-6 0 -10 4 -10 10v82c0 6 4 10 10 10h83c6 0 10 4 10 10v756c0 6 -4 10 -10 10h-83c-6 0 -10 4 -10 10z" />
    <glyph glyph-name="parenleft" unicode="(" horiz-adv-x="366" 
d="M320 -177c6 -7 2 -12 -6 -12h-63c-4 0 -9 1 -13 3c-70 54 -174 230 -174 466c0 235 104 415 174 470c4 2 9 3 13 3h63c8 0 11 -5 6 -12c-69 -82 -142 -242 -142 -461c0 -220 73 -376 142 -457z" />
    <glyph glyph-name="parenright" unicode=")" horiz-adv-x="361" 
d="M67 -177c69 81 141 237 141 457c0 219 -72 379 -141 461c-6 7 -2 12 6 12h62c4 0 10 -1 13 -3c71 -55 174 -235 174 -470c0 -236 -103 -412 -174 -466c-3 -2 -9 -3 -13 -3h-62c-8 0 -12 5 -6 12z" />
    <glyph glyph-name="emdash" unicode="&#x2014;" horiz-adv-x="998" 
d="M904 260c0 -6 -4 -10 -10 -10h-780c-6 0 -10 4 -10 10v83c0 6 4 10 10 10h780c6 0 10 -4 10 -10v-83z" />
    <glyph glyph-name="endash" unicode="&#x2013;" horiz-adv-x="848" 
d="M754 260c0 -6 -4 -10 -10 -10h-630c-6 0 -10 4 -10 10v83c0 6 4 10 10 10h630c6 0 10 -4 10 -10v-83z" />
    <glyph glyph-name="hyphen" unicode="-" horiz-adv-x="628" 
d="M564 278c0 -6 -4 -10 -10 -10h-430c-6 0 -10 4 -10 10v82c0 6 4 10 10 10h430c6 0 10 -4 10 -10v-82z" />
    <glyph glyph-name="guillemotleft" unicode="&#xab;" horiz-adv-x="506" 
d="M156 465c3 5 7 7 12 7h94c8 0 11 -5 7 -12l-98 -163c-2 -4 -2 -10 0 -14l99 -167c4 -7 -1 -12 -8 -12h-94c-5 0 -9 2 -12 7l-96 172c-2 4 -2 10 0 14zM331 465c3 5 7 7 12 7h94c8 0 11 -5 7 -12l-99 -163c-2 -4 -2 -10 0 -14l100 -167c4 -7 -1 -12 -8 -12h-94
c-5 0 -9 2 -12 7l-96 172c-2 4 -2 10 0 14z" />
    <glyph glyph-name="guillemotright" unicode="&#xbb;" horiz-adv-x="500" 
d="M185 465l96 -168c2 -4 2 -10 0 -14l-96 -172c-3 -5 -7 -7 -12 -7h-94c-7 0 -12 5 -8 12l100 167c2 4 2 10 0 14l-99 163c-4 7 -1 12 7 12h94c5 0 9 -2 12 -7zM360 465l96 -168c2 -4 2 -10 0 -14l-96 -172c-3 -5 -7 -7 -12 -7h-94c-7 0 -12 5 -8 12l99 167c2 4 2 10 0 14
l-98 163c-4 7 -1 12 7 12h94c5 0 9 -2 12 -7z" />
    <glyph glyph-name="guilsinglleft" unicode="&#x2039;" horiz-adv-x="331" 
d="M162 465c3 5 7 7 12 7h94c8 0 11 -5 7 -12l-98 -163c-2 -4 -2 -10 0 -14l99 -167c4 -7 -1 -12 -8 -12h-94c-5 0 -9 2 -12 7l-96 172c-2 4 -2 10 0 14z" />
    <glyph glyph-name="guilsinglright" unicode="&#x203a;" horiz-adv-x="321" 
d="M175 465l96 -168c2 -4 2 -10 0 -14l-96 -172c-3 -5 -7 -7 -12 -7h-94c-7 0 -12 5 -8 12l100 167c2 4 2 10 0 14l-99 163c-4 7 -1 12 7 12h94c5 0 9 -2 12 -7z" />
    <glyph glyph-name="quotedblbase" unicode="&#x201e;" horiz-adv-x="447" 
d="M269 113c1 4 5 9 11 9h82c7 0 10 -5 8 -11l-74 -214c-2 -6 -7 -8 -12 -8h-61c-7 0 -10 5 -8 11zM114 113c1 5 5 9 11 9h82c7 0 10 -4 8 -11l-75 -214c-2 -6 -7 -8 -12 -8h-61c-7 0 -10 5 -8 11z" />
    <glyph glyph-name="quotedblleft" unicode="&#x201c;" horiz-adv-x="416" 
d="M166 531c-1 -5 -5 -9 -11 -9h-81c-7 0 -10 4 -8 11l74 213c2 6 7 8 12 8h61c7 0 10 -5 8 -11zM322 531c-1 -5 -5 -9 -11 -9h-81c-7 0 -10 4 -8 11l74 213c2 6 7 8 12 8h61c7 0 10 -5 8 -11z" />
    <glyph glyph-name="quotedblright" unicode="&#x201d;" horiz-adv-x="438" 
d="M120 745c1 5 5 9 11 9h81c8 0 11 -4 9 -11l-75 -214c-2 -6 -7 -8 -12 -8h-61c-7 0 -10 5 -8 11zM276 745c1 5 5 9 11 9h82c7 0 10 -4 8 -11l-75 -214c-2 -6 -7 -8 -12 -8h-61c-7 0 -10 5 -8 11z" />
    <glyph glyph-name="quoteleft" unicode="&#x2018;" horiz-adv-x="260" 
d="M166 530c-1 -5 -5 -9 -11 -9h-81c-7 0 -10 4 -8 11l74 213c2 6 7 8 12 8h61c7 0 10 -5 8 -11z" />
    <glyph glyph-name="quoteright" unicode="&#x2019;" horiz-adv-x="287" 
d="M119 744c1 5 5 9 11 9h82c7 0 10 -4 8 -11l-74 -213c-2 -6 -7 -8 -12 -8h-61c-7 0 -10 5 -8 11z" />
    <glyph glyph-name="quotesinglbase" unicode="&#x201a;" horiz-adv-x="291" 
d="M114 113c1 5 5 9 11 9h82c7 0 10 -4 8 -11l-75 -214c-2 -6 -7 -8 -12 -8h-61c-7 0 -10 5 -8 11z" />
    <glyph glyph-name="space" unicode=" " horiz-adv-x="390" 
 />
    <glyph glyph-name="cent" unicode="&#xa2;" horiz-adv-x="534" 
d="M515 146c4 -1 4 -7 3 -11c-14 -48 -70 -118 -173 -135v-90c0 -6 -4 -10 -10 -10h-47c-6 0 -10 4 -10 10v88c-141 11 -235 125 -235 266s94 254 235 265v88c0 6 4 10 10 10h47c6 0 10 -4 10 -10v-90c103 -16 159 -86 173 -135c1 -4 1 -10 -3 -12l-84 -12
c-6 -2 -10 0 -11 4c-13 31 -49 73 -118 73c-99 0 -154 -82 -154 -181s55 -182 154 -182c69 0 105 44 118 72c3 6 5 6 11 5z" />
    <glyph glyph-name="currency" unicode="&#xa4;" horiz-adv-x="655" 
d="M552 207l56 -57c6 -6 4 -10 0 -13l-33 -34c-5 -4 -9 -5 -14 0l-56 57c-3 2 -5 4 -7 4c-46 -36 -105 -58 -175 -58c-61 0 -114 17 -157 46l-49 -47c-6 -6 -10 -4 -14 -1l-33 34c-4 5 -5 9 0 14l45 44c-41 47 -64 109 -64 177s23 130 64 177l-45 45c-4 4 -4 10 0 14l33 33
c4 5 10 4 14 0l49 -48c43 28 96 45 157 45c70 0 131 -22 177 -59l3 3l59 59c5 5 11 4 14 0l33 -34c6 -4 4 -10 0 -14l-57 -57c-2 -2 -4 -6 -3 -9c30 -44 47 -97 47 -155c0 -57 -17 -110 -46 -154c-2 -5 -2 -8 2 -12zM323 191c106 0 167 82 167 182s-61 181 -167 181
c-105 0 -166 -81 -166 -181s61 -182 166 -182z" />
    <glyph glyph-name="dollar" unicode="$" horiz-adv-x="685" 
d="M604 189c0 -106 -86 -181 -219 -191v-88c0 -6 -4 -10 -10 -10h-47c-6 0 -10 4 -10 10v88c-128 11 -240 73 -240 220c0 7 1 11 11 13l86 12c8 1 14 0 14 -9c0 -89 70 -135 166 -135c84 0 136 40 136 96c0 71 -74 93 -204 136c-122 41 -185 100 -185 205
c0 106 86 170 200 179v88c0 6 4 10 10 10h47c6 0 10 -4 10 -10v-89c115 -14 198 -86 198 -196c0 -7 -2 -9 -9 -11l-88 -12c-7 -1 -11 2 -11 11c-1 70 -59 108 -134 108c-62 0 -109 -32 -109 -80c0 -55 45 -83 161 -119c170 -51 227 -121 227 -226z" />
    <glyph glyph-name="Euro" unicode="&#x20ac;" horiz-adv-x="888" 
d="M822 207c7 -1 6 -8 5 -13c-28 -105 -147 -197 -290 -197c-158 0 -273 94 -321 222h-132c-6 0 -10 3 -10 8v63c0 4 4 7 10 7h112c-2 12 -4 25 -4 38h-108c-6 0 -10 3 -10 7v63c0 5 4 8 10 8h111c23 168 151 303 342 303c143 0 261 -91 290 -196c1 -5 3 -12 -5 -13l-87 -12
c-6 -1 -12 -2 -15 5c-16 41 -80 114 -187 114c-115 0 -203 -78 -224 -201h205c6 0 10 -3 10 -8v-63c0 -4 -4 -7 -10 -7h-208c1 -13 2 -26 4 -38h204c6 0 10 -3 10 -7v-63c0 -5 -4 -8 -10 -8h-177c38 -75 110 -120 196 -120c107 0 171 74 187 115c3 7 10 6 15 5z" />
    <glyph glyph-name="sterling" unicode="&#xa3;" horiz-adv-x="623" 
d="M567 102c7 0 9 -4 9 -11l-10 -82c-1 -6 -5 -9 -11 -9h-466c-6 0 -10 4 -10 10v86c0 6 3 8 10 11c51 19 106 49 106 142c0 15 -2 29 -5 42h-104c-5 0 -8 4 -8 8v63c0 5 3 8 8 8h61c-26 37 -53 78 -53 149c0 114 102 197 231 197c139 0 223 -95 250 -198c1 -6 -2 -9 -8 -11
l-88 -13c-6 -1 -10 2 -12 8c-9 35 -45 112 -136 112c-72 0 -123 -49 -123 -114c0 -58 32 -91 60 -130h151c5 0 8 -3 8 -8v-63c0 -4 -3 -8 -8 -8h-114c3 -11 4 -24 4 -37c0 -85 -50 -117 -85 -141c-7 -5 -5 -11 4 -11h339z" />
    <glyph glyph-name="yen" unicode="&#xa5;" horiz-adv-x="766" 
d="M696 713c8 0 11 -6 6 -12l-260 -367h128c5 0 9 -3 9 -8v-63c0 -5 -4 -8 -9 -8h-136v-35h136c5 0 9 -3 9 -7v-63c0 -5 -4 -8 -9 -8h-136v-132c0 -7 -4 -10 -10 -10h-94c-6 0 -10 4 -10 10v132h-136c-5 0 -9 3 -9 8v63c0 4 4 7 9 7h136v35h-136c-5 0 -9 3 -9 8v63
c0 5 4 8 9 8h128l-262 367c-4 6 -2 12 6 12h106c5 0 9 -1 12 -6l196 -275c4 -6 10 -6 14 0l195 275c4 5 7 6 12 6h105z" />
    <glyph glyph-name="approxequal" unicode="&#x2248;" horiz-adv-x="534" 
d="M341 271c-69 0 -90 61 -140 61c-26 0 -48 -18 -60 -42c-2 -4 -5 -5 -10 -4l-37 12c-5 1 -7 5 -5 9c14 37 41 111 112 111c68 0 94 -62 140 -62c27 0 46 13 60 40c2 5 4 7 9 6l38 -12c5 -2 7 -6 5 -11c-9 -31 -35 -108 -112 -108zM341 104c-69 0 -90 61 -140 61
c-26 0 -48 -17 -60 -41c-2 -4 -5 -6 -10 -5l-37 12c-5 2 -7 5 -5 9c14 37 41 111 112 111c68 0 94 -61 140 -61c27 0 46 12 60 39c2 5 4 7 9 6l38 -12c5 -1 7 -5 5 -11c-9 -31 -35 -108 -112 -108z" />
    <glyph glyph-name="asciitilde" unicode="~" horiz-adv-x="524" 
d="M347 243c-69 0 -90 61 -140 61c-26 0 -48 -18 -60 -42c-2 -4 -5 -5 -10 -4l-37 12c-5 1 -7 5 -5 9c14 37 41 111 112 111c68 0 94 -62 140 -62c27 0 46 13 59 40c3 5 5 7 10 6l38 -12c5 -2 7 -6 5 -11c-9 -31 -35 -108 -112 -108z" />
    <glyph glyph-name="divide" unicode="&#xf7;" horiz-adv-x="634" 
d="M330 476c-39 0 -71 32 -71 70c0 39 32 70 71 70c38 0 70 -31 70 -70c0 -38 -32 -70 -70 -70zM553 301c0 -6 -4 -10 -10 -10h-430c-6 0 -10 4 -10 10v82c0 6 4 10 10 10h430c6 0 10 -4 10 -10v-82zM330 73c-39 0 -71 33 -71 71c0 39 32 70 71 70c38 0 70 -31 70 -70
c0 -38 -32 -71 -70 -71z" />
    <glyph glyph-name="equal" unicode="=" horiz-adv-x="704" 
d="M604 432c0 -6 -4 -10 -10 -10h-430c-6 0 -10 4 -10 10v82c0 6 4 10 10 10h430c6 0 10 -4 10 -10v-82zM604 191c0 -6 -4 -10 -10 -10h-430c-6 0 -10 4 -10 10v82c0 6 4 10 10 10h430c6 0 10 -4 10 -10v-82z" />
    <glyph glyph-name="greater" unicode="&#x3e;" horiz-adv-x="534" 
d="M485 388c4 -2 5 -6 5 -10v-65c0 -4 -1 -8 -5 -10l-383 -231c-4 -3 -8 0 -8 6v87c0 4 1 8 6 10l272 165c5 3 5 7 0 10l-272 165c-5 2 -6 6 -6 10v87c0 6 4 9 8 6z" />
    <glyph glyph-name="less" unicode="&#x3c;" horiz-adv-x="508" 
d="M70 388l382 230c5 3 8 0 8 -6v-87c0 -4 -1 -8 -5 -10l-273 -165c-5 -3 -5 -7 0 -10l273 -165c4 -2 5 -6 5 -10v-87c0 -6 -3 -9 -8 -6l-382 231c-4 2 -6 6 -6 10v65c0 4 2 8 6 10z" />
    <glyph glyph-name="logicalnot" unicode="&#xac;" horiz-adv-x="621" 
d="M546 423c6 0 10 -4 10 -10v-251c0 -6 -4 -10 -10 -10h-93c-6 0 -10 4 -10 10v148c0 6 -4 10 -10 10h-329c-6 0 -10 4 -10 10v83c0 6 4 10 10 10h442z" />
    <glyph glyph-name="minus" unicode="&#x2212;" horiz-adv-x="614" 
d="M544 310c0 -6 -4 -10 -10 -10h-430c-6 0 -10 4 -10 10v82c0 6 4 10 10 10h430c6 0 10 -4 10 -10v-82z" />
    <glyph glyph-name="multiply" unicode="&#xd7;" horiz-adv-x="546" 
d="M473 222c5 -5 5 -10 0 -15l-58 -58c-4 -4 -10 -4 -14 0l-100 101c-4 4 -10 4 -14 0l-105 -105c-4 -4 -9 -4 -14 0l-66 67c-4 4 -4 9 0 14l104 104c5 4 5 10 0 14l-100 101c-5 4 -5 10 0 14l58 58c4 4 10 4 14 0l101 -101c4 -4 9 -4 14 0l105 105c4 4 9 4 14 0l66 -66
c4 -4 4 -10 0 -14l-105 -105c-4 -4 -4 -10 0 -14z" />
    <glyph glyph-name="notequal" unicode="&#x2260;" horiz-adv-x="722" 
d="M612 422h-141l-65 -139h206c6 0 10 -4 10 -10v-82c0 -6 -4 -10 -10 -10h-254l-81 -174c-2 -5 -6 -7 -11 -7h-58c-7 0 -10 5 -7 12l79 169h-98c-6 0 -10 4 -10 10v82c0 6 4 10 10 10h146l65 139h-211c-6 0 -10 4 -10 10v82c0 6 4 10 10 10h258l86 182c2 5 6 7 11 7h57
c7 0 10 -5 7 -12l-82 -177h93c6 0 10 -4 10 -10v-82c0 -6 -4 -10 -10 -10z" />
    <glyph glyph-name="percent" unicode="%" horiz-adv-x="1234" 
d="M492 -40c5 0 9 2 11 7l365 774c3 7 0 12 -7 12h-73c-5 0 -9 -2 -11 -7l-365 -774c-3 -7 0 -12 7 -12h73zM331 305c-130 0 -218 104 -218 217c0 114 88 217 218 217s217 -103 217 -217c0 -113 -87 -217 -217 -217zM331 639c-61 0 -106 -47 -106 -117
c0 -69 45 -117 106 -117s106 48 106 117c0 70 -45 117 -106 117zM970 -3c-130 0 -217 104 -217 218s87 217 217 217c131 0 218 -103 218 -217s-87 -218 -218 -218zM970 332c-61 0 -105 -48 -105 -117s44 -118 105 -118s106 49 106 118s-45 117 -106 117z" />
    <glyph glyph-name="perthousand" unicode="&#x2030;" horiz-adv-x="1721" 
d="M473 -40c5 0 9 2 11 7l365 774c3 7 0 12 -7 12h-73c-5 0 -9 -2 -11 -7l-365 -774c-3 -7 0 -12 7 -12h73zM312 305c-130 0 -218 104 -218 217c0 114 88 217 218 217s217 -103 217 -217c0 -113 -87 -217 -217 -217zM312 639c-61 0 -106 -47 -106 -117
c0 -69 45 -117 106 -117s105 48 105 117c0 70 -44 117 -105 117zM951 -3c-130 0 -217 104 -217 218s87 217 217 217s217 -103 217 -217s-87 -218 -217 -218zM1434 -3c-130 0 -218 104 -218 218s88 217 218 217s217 -103 217 -217s-87 -218 -217 -218zM951 332
c-61 0 -106 -48 -106 -117s45 -118 106 -118s106 49 106 118s-45 117 -106 117zM1434 332c-61 0 -106 -48 -106 -117s45 -118 106 -118s106 49 106 118s-45 117 -106 117z" />
    <glyph glyph-name="plus" unicode="+" horiz-adv-x="636" 
d="M552 401c6 0 10 -4 10 -10v-82c0 -6 -4 -10 -10 -10h-142c-6 0 -10 -4 -10 -10v-147c0 -6 -4 -10 -10 -10h-93c-6 0 -10 4 -10 10v147c0 6 -4 10 -10 10h-143c-6 0 -10 4 -10 10v82c0 6 4 10 10 10h143c6 0 10 4 10 10v149c0 6 4 10 10 10h93c6 0 10 -4 10 -10v-149
c0 -6 4 -10 10 -10h142z" />
    <glyph glyph-name="plusminus" unicode="&#xb1;" horiz-adv-x="603" 
d="M380 300c-6 0 -10 -4 -10 -10v-105h152c6 0 10 -4 10 -10v-82c0 -6 -4 -10 -10 -10h-418c-5 0 -9 4 -9 10v82c0 6 4 10 9 10h153v105c0 6 -4 10 -10 10h-143c-6 0 -10 4 -10 10v82c0 6 4 10 10 10h143c6 0 10 4 10 10v148c0 6 4 10 10 10h93c6 0 10 -4 10 -10v-148
c0 -6 4 -10 10 -10h142c6 0 10 -4 10 -10v-82c0 -6 -4 -10 -10 -10h-142z" />
    <glyph glyph-name="bar" unicode="|" horiz-adv-x="282" 
d="M104 -207c-6 0 -10 4 -10 10v980c0 6 4 10 10 10h94c6 0 10 -4 10 -10v-980c0 -6 -4 -10 -10 -10h-94z" />
    <glyph glyph-name="at" unicode="@" horiz-adv-x="1040" 
d="M477 -143c165 0 288 80 331 135c3 4 7 6 12 6h58c8 0 11 -5 7 -12c-40 -71 -187 -196 -404 -196c-310 0 -447 217 -447 449c0 246 179 517 517 517c245 0 402 -181 402 -398c0 -281 -187 -360 -276 -360c-65 0 -99 24 -119 57c-3 6 -8 7 -13 2c-43 -38 -92 -60 -154 -60
c-149 0 -188 165 -155 301c35 140 135 232 265 232c45 0 86 -19 105 -43c5 -7 11 -5 13 4l6 27c1 6 5 9 11 9h88c7 0 10 -4 9 -11l-78 -373c-8 -44 2 -76 54 -76c77 0 171 116 171 297c0 163 -109 325 -329 325c-293 0 -444 -243 -444 -446c0 -247 159 -386 370 -386z
M346 275c-25 -103 15 -179 85 -179c53 0 113 30 129 106l27 130c12 60 -26 99 -78 99c-74 0 -138 -53 -163 -156z" />
    <glyph glyph-name="ampersand" unicode="&#x26;" horiz-adv-x="776" 
d="M703 99c4 -3 6 -7 5 -13l-11 -81c-1 -8 -7 -11 -13 -6c-30 21 -75 56 -126 96c-60 -57 -134 -98 -224 -98c-121 0 -240 60 -240 195c0 89 57 144 128 182c-45 48 -73 97 -73 160c0 87 74 182 211 182c146 0 201 -96 201 -169c0 -116 -108 -159 -177 -188
c13 -10 25 -19 36 -28c33 -26 76 -61 119 -96c23 31 40 61 50 79c3 5 7 6 12 6l94 -11c7 -1 10 -5 6 -12c-21 -40 -47 -86 -80 -130c36 -29 66 -54 82 -68zM359 614c-42 0 -97 -31 -97 -91c0 -39 25 -75 57 -108c82 34 129 65 129 121c0 48 -39 78 -89 78zM337 99
c50 0 97 27 137 63c-41 32 -82 66 -121 97l-65 54c-47 -27 -80 -59 -80 -111c0 -65 58 -103 129 -103z" />
    <glyph glyph-name="copyright" unicode="&#xa9;" horiz-adv-x="861" 
d="M446 716c-207 0 -352 -147 -352 -359s145 -360 352 -360c206 0 351 148 351 360s-145 359 -351 359zM446 668c159 0 300 -115 300 -311c0 -197 -141 -312 -300 -312c-160 0 -301 115 -302 312c1 196 142 311 302 311zM558 250c3 4 5 4 9 0l37 -40c2 -3 3 -6 0 -9
c-27 -28 -74 -68 -154 -68c-126 0 -220 101 -220 224c0 122 94 223 220 223c73 0 127 -40 154 -68c3 -3 3 -5 0 -9l-37 -41c-4 -3 -6 -2 -9 1c-18 19 -51 48 -108 48c-78 0 -144 -64 -144 -154c0 -91 66 -155 144 -155c57 0 91 29 108 48z" />
    <glyph glyph-name="registered" unicode="&#xae;" horiz-adv-x="861" 
d="M446 716c-207 0 -352 -147 -352 -359s145 -360 352 -360c206 0 351 148 351 360s-145 359 -351 359zM446 668c159 0 300 -115 300 -311c0 -197 -141 -312 -300 -312c-160 0 -301 115 -302 312c1 196 142 311 302 311zM314 162c-3 0 -5 3 -5 6v377c0 4 2 6 5 6h149
c78 0 137 -52 137 -131c0 -57 -31 -94 -69 -115c-3 -1 -3 -5 -2 -7l68 -129c2 -4 0 -7 -4 -7h-61c-3 0 -5 1 -6 4l-62 119c-1 3 -3 4 -6 4h-78c-3 0 -5 -2 -5 -5v-116c0 -3 -2 -6 -5 -6h-56zM383 350h82c31 0 70 23 70 70c0 49 -36 71 -76 71h-76c-4 0 -6 -3 -6 -6v-130
c0 -3 2 -5 6 -5z" />
    <glyph glyph-name="trademark" unicode="&#x2122;" horiz-adv-x="708" 
d="M301 753c4 0 6 -2 6 -6v-38c0 -4 -2 -7 -6 -7h-75c-5 0 -7 -3 -7 -7v-234c0 -4 -3 -7 -7 -7h-43c-4 0 -6 3 -6 7v234c0 4 -3 7 -7 7h-75c-5 0 -7 3 -7 7v38c0 4 2 6 7 6h220zM609 749c2 4 5 4 9 4h29c4 0 6 -2 6 -6v-286c0 -4 -2 -7 -6 -7h-43c-4 0 -7 3 -7 7v157
c0 6 -5 8 -8 3l-88 -143c-3 -4 -7 -4 -10 0l-88 143c-3 5 -8 3 -8 -3v-157c0 -4 -2 -7 -6 -7h-43c-4 0 -7 3 -7 7v286c0 4 3 6 7 6h29c3 0 6 0 8 -4l108 -176c3 -4 7 -4 10 0z" />
    <glyph glyph-name="degree" unicode="&#xb0;" horiz-adv-x="393" 
d="M192 401c-87 0 -158 70 -158 157s71 158 158 158s157 -69 157 -158c0 -87 -69 -157 -157 -157zM192 651c-52 0 -88 -41 -88 -93s36 -93 88 -93c51 0 87 41 87 93s-36 93 -87 93z" />
    <glyph glyph-name="asciicircum" unicode="^" horiz-adv-x="721" 
d="M325 702c3 4 6 5 10 5h66c4 0 7 -1 10 -5l231 -383c2 -4 0 -8 -6 -8h-88c-4 0 -7 1 -10 6l-164 272c-4 5 -7 5 -10 0l-165 -272c-2 -5 -6 -6 -10 -6h-88c-6 0 -8 4 -6 8z" />
    <glyph glyph-name="uni0308" unicode="&#x308;" 
d="M-320 626c-35 0 -65 30 -65 65c0 36 30 65 65 65c36 0 65 -29 65 -65c0 -35 -29 -65 -65 -65zM-140 626c-35 0 -65 30 -65 65c0 36 30 65 65 65c36 0 65 -29 65 -65c0 -35 -29 -65 -65 -65z" />
    <glyph glyph-name="uni0307" unicode="&#x307;" 
d="M-127 626c-35 0 -65 30 -65 65c0 36 30 65 65 65c36 0 65 -29 65 -65c0 -35 -29 -65 -65 -65z" />
    <glyph glyph-name="gravecomb" unicode="&#x300;" 
d="M-156 746l85 -137c4 -7 -1 -12 -8 -12h-64c-5 0 -9 1 -12 6l-101 138c-5 6 -2 12 6 12h82c5 0 9 -2 12 -7z" />
    <glyph glyph-name="acutecomb" unicode="&#x301;" 
d="M-171 746c2 5 7 7 12 7h81c8 0 11 -6 6 -12l-101 -138c-3 -5 -7 -6 -12 -6h-64c-7 0 -12 5 -8 12z" />
    <glyph glyph-name="uni030B" unicode="&#x30b;" 
d="M-282 597c-1 -5 -5 -9 -11 -9h-81c-7 0 -10 4 -8 11l74 213c2 6 7 8 12 8h61c7 0 10 -5 8 -11zM-126 597c-1 -5 -5 -9 -11 -9h-81c-7 0 -10 4 -8 11l74 213c2 6 7 8 12 8h61c7 0 10 -5 8 -11z" />
    <glyph glyph-name="uni0302" unicode="&#x302;" 
d="M-342 665c0 5 3 9 8 12l117 61c4 2 10 2 14 0l117 -61c5 -3 8 -7 8 -12v-57c0 -7 -5 -12 -12 -8l-113 58c-4 2 -10 2 -14 0l-113 -58c-7 -4 -12 1 -12 8v57z" />
    <glyph glyph-name="uni030C" unicode="&#x30c;" 
d="M-342 673v57c0 7 5 12 12 8l113 -58c4 -2 10 -2 14 0l113 58c7 4 12 -1 12 -8v-57c0 -5 -3 -9 -8 -12l-117 -61c-4 -2 -10 -2 -14 0l-117 61c-5 3 -8 7 -8 12z" />
    <glyph glyph-name="uni0306" unicode="&#x306;" 
d="M-440 745c0 5 3 8 8 8h37c5 0 8 -3 8 -8c5 -41 39 -71 83 -71s78 30 82 71c0 5 3 8 8 8h38c5 0 8 -3 8 -8c-4 -86 -61 -136 -136 -136s-132 51 -136 136z" />
    <glyph glyph-name="uni030A" unicode="&#x30a;" 
d="M-277 606c-42 0 -75 34 -75 75c0 42 33 75 75 75c41 0 75 -33 75 -75c0 -41 -34 -75 -75 -75zM-277 714c-21 0 -33 -17 -33 -33s12 -33 33 -33s33 17 33 33s-12 33 -33 33z" />
    <glyph glyph-name="tildecomb" unicode="&#x303;" 
d="M-199 603c-69 0 -90 62 -139 62c-27 0 -48 -18 -61 -42c-2 -4 -4 -6 -9 -4l-38 11c-5 2 -6 5 -5 9c14 37 41 111 113 111c67 0 93 -61 139 -61c27 0 47 12 60 39c2 5 4 7 9 6l38 -12c5 -1 7 -5 5 -11c-9 -31 -35 -108 -112 -108z" />
    <glyph glyph-name="uni0304" unicode="&#x304;" 
d="M-350 705c0 5 3 8 8 8h264c5 0 8 -3 8 -8v-61c0 -5 -3 -8 -8 -8h-264c-5 0 -8 3 -8 8v61z" />
    <glyph glyph-name="uni0312" unicode="&#x312;" 
d="M-156 597c-1 -5 -5 -9 -11 -9h-81c-7 0 -10 4 -8 11l74 213c2 6 7 8 12 8h61c7 0 10 -5 8 -11z" />
    <glyph glyph-name="uni0326" unicode="&#x326;" 
d="M-206 -70c1 5 4 9 10 9h82c7 0 10 -4 8 -11l-74 -214c-2 -6 -7 -8 -12 -8h-61c-7 0 -10 5 -8 11z" />
    <glyph glyph-name="uni0327" unicode="&#x327;" 
d="M-186 -210c-26 0 -58 10 -77 24c-4 2 -5 5 -5 9v30c0 5 4 10 9 7c16 -7 38 -17 63 -17c28 0 55 14 55 41s-23 42 -53 42c-26 0 -41 -6 -51 -11c-7 -3 -10 2 -8 7l36 100h70l-15 -56c-1 -6 1 -9 7 -9c46 2 85 -26 85 -78s-55 -89 -116 -89z" />
    <glyph glyph-name="uni0328" unicode="&#x328;" 
d="M-157 -210c-66 0 -120 30 -120 92c0 69 66 106 118 120h53c-58 -29 -97 -64 -97 -104c0 -36 30 -53 60 -53s45 7 64 13c5 2 9 -2 9 -7v-31c0 -4 -1 -7 -3 -8c-19 -13 -47 -22 -84 -22z" />
    <glyph glyph-name="uni0335" unicode="&#x335;" 
d="M-70 317c0 -6 -4 -10 -10 -10h-385c-6 0 -10 4 -10 10v45c0 6 4 10 10 10h385c6 0 10 -4 10 -10v-45z" />
    <glyph glyph-name="uni0336" unicode="&#x336;" 
d="M-70 315c0 -6 -4 -10 -10 -10h-695c-6 0 -10 4 -10 10v48c0 6 4 10 10 10h695c6 0 10 -4 10 -10v-48z" />
    <glyph glyph-name="uni0337" unicode="&#x337;" 
d="M-476 284l-40 41c-5 4 -4 10 3 13l386 138c5 2 9 1 12 -3l42 -40c5 -5 3 -11 -4 -14l-386 -138c-5 -2 -9 -1 -13 3z" />
    <glyph glyph-name="uni0338" unicode="&#x338;" 
d="M-447 -40c5 0 9 2 11 7l365 774c3 7 0 12 -7 12h-58c-5 0 -9 -2 -11 -7l-365 -774c-3 -7 0 -12 7 -12h58z" />
    <glyph glyph-name="acute" unicode="&#xb4;" horiz-adv-x="600" 
d="M187 746c2 5 7 7 12 7h81c8 0 11 -6 6 -12l-101 -138c-3 -5 -7 -6 -12 -6h-64c-7 0 -12 5 -8 12z" />
    <glyph glyph-name="breve" unicode="&#x2d8;" horiz-adv-x="600" 
d="M160 745c0 5 3 8 8 8h37c5 0 8 -3 8 -8c5 -41 39 -71 83 -71s78 30 82 71c0 5 3 8 8 8h38c5 0 8 -3 8 -8c-4 -86 -61 -136 -136 -136s-132 51 -136 136z" />
    <glyph glyph-name="caron" unicode="&#x2c7;" horiz-adv-x="600" 
d="M108 673v57c0 7 5 12 12 8l113 -58c4 -2 10 -2 14 0l113 58c7 4 12 -1 12 -8v-57c0 -5 -3 -9 -8 -12l-117 -61c-4 -2 -10 -2 -14 0l-117 61c-5 3 -8 7 -8 12z" />
    <glyph glyph-name="cedilla" unicode="&#xb8;" horiz-adv-x="600" 
d="M195 -210c-26 0 -58 10 -77 24c-4 2 -5 5 -5 9v30c0 5 4 10 9 7c16 -7 38 -17 63 -17c28 0 55 14 55 41s-23 42 -53 42c-26 0 -41 -6 -51 -11c-7 -3 -10 2 -8 7l36 100h70l-15 -56c-1 -6 1 -9 7 -9c46 2 85 -26 85 -78s-55 -89 -116 -89z" />
    <glyph glyph-name="circumflex" unicode="&#x2c6;" horiz-adv-x="600" 
d="M108 665c0 5 3 9 8 12l117 61c4 2 10 2 14 0l117 -61c5 -3 8 -7 8 -12v-57c0 -7 -5 -12 -12 -8l-113 58c-4 2 -10 2 -14 0l-113 -58c-7 -4 -12 1 -12 8v57z" />
    <glyph glyph-name="dieresis" unicode="&#xa8;" horiz-adv-x="600" 
d="M150 626c-35 0 -65 30 -65 65c0 36 30 65 65 65c36 0 65 -29 65 -65c0 -35 -29 -65 -65 -65zM330 626c-35 0 -65 30 -65 65c0 36 30 65 65 65c36 0 65 -29 65 -65c0 -35 -29 -65 -65 -65z" />
    <glyph glyph-name="dotaccent" unicode="&#x2d9;" horiz-adv-x="600" 
d="M158 626c-35 0 -65 30 -65 65c0 36 30 65 65 65c36 0 65 -29 65 -65c0 -35 -29 -65 -65 -65z" />
    <glyph glyph-name="grave" unicode="`" horiz-adv-x="600" 
d="M202 746l85 -137c4 -7 -1 -12 -8 -12h-64c-5 0 -9 1 -12 6l-101 138c-5 6 -2 12 6 12h82c5 0 9 -2 12 -7z" />
    <glyph glyph-name="hungarumlaut" unicode="&#x2dd;" horiz-adv-x="600" 
d="M202 597c-1 -5 -5 -9 -11 -9h-81c-7 0 -10 4 -8 11l74 213c2 6 7 8 12 8h61c7 0 10 -5 8 -11zM358 597c-1 -5 -5 -9 -11 -9h-81c-7 0 -10 4 -8 11l74 213c2 6 7 8 12 8h61c7 0 10 -5 8 -11z" />
    <glyph glyph-name="macron" unicode="&#xaf;" horiz-adv-x="600" 
d="M100 705c0 5 3 8 8 8h264c5 0 8 -3 8 -8v-61c0 -5 -3 -8 -8 -8h-264c-5 0 -8 3 -8 8v61z" />
    <glyph glyph-name="ogonek" unicode="&#x2db;" horiz-adv-x="600" 
d="M220 -210c-66 0 -120 30 -120 92c0 69 66 106 118 120h53c-58 -29 -97 -64 -97 -104c0 -36 30 -53 60 -53s45 7 64 13c5 2 9 -2 9 -7v-31c0 -4 -1 -7 -3 -8c-19 -13 -47 -22 -84 -22z" />
    <glyph glyph-name="ring" unicode="&#x2da;" horiz-adv-x="600" 
d="M323 606c-42 0 -75 34 -75 75c0 42 33 75 75 75c41 0 75 -33 75 -75c0 -41 -34 -75 -75 -75zM323 714c-21 0 -33 -17 -33 -33s12 -33 33 -33s33 17 33 33s-12 33 -33 33z" />
    <glyph glyph-name="tilde" unicode="&#x2dc;" horiz-adv-x="600" 
d="M347 603c-69 0 -90 62 -139 62c-27 0 -48 -18 -61 -42c-2 -4 -4 -6 -9 -4l-38 11c-5 2 -6 5 -5 9c14 37 41 111 113 111c67 0 93 -61 139 -61c27 0 47 12 60 39c2 5 4 7 9 6l38 -12c5 -1 7 -5 5 -11c-9 -31 -35 -108 -112 -108z" />
    </font>
</defs>
</svg>
