<?xml version="1.0" encoding="UTF-8" standalone="no"?><!DOCTYPE svg PUBLIC "-//W3C//DTD SVG 1.1//EN" "http://www.w3.org/Graphics/SVG/1.1/DTD/svg11.dtd"><svg width="100%" height="100%" viewBox="0 0 449 442" version="1.1" xmlns="http://www.w3.org/2000/svg" xmlns:xlink="http://www.w3.org/1999/xlink" xml:space="preserve" style="fill-rule:evenodd;clip-rule:evenodd;stroke-linejoin:round;stroke-miterlimit:1.41421;"><path d="M132.224,68.792c20.035,-38.951 54.3,-64.644 93.173,-64.644c38.872,0 73.137,25.693 93.172,64.644l65.123,0l0,62.34c37.756,19.881 62.433,52.68 62.433,89.746c0,37.065 -24.677,69.865 -62.433,89.746l0,65.517l-66.804,0c-20.239,37.165 -53.687,61.466 -91.491,61.466c-37.805,0 -71.253,-24.301 -91.492,-61.466l-63.233,0l0,-63.695c-39.763,-19.661 -66.004,-53.346 -66.004,-91.568c0,-38.222 26.241,-71.908 66.004,-91.568l0,-60.518l61.552,0Z" style="fill:#fff;"/><g><clipPath id="_clip1"><rect x="143.933" y="614.508" width="121.202" height="119.763"/></clipPath><g clip-path="url(#_clip1)"></g></g></svg>