<?xml version="1.0" encoding="UTF-8" standalone="no"?><!DOCTYPE svg PUBLIC "-//W3C//DTD SVG 1.1//EN" "http://www.w3.org/Graphics/SVG/1.1/DTD/svg11.dtd"><svg width="100%" height="100%" viewBox="0 0 310 276" version="1.1" xmlns="http://www.w3.org/2000/svg" xmlns:xlink="http://www.w3.org/1999/xlink" xml:space="preserve" style="fill-rule:evenodd;clip-rule:evenodd;stroke-linejoin:round;stroke-miterlimit:1.41421;"><rect x="-785.659" y="-233.917" width="1097.07" height="508.227" style="fill:#fff;stroke-width:2.5px;stroke:#fff;"/><rect x="-725.733" y="-338.356" width="1026.96" height="609.252" style="fill:#f9d9c8;"/><g><path d="M-47.763,30.393c5.777,-11.44 15.659,-18.986 26.868,-18.986c11.21,0 21.092,7.546 26.869,18.986l18.78,0l0,18.309c10.888,5.839 18.004,15.472 18.004,26.358c0,10.886 -7.116,20.519 -18.004,26.358l0,19.243l-19.265,0c-5.836,10.915 -15.482,18.052 -26.384,18.052c-10.902,0 -20.547,-7.137 -26.383,-18.052l-18.235,0l0,-18.708c-11.467,-5.774 -19.034,-15.667 -19.034,-26.893c0,-11.226 7.567,-21.119 19.034,-26.893l0,-17.774l17.75,0Z" style="fill:none;stroke-width:2.5px;stroke:#fff;"/><path d="M-47.595,-61.506c5.777,-11.44 15.659,-18.986 26.869,-18.986c11.209,0 21.091,7.546 26.868,18.986l18.78,0l0,18.309c10.888,5.839 18.004,15.472 18.004,26.358c0,10.886 -7.116,20.519 -18.004,26.358l0,19.242l-19.265,0c-5.836,10.916 -15.481,18.053 -26.383,18.053c-10.902,0 -20.548,-7.137 -26.384,-18.053l-18.235,0l0,-18.707c-11.467,-5.774 -19.034,-15.667 -19.034,-26.893c0,-11.226 7.567,-21.119 19.034,-26.893l0,-17.774l17.75,0Z" style="fill:none;stroke-width:2.5px;stroke:#fff;"/><path d="M-46.749,161.217c5.778,-11.44 15.659,-18.986 26.869,-18.986c11.21,0 21.091,7.546 26.869,18.986l18.78,0l0,18.309c10.888,5.839 18.004,15.472 18.004,26.358c0,10.886 -7.116,20.519 -18.004,26.358l0,19.243l-19.265,0c-5.836,10.915 -15.482,18.052 -26.384,18.052c-10.902,0 -20.547,-7.137 -26.384,-18.052l-18.235,0l0,-18.708c-11.466,-5.774 -19.034,-15.667 -19.034,-26.893c0,-11.226 7.568,-21.119 19.034,-26.893l0,-17.774l17.75,0Z" style="fill:none;stroke-width:2.5px;stroke:#fff;"/><path d="M81.347,160.699c5.778,-11.44 15.659,-18.986 26.869,-18.986c11.21,0 21.091,7.546 26.869,18.986l18.78,0l0,18.309c10.887,5.839 18.004,15.472 18.004,26.358c0,10.886 -7.117,20.519 -18.004,26.358l0,19.242l-19.265,0c-5.837,10.915 -15.482,18.053 -26.384,18.053c-10.902,0 -20.548,-7.138 -26.384,-18.053l-18.235,0l0,-18.707c-11.467,-5.774 -19.034,-15.668 -19.034,-26.893c0,-11.226 7.567,-21.119 19.034,-26.894l0,-17.773l17.75,0Z" style="fill:none;stroke-width:2.5px;stroke:#fff;"/><path d="M210.208,161.534c5.778,-11.44 15.659,-18.985 26.869,-18.985c11.21,0 21.091,7.545 26.869,18.985l18.78,0l0,18.309c10.887,5.839 18.004,15.472 18.004,26.358c0,10.886 -7.117,20.52 -18.004,26.359l0,19.242l-19.265,0c-5.837,10.915 -15.482,18.052 -26.384,18.052c-10.902,0 -20.548,-7.137 -26.384,-18.052l-18.235,0l0,-18.707c-11.467,-5.775 -19.034,-15.668 -19.034,-26.894c0,-11.225 7.567,-21.119 19.034,-26.893l0,-17.774l17.75,0Z" style="fill:none;stroke-width:2.5px;stroke:#fff;"/><path d="M80.5,-62.025c5.778,-11.439 15.659,-18.985 26.869,-18.985c11.21,0 21.091,7.546 26.869,18.985l18.78,0l0,18.309c10.888,5.839 18.004,15.473 18.004,26.359c0,10.886 -7.116,20.519 -18.004,26.358l0,19.242l-19.265,0c-5.836,10.915 -15.482,18.052 -26.384,18.052c-10.902,0 -20.547,-7.137 -26.384,-18.052l-18.235,0l0,-18.707c-11.467,-5.774 -19.034,-15.668 -19.034,-26.893c0,-11.226 7.567,-21.119 19.034,-26.894l0,-17.774l17.75,0Z" style="fill:none;stroke-width:2.5px;stroke:#fff;"/><path d="M82.96,30.71c5.778,-11.44 15.659,-18.985 26.869,-18.985c11.21,0 21.091,7.545 26.869,18.985l18.78,0l0,18.309c10.888,5.839 18.004,15.472 18.004,26.358c0,10.886 -7.116,20.52 -18.004,26.359l0,19.242l-19.265,0c-5.837,10.915 -15.482,18.052 -26.384,18.052c-10.902,0 -20.547,-7.137 -26.384,-18.052l-18.235,0l0,-18.707c-11.467,-5.775 -19.034,-15.668 -19.034,-26.894c0,-11.225 7.567,-21.119 19.034,-26.893l0,-17.774l17.75,0Z" style="fill:none;stroke-width:2.5px;stroke:#fff;"/><path d="M209.193,30.71c5.778,-11.44 15.659,-18.985 26.869,-18.985c11.21,0 21.091,7.545 26.869,18.985l18.78,0l0,18.309c10.888,5.839 18.004,15.472 18.004,26.358c0,10.886 -7.116,20.52 -18.004,26.359l0,19.242l-19.265,0c-5.837,10.915 -15.482,18.052 -26.384,18.052c-10.902,0 -20.548,-7.137 -26.384,-18.052l-18.235,0l0,-18.707c-11.467,-5.775 -19.034,-15.668 -19.034,-26.894c0,-11.225 7.567,-21.119 19.034,-26.893l0,-17.774l17.75,0Z" style="fill:none;stroke-width:2.5px;stroke:#fff;"/><path d="M209.361,-61.189c5.778,-11.44 15.659,-18.986 26.869,-18.986c11.21,0 21.091,7.546 26.869,18.986l18.78,0l0,18.309c10.888,5.839 18.004,15.472 18.004,26.358c0,10.886 -7.116,20.519 -18.004,26.358l0,19.243l-19.265,0c-5.836,10.915 -15.482,18.052 -26.384,18.052c-10.902,0 -20.547,-7.137 -26.384,-18.052l-18.235,0l0,-18.707c-11.467,-5.775 -19.034,-15.668 -19.034,-26.894c0,-11.225 7.567,-21.119 19.034,-26.893l0,-17.774l17.75,0Z" style="fill:none;stroke-width:2.5px;stroke:#fff;"/></g><rect x="-726.025" y="-347.084" width="1031.36" height="621.391" style="fill:#bb4481;"/><path d="M108.857,45.728c13.189,-26.114 35.745,-43.339 61.335,-43.339c25.589,0 48.146,17.225 61.335,43.339l42.87,0l0,41.795c24.854,13.329 41.099,35.319 41.099,60.169c0,24.851 -16.245,46.841 -41.099,60.17l0,43.925l-43.977,0c-13.323,24.917 -35.342,41.209 -60.228,41.209c-24.887,0 -46.905,-16.292 -60.228,-41.209l-41.626,0l0,-42.704c-26.176,-13.181 -43.45,-35.765 -43.45,-61.391c0,-25.625 17.274,-48.209 43.45,-61.39l0,-40.574l40.519,0Z" style="fill:#fff;"/><g><clipPath id="_clip1"><rect x="-280.067" y="-2098.49" width="121.202" height="119.763"/></clipPath><g clip-path="url(#_clip1)"></g></g></svg>