<?xml version="1.0" encoding="UTF-8" standalone="no"?><!DOCTYPE svg PUBLIC "-//W3C//DTD SVG 1.1//EN" "http://www.w3.org/Graphics/SVG/1.1/DTD/svg11.dtd"><svg width="100%" height="100%" viewBox="0 0 28 28" version="1.1" xmlns="http://www.w3.org/2000/svg" xmlns:xlink="http://www.w3.org/1999/xlink" xml:space="preserve" style="fill-rule:evenodd;clip-rule:evenodd;stroke-linejoin:round;stroke-miterlimit:1.41421;"><path d="M8.18,4.282c1.265,-2.504 3.428,-4.157 5.883,-4.157c2.454,0 4.618,1.653 5.883,4.157l4.112,0l0,4.009c2.384,1.279 3.942,3.388 3.942,5.772c0,2.383 -1.558,4.493 -3.942,5.771l0,4.213l-4.218,0c-1.278,2.39 -3.39,3.953 -5.777,3.953c-2.387,0 -4.499,-1.563 -5.777,-3.953l-3.993,0l0,-4.096c-2.511,-1.264 -4.168,-3.43 -4.168,-5.888c0,-2.458 1.657,-4.624 4.168,-5.889l0,-3.892l3.887,0Z" style="fill:#fff;"/><g><clipPath id="_clip1"><rect x="26.933" y="81.508" width="121.202" height="119.763"/></clipPath><g clip-path="url(#_clip1)"></g></g></svg>